/* XPM */
static char *ceiling_01[] = {
/* columns rows colors chars-per-pixel */
"64 64 256 2 ",
"   c gray1",
".  c #1F170B",
"X  c #170F07",
"o  c #4B4B4B",
"O  c gray100",
"+  c #1B1B1B",
"@  c #131313",
"#  c #0B0B0B",
"$  c #070707",
"%  c #2F371F",
"&  c #232B0F",
"*  c #171F07",
"=  c #0F1703",
"-  c #4F3B2B",
";  c #473323",
":  c #3F2B1B",
">  c #FFB7B7",
",  c #F7ABAB",
"<  c #F3A3A3",
"1  c #EB9797",
"2  c #E78F8F",
"3  c #DF8787",
"4  c #DB7B7B",
"5  c #D37373",
"6  c #CB6B6B",
"7  c #C76363",
"8  c #BF5B5B",
"9  c #BB5757",
"0  c #B34F4F",
"q  c #AF4747",
"w  c #A73F3F",
"e  c #A33B3B",
"r  c #9B3333",
"t  c #972F2F",
"y  c #8F2B2B",
"u  c #8B2323",
"i  c #831F1F",
"p  c #7F1B1B",
"a  c #771717",
"s  c #731313",
"d  c #6B0F0F",
"f  c #670B0B",
"g  c #5F0707",
"h  c #5B0707",
"j  c #530707",
"k  c #4F0303",
"l  c #470303",
"z  c #430303",
"x  c #FFEBDF",
"c  c #FFE3D3",
"v  c #FFDBC7",
"b  c #FFD3BB",
"n  c #FFCFB3",
"m  c #FFC7A7",
"M  c #FFBF9B",
"N  c #FFBB93",
"B  c #FFB383",
"V  c #F7AB7B",
"C  c #EFA373",
"Z  c #E79B6B",
"A  c #DF9363",
"S  c #D78B5B",
"D  c #CF8353",
"F  c #CB7F4F",
"G  c #BF7B4B",
"H  c #B37347",
"J  c #AB6F43",
"K  c #A36B3F",
"L  c #9B633B",
"P  c #8F5F37",
"I  c #875733",
"U  c #7F532F",
"Y  c #774F2B",
"T  c #6B4727",
"R  c #5F4323",
"E  c #533F1F",
"W  c #4B371B",
"Q  c #3F2F17",
"!  c #332B13",
"~  c #2B230F",
"^  c #EFEFEF",
"/  c #E7E7E7",
"(  c #DFDFDF",
")  c gray86",
"_  c LightGray",
"`  c #CBCBCB",
"'  c gray78",
"]  c gray75",
"[  c #B7B7B7",
"{  c gray70",
"}  c gray67",
"|  c #A7A7A7",
" . c #9F9F9F",
".. c #979797",
"X. c #939393",
"o. c #8B8B8B",
"O. c #838383",
"+. c gray50",
"@. c #777777",
"#. c #6F6F6F",
"$. c gray42",
"%. c gray39",
"&. c #5B5B5B",
"*. c gray34",
"=. c gray31",
"-. c gray28",
";. c #434343",
":. c gray23",
">. c #373737",
",. c #2F2F2F",
"<. c #272727",
"1. c #232323",
"2. c #77FF6F",
"3. c #6FEF67",
"4. c #67DF5F",
"5. c #5FCF57",
"6. c #5BBF4F",
"7. c #53AF47",
"8. c #4B9F3F",
"9. c #439337",
"0. c #3F832F",
"q. c #37732B",
"w. c #2F6323",
"e. c #27531B",
"r. c #1F4317",
"t. c #17330F",
"y. c #13230B",
"u. c #0B1707",
"i. c #BFA78F",
"p. c #B79F87",
"a. c #AF977F",
"s. c #A78F77",
"d. c #9F876F",
"f. c #9B7F6B",
"g. c #937B63",
"h. c #8B735B",
"j. c #836B57",
"k. c #7B634F",
"l. c #775F4B",
"z. c #6F5743",
"x. c #67533F",
"c. c #5F4B37",
"v. c #574333",
"b. c #533F2F",
"n. c #9F8363",
"m. c #8F7753",
"M. c #836B4B",
"N. c #775F3F",
"B. c #675333",
"V. c #5B472B",
"C. c #4F3B23",
"Z. c #43331B",
"A. c #7B7F63",
"S. c #6F7357",
"D. c #676B4F",
"F. c #5B6347",
"G. c #53573B",
"H. c #474F33",
"J. c #3F472B",
"K. c #373F27",
"L. c #FFFF73",
"P. c #EBDB57",
"I. c #D7BB43",
"U. c #C39B2F",
"Y. c #AF7B1F",
"T. c #9B5B13",
"R. c #874307",
"E. c #732B03",
"W. c gray100",
"Q. c #FFDBDB",
"!. c #FFBBBB",
"~. c #FF9B9B",
"^. c #FF7B7B",
"/. c #FF5F5F",
"(. c #FF3F3F",
"). c #FF1F1F",
"_. c #FF0303",
"`. c #EF0303",
"'. c #E30303",
"]. c #D70303",
"[. c #CB0303",
"{. c #BF0303",
"}. c #B30303",
"|. c #A70303",
" X c #9B0303",
".X c #8B0303",
"XX c #7F0303",
"oX c #730303",
"OX c #670303",
"+X c #5B0303",
"@X c #4F0303",
"#X c #430303",
"$X c #E7E7FF",
"%X c #C7C7FF",
"&X c #ABABFF",
"*X c #8F8FFF",
"=X c #7373FF",
"-X c #5353FF",
";X c #3737FF",
":X c #1B1BFF",
">X c #0303FF",
",X c #0303E3",
"<X c #0303CB",
"1X c #0303B3",
"2X c #03039B",
"3X c #030383",
"4X c #03036B",
"5X c #030353",
"6X c gray100",
"7X c #FFEBDB",
"8X c #FFD7BB",
"9X c #FFC79B",
"0X c #FFB37B",
"qX c #FFA35B",
"wX c #FF8F3B",
"eX c #FF7F1B",
"rX c #F37317",
"tX c #EB6F0F",
"yX c #DF670F",
"uX c #D75F0B",
"iX c #CB5707",
"pX c #C34F03",
"aX c #B74703",
"sX c #AF4303",
"dX c gray100",
"fX c #FFFFD7",
"gX c #FFFFB3",
"hX c #FFFF8F",
"jX c #FFFF6B",
"kX c #FFFF47",
"lX c #FFFF23",
"zX c #FFFF03",
"xX c #A73F03",
"cX c #9F3703",
"vX c #932F03",
"bX c #872303",
"nX c #4F3B27",
"mX c #432F1B",
"MX c #372313",
"NX c #2F1B0B",
"BX c #030353",
"VX c #030347",
"CX c #03033B",
"ZX c #03032F",
"AX c #030323",
"SX c #030317",
"DX c #03030B",
"FX c black",
"GX c #FF9F43",
"HX c #FFE74B",
"JX c #FF7BFF",
"KX c #FF03FF",
"LX c #CF03CF",
"PX c #9F039B",
"IX c #6F036B",
"UX c magenta",
/* pixels */
"T T T T T T T T T T T T T T T T T T T T T T T T T T T T T T T T T T T T T T T T T T T T T T T T T T T T T T T T T T T T T T T T ",
"T R R R R R R R R R R R R R R Y T R R R R R R R R R R R R R R Y T R R R R R R R R R R R R R Y T R R R R R R R R R R R R R R T T ",
"T R Q Q Q Q Q Q Q Q Q Q Q Q Q Y T R Q Q Q Q Q Q Q Q Q Q Q Q Q Y T R Q Q Q Q Q Q Q Q Q Q Q Q Y T R Q Q Q Q Q Q Q Q Q Q Q Q Q Y T ",
"T R Q W E W W E E W W W W E W Y T R Q W W E E W E E E W W W W Y T R Q W E W E E W W W E E W Y T R Q W E W W W E E W W E W W Y T ",
"T R Q E E W W W E E E E W W E Y T R Q E W W E E W W W E E W E Y T R Q W W W E E W W E W W W Y T R Q W W E E W W W W E E W W Y T ",
"T R Q W W W E E E W W W W E W Y T R Q W W E E E W W E E W W W Y T R Q W E W W W W E W E W W Y T R Q W E E W W E W W W E W E Y T ",
"T R Q W E W W E E W E E W E W Y T R Q W E W W E E W E W E W W Y T R Q E E E E W E E W E W E Y T R Q E W W W W E E W W E W E Y T ",
"T R Q W E W W W E W E E E W E Y T R Q E E W W E W W W E W E E Y T R Q E W E W W E W W W W W Y T R Q E E W E W W E W E E W W Y T ",
"T R Q E W E W W W W E E E W W Y T R Q E W W W E E W W E W W E Y T R Q W W W W E E W W W E W Y T R Q E E E W E E E E E W W W Y T ",
"T R Q W W E W E W W W E E W W Y T R Q W E E E W W W W E W W E Y T R Q W E E E E W W E E E E Y T R Q W W E E W W W W E E W E Y T ",
"T R Q W E E E E W E W E E E E Y T R Q W E W W W E E W E W E E Y T R Q E W W E E W W E W W E Y T R Q W W E E W W E E W E E E Y T ",
"T R Q E W E E E E E W E W E W Y T R Q E W E E E E W E E W W W Y T R Q E W E W W E W W W W W Y T R Q E W E W E E W W E E E W Y T ",
"T R Q E W W W W W E E E E E W Y T R Q W W E E W W W E E E E E Y T R Q W E W W W E E E W E W Y T R Q E W W W E E E W E W W W Y T ",
"T R Q W W W E E E W W W E W W Y T R Q W E W W W E E W W W W W Y T R Q W W E W E W E E E W W Y T R Q E E E E W W W E E E E W Y T ",
"T Y Y Y Y Y Y Y Y Y Y Y Y Y Y Y T Y Y Y Y Y Y Y Y Y Y Y Y Y Y Y T Y Y Y Y Y Y Y Y Y Y Y Y Y Y T Y Y Y Y Y Y Y Y Y Y Y Y Y Y Y T ",
"T T T T T T T T T T T T T T T T T T T T T T T T T T T T T T T T T T T T T T T T T T T T T T T T T T T T T T T T T T T T T T T T ",
"T R R R R R R R R R R R R R R Y T R R R R R R R R R R R R R R Y T R R R R R R R R R R R R R Y T R R R R R R R R R R R R R R Y T ",
"T R Q Q Q Q Q Q Q Q Q Q Q Q Q Y T R Q Q Q Q Q Q Q Q Q Q Q Q Q Y T R Q Q Q Q Q Q Q Q Q Q Q Q Y T R Q Q Q Q Q Q Q Q Q Q Q Q Q Y T ",
"T R Q W E E W W W E W W E W W Y T R Q E W W E E W W W E E W W Y T R Q E W E E W W E E W W W Y T R Q E E W W E E W W W E E W Y T ",
"T R Q W E E E W W W W W E E E Y T R Q W W W E W W W W W W W W Y T R Q E W W W W W W W W W E Y T R Q W W E W W W W E E W W W Y T ",
"T R Q E E W W E W W E E W W W Y T R Q E E W E W E E W E W W E Y T R Q W E W E E E W W W W W Y T R Q E E W W W E E W W W W E Y T ",
"T R Q E W W W W W W E E E E W Y T R Q W W W W W W W E E W W W Y T R Q W E E W W E W W E W E Y T R Q W E W E W W E E E W W E Y T ",
"T R Q E W W E E W E E E E E E Y T R Q W E W W W W E W W E E W Y T R Q W E E E W E E E E E E Y T R Q W E W E E W E E E W W W Y T ",
"T R Q W W W E E E E W W W E W Y T R Q E E W E W E W E E E E W Y T R Q E W E W E E E W W W W Y T R Q W W W W E W W E E E E W Y T ",
"T R Q E W W E E W E W W W E W Y T R Q E W W E E E W W W E W E Y T R Q W E W W W E W W W E W Y T R Q E W W W E W W E E W E E Y T ",
"T R Q E W E E W W W W W E E W Y T R Q W W W E E E E E E E W E Y T R Q E E W W E E E E E W W Y T R Q E W W W E W E E W E W W Y T ",
"T R Q W W E W W E W W E W E E Y T R Q E E W E W E E E E E W E Y T R Q W W E W E E W E E E W Y T R Q E E E W E W E E W E W W Y T ",
"T R Q E W W W E W E E E W W E Y T R Q E E W E E E W W E E W W Y T R Q E W E E W E W E E E E Y T R Q E W W E E E E E W E E E Y T ",
"T R Q E E W W E W E W E W W W Y T R Q W W W W W E W W E W E W Y T R Q E W W E W W W E E W W Y T R Q W W W E W W E E W W W E Y T ",
"T R Q E W E W W E W W W W E E Y T R Q W E W W W E W W W W E E Y T R Q E W W W W W E E E E W Y T R Q E W W E W W W W W W W W Y T ",
"T R Q W E W W E W W E E W W W Y T R Q E E E E E W W E E W W W Y T R Q W W E E W W W E W W W Y T R Q W W E W W E E W W E W W Y T ",
"T Y Y Y Y Y Y Y Y Y Y Y Y Y Y Y T Y Y Y Y Y Y Y Y Y Y Y Y Y Y Y T Y Y Y Y Y Y Y Y Y Y Y Y Y Y T Y Y Y Y Y Y Y Y Y Y Y Y Y Y Y T ",
"T T T T T T T T T T T T T T T T T T T T T T T T T T T T T T T T T T T T T T T T T T T T T T T T T T T T T T T T T T T T T T T T ",
"T R R R R R R R R R R R R R R Y T R R R R R R R R R R R R R R Y T R R R R R R R R R R R R R Y T R R R R R R R R R R R R R R Y T ",
"T R Q Q Q Q Q Q Q Q Q Q Q Q Q Y T R Q Q Q Q Q Q Q Q Q Q Q Q Q Y T R Q Q Q Q Q Q Q Q Q Q Q Q Y T R Q Q Q Q Q Q Q Q Q Q Q Q Q Y T ",
"T R Q E W W E E W E E W E E W Y T R Q W E W W W E W W W W W W Y T R Q E W W E W W E E E E W Y T R Q W E W E W W E E W W W W Y T ",
"T R Q E E E E W W E W W W E W Y T R Q W W W E W W W W E W W E Y T R Q W W W E W W W W W W E Y T R Q E E W W E W E W W W E W Y T ",
"T R Q W W E W W W W E W W W W Y T R Q E W W W E W W W E W W E Y T R Q E E E E E E E E W W E Y T R Q W E W E E W W E W W E W Y T ",
"T R Q E E W W E E W E E E W E Y T R Q E E W W E W E E E W W W Y T R Q W E W E W W W E W E W Y T R Q W W W W E E E W W W W W Y T ",
"T R Q E E E E W W W W W E W E Y T R Q E W W E E E W W W W E E Y T R Q E W W W E W W E E E W Y T R Q W E E E W W E W W E W W Y T ",
"T R Q W W W E W E W W E W W W Y T R Q E W E E W E W E E E E E Y T R Q E E W W E E W E E W W Y T R Q E E W W W W W W E E E E Y T ",
"T R Q E W W W E W E W E E W W Y T R Q W W W W W W W W W E W W Y T R Q E W E E W E E E E W E Y T R Q W E W W E E E E E E W W Y T ",
"T R Q E W E E E E E E W E E E Y T R Q W W E E W W E W W W W E Y T R Q E W W E E E W E E W E Y T R Q W W W E E E E W E W W W Y T ",
"T R Q W W E W E E E W W W W E Y T R Q E W E E W W W E E W W W Y T R Q W W E W W W E E W W W Y T R Q E W E W W W W W E W W E Y T ",
"T R Q E W W W W W W W W E W W Y T R Q E E W W W E E W E E E E Y T R Q E W W W W W W W W E W Y T R Q E W E E W W E W W W E E Y T ",
"T R Q W W W E E E E W W E W W Y T R Q W E W E E W W E E W W W Y T R Q E W E E W E E W W E W Y T R Q W W E W W W W E E W W W Y T ",
"T Y Y Y Y Y Y Y Y Y Y Y Y Y Y Y T Y Y Y Y Y Y Y Y Y Y Y Y Y Y Y T Y Y Y Y Y Y Y Y Y Y Y Y Y Y T Y Y Y Y Y Y Y Y Y Y Y Y Y Y Y T ",
"T T T T T T T T T T T T T T T T T T T T T T T T T T T T T T T T T T T T T T T T T T T T T T T T T T T T T T T T T T T T T T T T ",
"T R R R R R R R R R R R R R R Y T R R R R R R R R R R R R R R Y T R R R R R R R R R R R R R Y T R R R R R R R R R R R R R R Y T ",
"T R Q Q Q Q Q Q Q Q Q Q Q Q Q Y T R Q Q Q Q Q Q Q Q Q Q Q Q Q Y T R Q Q Q Q Q Q Q Q Q Q Q Q Y T R Q Q Q Q Q Q Q Q Q Q Q Q Q Y T ",
"T R Q W E E E W E E W W E W E Y T R Q E W W E E W W W E E W W Y T R Q W E E W E E E W W E W Y T R Q E W E E W E W E W E W W Y T ",
"T R Q W W W E W W W W W E W E Y T R Q E W W W E W W W W W W E Y T R Q W E W W E E E W E W E Y T R Q E W W W W E W E W W E W Y T ",
"T R Q E E W E E W W E E E W W Y T R Q W W E W E W E E W E W E Y T R Q E E W E W E W W W W W Y T R Q W E W E E W W W W W W W Y T ",
"T R Q E E W W E E E W W E W W Y T R Q W W E W W W W W E E E W Y T R Q W E W W W W W E E E W Y T R Q E E W W W E W E E W W E Y T ",
"T R Q W W E W W E E E E E W E Y T R Q E W W E E W E E E W W E Y T R Q W E E W E E W E E W E Y T R Q W W E W W W W E W E W E Y T ",
"T R Q E W W E W E E W E W W E Y T R Q E W E W E E W W E W W E Y T R Q E W E E E W W W W W E Y T R Q E W E W E E E E W E W E Y T ",
"T R Q E W E E E W E W E E W E Y T R Q W E E W W W E E E W W W Y T R Q E W E W W E E W W W E Y T R Q W E E E W W E E E E W E Y T ",
"T R Q E W W E E W E W E W W W Y T R Q W E W E E E E W E W E W Y T R Q E W E E E E E E W E E Y T R Q W E W E E W W E W W W E Y T ",
"T R Q E E E E E W E W W E E W Y T R Q W W W E E E W W E W W E Y T R Q W W E E W W E E E E W Y T R Q E E E W E E W W E E E W Y T ",
"T R Q E W W W E E E W W W E W Y T R Q E E E E W W W W W W E E Y T R Q W E W E W W E E W W W Y T R Q W E W W W W W W W W W E Y T ",
"T R Q E W E W W E E W E E W E Y T R Q W E W W W E W W E W W W Y T R Q E W W W W E E E W W E Y T R Q W W W W E W W E W W W W Y T ",
"T R Q W E E W W E E W W W W W Y T R Q W E E E W W E E W W E W Y T R Q W W E E E W W E E E W Y T R Q W E E W W W E E E W E W Y T ",
"T Y Y Y Y Y Y Y Y Y Y Y Y Y Y Y T Y Y Y Y Y Y Y Y Y Y Y Y Y Y Y T Y Y Y Y Y Y Y Y Y Y Y Y Y Y T Y Y Y Y Y Y Y Y Y Y Y Y Y Y Y T ",
"T T T T T T T T T T T T T T T T T T T T T T T T T T T T T T T T T T T T T T T T T T T T T T T T T T T T T T T T T T T T T T T T "
};
