/* XPM */
static char *_66d6c9ae133491cd28525ea58dd2bc2[] = {
/* columns rows colors chars-per-pixel */
"64 64 255 2 ",
"   c #0F0E08",
".  c #110F08",
"X  c #111007",
"o  c #15130D",
"O  c #1A150E",
"+  c #161610",
"@  c #1B1711",
"#  c #1D1A14",
"$  c #1E1D19",
"%  c #291A0F",
"&  c #201711",
"*  c #231C15",
"=  c #2B1D12",
"-  c #231E1A",
";  c #2D2115",
":  c #24211C",
">  c #2B231B",
",  c #2A241B",
"<  c #322216",
"1  c #33251A",
"2  c #39261A",
"3  c #36281C",
"4  c #3B2A1D",
"5  c #292522",
"6  c #2A2823",
"7  c #352B23",
"8  c #3C2E24",
"9  c #3F3127",
"0  c #3C322B",
"q  c #422C1E",
"w  c #482E1D",
"e  c #47331F",
"r  c #422E21",
"t  c #453223",
"y  c #493325",
"u  c #44352A",
"i  c #4A362A",
"p  c #49392A",
"a  c #4C3A2B",
"s  c #56392C",
"d  c #523C2C",
"f  c #463A33",
"g  c #4C3D32",
"h  c #543E32",
"j  c #5B3D30",
"k  c #66352F",
"l  c #783A38",
"z  c #56412F",
"x  c #5A402F",
"c  c #4C433A",
"v  c #554133",
"b  c #5B4332",
"n  c #564539",
"m  c #5C4539",
"M  c #5C4A3D",
"N  c #624534",
"B  c #634936",
"V  c #694639",
"C  c #644B3B",
"Z  c #6B4C3C",
"A  c #75443B",
"S  c #764A3C",
"D  c #6E503F",
"F  c #74523E",
"G  c #79523F",
"H  c #594C43",
"J  c #5D5145",
"K  c #644D43",
"L  c #6B4E41",
"P  c #744D42",
"I  c #784A45",
"U  c #7C4C44",
"Y  c #645345",
"T  c #6D5244",
"R  c #665549",
"E  c #6C5549",
"W  c #66594C",
"Q  c #6C594A",
"!  c #735544",
"~  c #7B5545",
"^  c #755945",
"/  c #7B5A46",
"(  c #73564A",
")  c #7C564A",
"_  c #745A4B",
"`  c #7C5C4B",
"'  c #6A5C52",
"]  c #745D52",
"[  c #7B5E52",
"{  c #755F58",
"}  c #76614F",
"|  c #7C614E",
" . c #736356",
".. c #7C6353",
"X. c #74655B",
"o. c #7C645A",
"O. c #786859",
"+. c #7D6A5B",
"@. c #7C6D61",
"#. c #786C66",
"$. c #7E7268",
"%. c #934F3F",
"&. c #A34C34",
"*. c #854A46",
"=. c #86554A",
"-. c #825D4C",
";. c #8B5C4E",
":. c #835D52",
">. c #8A5B52",
",. c #965B56",
"<. c #A84D40",
"1. c #A35C4C",
"2. c #83614D",
"3. c #8A644D",
"4. c #95614B",
"5. c #846453",
"6. c #8B6454",
"7. c #856956",
"8. c #8C6A55",
"9. c #846559",
"0. c #8B655A",
"q. c #846A5B",
"w. c #8C6B5B",
"e. c #926454",
"r. c #926B56",
"t. c #96645A",
"y. c #936C5B",
"u. c #996C5C",
"i. c #8A725E",
"p. c #94725C",
"a. c #9B735E",
"s. c #A76756",
"d. c #856D62",
"f. c #846C66",
"g. c #8B6D62",
"h. c #936D61",
"j. c #9D6B63",
"k. c #857264",
"l. c #8B7464",
"z. c #8E7965",
"x. c #84746B",
"c. c #8B7569",
"v. c #8D7A6B",
"b. c #937463",
"n. c #9B7563",
"m. c #937A66",
"M. c #9C7964",
"N. c #93756A",
"B. c #9B756A",
"V. c #947C6B",
"C. c #9B7C6C",
"Z. c #8A7A73",
"A. c #997770",
"S. c #947E71",
"D. c #9B7D71",
"F. c #A26A66",
"G. c #A37464",
"H. c #A27B65",
"J. c #A87866",
"K. c #A3776A",
"L. c #A37C6B",
"P. c #AA7D6C",
"I. c #A47D73",
"U. c #AB7E72",
"Y. c #B27B70",
"T. c #96816E",
"R. c #9A816E",
"E. c #958273",
"W. c #9B8473",
"Q. c #9D8976",
"!. c #95847A",
"~. c #9C8579",
"^. c #9D8A7C",
"/. c #A68067",
"(. c #A4826C",
"). c #AB816C",
"_. c #B3856F",
"`. c #A48473",
"'. c #AC8374",
"]. c #A38A76",
"[. c #AD8A75",
"{. c #A4847A",
"}. c #AC857A",
"|. c #A48D7B",
" X c #AB8D7C",
".X c #B28475",
"XX c #B48975",
"oX c #B98A76",
"OX c #B4867A",
"+X c #B38C7C",
"@X c #BB8C7B",
"#X c #A6907D",
"$X c #AA927D",
"%X c #B4927E",
"&X c #B8917F",
"*X c #C08F7F",
"=X c #C0917D",
"-X c #9E8D81",
";X c #9A8D88",
":X c #9F9089",
">X c #A28E82",
",X c #A98D84",
"<X c #B48E84",
"1X c #BC8D83",
"2X c #A49284",
"3X c #AB9484",
"4X c #A59489",
"5X c #AB988B",
"6X c #AC998C",
"7X c #B49482",
"8X c #BB9484",
"9X c #B39987",
"0X c #BB9A85",
"qX c #B4958B",
"wX c #BC958B",
"eX c #B49B8C",
"rX c #BC9C8B",
"tX c #A69891",
"yX c #AD9C92",
"uX c #B29D92",
"iX c #BC9C93",
"pX c #B89F98",
"aX c #BEA18C",
"sX c #AFA194",
"dX c #B4A194",
"fX c #BBA394",
"gX c #BFA997",
"hX c #B4A499",
"jX c #BBA59B",
"kX c #BDA99B",
"lX c #BBABA3",
"zX c #C18D82",
"xX c #C39383",
"cX c #C6978A",
"vX c #C29B8C",
"bX c #C39E92",
"nX c #C99C91",
"mX c #C3A28D",
"MX c #C8A38E",
"NX c #C3A493",
"BX c #C9A695",
"VX c #C5A996",
"CX c #C4AB9C",
"ZX c #CCAC9C",
"AX c #D1A497",
"SX c #D1AC9D",
"DX c #CDB09F",
"FX c #C4ADA2",
"GX c #C8ACA5",
"HX c #C5B1A5",
"JX c #CBB2A3",
"KX c #C8B4AA",
"LX c #CBB6AB",
"PX c #D2B2A4",
"IX c #D2B0AA",
/* pixels */
"Q.Q.`.Q.Q.#X>X].Q.R.E.W.Q.].Q.>X|.#XQ.Q.Q.Q.Q.E.E.E.T.x.k.@.k.@.@.$.k.k.v.E.E.E.E.T.T.T.T.W.R.T.Q.Q.Q.E.T.T.T.T.v.v.v.k.z.v.E.E.",
"`.].].].].].].|.,X|.|.Q.].|.|.#X^.|.|.T.V.z.S.+.' W W J W W O.X. .O.+.v.W.W.W.W.T.T.T.z.T.T.z.T.W.T.E.T.T.z.v.v.v.v.v.E.v.c.v.v.",
"].].].[.#X].#X[.].|.|.3X3X$X>X|.|.~.X.- $ 0 6 : # # # # # : : 0 W $.v.T.T.T.T.T.T.V.T.V.z.T.T.z.m.V.V.T.z.T.z.T.T.V.v.E.v.v.k.k.",
"#X#X].].[.$X$X$X$X$X$X XQ.|.>X^.#.f @ o + # : $ # # # # # # @ $ , J +.x.v.T.T.T.V.V.T.E.T.T.T.T.T.V.T.V.T.z.z.z.T.z.T.v.T.V.z.k.",
"#X].|. X#X#X$X$X$X$X#X#X X$XE.7 @ # o + $ $ $ : 6 5 $ $ $ $ $ : : # , H @.v.v.c.v.V.V.T.R.T.R.m.T.m.R.V.m.T.T.i.v.z.V.v.V.E.V.v.",
"#X#X#X#X#X|.$X$X$X$X$X#X|.].u $ # : 7 : $ 5 : $ 5 $ 6 $   + + # : @ O O , H @.v.v.V.V.V.z.z.z.z.z.V.m.T.T.m.z.i.z.z.v.z.v.V.v.v.",
"#X#X#X#X#X$X$X$X$X$X$X#XQ.M # # # $ 5 6 $ : : + + + 6 $ # # $ # o o o o O * f  .d.k.z.z.m.m.m.z.z.z.z.z.z.m.m.T.T.T.T.V.z.k.v.V.",
"#X].$X$X$X$X$X$X#X#X|.Q.J o O # $ 6 6 5 $ $ 5 # $ + + # + + # + + o o X O o @ , J +.k.z.z.m.z.z.z.z.z.z.z.m.R.W.W.E.W.E.T.z.z.T.",
"#X|.|.|.#X#X#X|.#X|.^.' 0 : # : 5 6 & - - & - - 6 - @ O O @ # O # O O X o o X o * R V.R.R.m.m.V.T.T.R.T.R.`.Q.Q.Q.W.Q.C.V.V.z.z.",
"T.].|.].#X|.|.|.|.#Xz.0 0 , 7 7 6 - # # # : - 5 - > # # & * * & & # o @ o . . X O f @.V.R.T.R.W.R.W.T.R.Q.R.Q.Q.R.E.T.V.V.V.z.i.",
"D T _ +.z.T.Q.].Q.Q.c 7 7 f c c 7 & O # > > 3 7 r 8 8 q i h d 3 = 1 , , - O o . X O 8 X.T.Q.W.R.T.R.].Q.W.W.R.R.T.C.C.C.C.m.V.i.",
"l.q.q.7.+.} } q.z.k.8 7 0 n Y K 8 = 3 > 1 i C C m K K ( ^ :._ b m v r 6 * * o X   X X c v.E.T.V.T.R.R.W.W.R.R.R.T.R.T.C.V.V.m.z.",
"T.x.T.x.v.z.z.z.l.Q 9 u Y ] N. .u u t p b ! n.9._ i.u.B.y.w.6.5.` ^ R h 3 ; : * X o O O n T.V.T.R.W.R.W.T.R.a.A.R.C.V.u.y.p.b.m.",
"E.E.E.T.T.T.|.Q.W.C f M q.D.I._ b D :.^ 0.I.(.i.g.I.(.M.M.B.B.h.2.....( n 8 , : : @ * # 8 +.V.T.T.R.T.T.R.n.a.M.M.z.b.y.e.m.m.p.",
"^.E.E.E.^.|.|.|.S.g R q.A.}.,X`.C.h.p.n.I.'.(.+X%X<X<X+X'.(.(.n.w.0.7...] M u 7 : , @ # = Y z.V.T.R.R.R.4.M.r.M.M.m.m.u.4.r.8.h.",
":X!.E.^.#X3X#X|.d.W l.A.]. X,X X'.(. X8XwX8X7X+X+X+X+X+X X'.L.H.n.y.0...] Q n 7 * : $ * , u ..m.r.r.m.T.4.4.4.4.r.M.m.m.p.m.V.m.",
"^.^.!.^.#X#X#X#Xm q.l.B.D.{.<X$X%X<X8XvXnXbXbXbXvXwXwXwX<X<X[.I.n.w.6.5.[ _ R i > > > - * < N -.4.m.T.p.u.n.C.C.m.T.T.m.T.m.m.m.",
"5X:X^.^.^.2X$XE.W l.Q.,XqXrXiXrX0X0XbXbXbXbXiXbXiXwXqXqX<X}.I.L.b.0.0.9.[ [ T v 3 ; , > & 1 z 2.p.m.T.R.R.R.T.V.R.C.T.m.m.m.m.l.",
"2X4X4X2X2X5X5Xk.{ c.S.,XqXpXiXbXbXvXvXbXbXiX<X~.g.{ X.] #.o.[ 7.B.h.w.q.:.[ ( m u 3 = * ; , n | V.V.R.T.V.V.C.m.m.m.p.z.i.l.....",
":X2X2X2X#XQ.2XW o.X.@.x.c.{.qXbXbXwXbXvXbX<XI.g.{ ( K h i g K K q.g.q.5.5.:._ L a 4 < * * 1 v +.m.m.m.b.w.5.b.m.C.m.T.m.l.i.b.z.",
"2X5XsX$X-XQ.Q.J W u 9 g R 9.C.<X8X8XwXcXwXwX}.}.D.l.g.o.h.h.0.( T _ ..[ [ / _ T m y > > * ; 3 Y l.l.v.C.b.z.m.R.E.Q.Q.^.2X6X6X6X",
"6XsXaX9XsX#XQ.@.p u p K ( q.n.I.+X<XvXbXnXvX<X}.{.'.'.+X<X<XU.K.h.[ E E _ _ ! P K y 1 < * ; 9 O.V.C.W.W.T.T.S.|.2X#X6X3X>XE.4XyX",
"$X$X9X9X9X$XQ.O.T 9.h.B.N.h.B.B.U.<XxXnXcX8X<XU.L.K.U.U.Y.}.}.U.K.t.[ ( ( _ ^ T C i > 1 ; , c $.v.Z.T.^.|.^.|.2X4X6X4X6XeXyXQ.-X",
"Q.].9X9X$X#XT.O.q.h.n.B.B.g.w.b.K.U.<X8X1XOXI.B.j.h.G.K.h.t.F.F.j.y.>.! T T ! T C i < < ; , c @.$.x.Z.x.S.Z.-X^.-X#X6XyX4X4XyX6X",
"gX9XeX|.Q.C.7.} 7.0.8.w.h.h.0.:.7.L.<X8X}.K.m.u.t.;.) 5.f.>.[ *.:.>.2.-._ ! ! ! K y 3 3 , = c $.$.x.Z.!.^.>X>X2X2X2X2X4X6XsXhXhX",
"gXgXgXgXeX3Xm.z.[ T T [ o.o.) [ _ 0.<X+XL.M.h.h.;.! L g f f f V Z ) -.` :.^ ! T C t 2 8 ; > J #.x.!.!.4X6XyXyXyX2X4X4X#X#XyX6XsX",
"FXkXgXgXfXiXuXE.E m J 0 H H x.L ) D.HXiXK.h.y.B.-.V 9.' H c J C j V ! 2.5.| _ ^ B t 3 r 2 V *.I $.#X^.!.5X2X3XuXsXyX6X3XE.z.^.4X",
"CXkXgXgXfXfXuXS.K h K m f ( ` 9.) jXLXiX}.n.w.6.0.0.:.>.0.h.0.e.>.-.:.2.5.2.} T L s 8 m ) V A A d.D.{.2X^.v.>X>X].Q.Q.|.|.|.T.T.",
"CXCXgXgXgXhXdXV.( [ 6.0.t.h.w.` N.iXGXiX}.K.B.G.M.B.B.G.K.K.M.h.t.8.8.8.8...` ^ L j i ( I V A *XcXOXF.g.S.S.k.Q.2XyXjXlXHXHXlXyX",
"CXHXCXgXgXfXfXh.:.9.0.w.h.h.h.9.A.iXGX}.I.U.K.P..X.X.X.X.XU.J.J.K.G.n.y.8.2.[ ! K j a ( V I %.J.zX1XA.>.N.>XE.x.,X2X-XtXyXhXhXlX",
"CXDXCXVXgXgXfXc.d.h.B.L.C.B.i.h.{.GXwX}.I.A.F.P..X@X@X1X@XOXOX.XU.J.n.h.8.:._ ! V a y s ) I A Y.F.bXI.t.g.g.d.R X.~.tXtXyXsXhXsX",
"CXgXgXVXNXaXfXl.A.A.I.I.U.B.h.N.<XIX1XI.F.h.K.Y..XoXzXxXzXzX@X@X.XP.n.n.0.-.( ! K s y y =.=.A F.OX<X<XI.K.q.S.:X:X!.:XtXtX4X-X!.",
"VXNXfXaXrXrXqXN.A.I.}.OXU.L.h.}.zXcX1X}.h.8.e.Y.=XxX=XcXcXcXzX@X'.J.n.y.6.` ! P K s t k :.>.A >..X1XxXXX).N.Z.Z.Z.x.#.X.X.X.+.v.",
"HXCXNXiXiXqX5XN.A.I.<XOXU.L.B.OX1XcX1XY.G.K.h.t.=X=XcXcXcXcX@XoX.XJ.n.r.6.) P K K h i s I *.A I H.@X=X@XXXB.9.x.x.x.X.' x.!.4XyX",
"KXKXKXFXkXhXqXg.B.K.P.'.Y.n.h.OX1XAXoXJ.F.J.u.-._.cXxXcXcX=XoX_.P.J.y.e.6.) L B K h u s [ I I E a._.oXoXXX[.(.x.f.{ $.Z.;XtXyXsX",
"LXLXKXKXjXhX5X9.h.K.J.Y.U.6.6.j.K.Y.j.u.F.G.u.U Y.=X=XxX=X=XoXP.J.n.u.6.-.! L m j h i j :.I N x.2._.@X8XrX7X Xl.{ #.#.#.#.$.Z.;X",
"KXKXJXFXlXyX4X9.0.y.H.P.P.y.;.) ,.0.A U ,.4.e.=.=X=X@X@X=X_._./.J.a.e.6.-.! Z j b i r N P L v k.i./.oXmXVXmX9XR.X.#.#.#.$.Z.;X:X",
"JXHXHXlXhXyX>X..7.p.M.J.L.u.~ ~ h.h.K.G.r.;.e.G.Y.oX=X@XoX_.).J.a.r.6.2.-.! C j a p i ` _ T h q.z.u.XXvXVXmX0X].f.Z.Z.Z.$.Z.Z.!.",
"HXHXFXuXhXyX-X} | 8.n.G.u.0.j T ) w.5.) S ) =.6.H.J.U.P._./.J.H.a.r.6.2./ D B z y 4 y [ / L } v.v.q.L.8XmXmXaX$X!.#.$.#.#.$.x.x.",
"KXHXFXhXhXdX-X_ ` 6.n.u.` _ N P U ~ V -.G P -.~ 5.8.5.8.a././.a.p.e.2.` ! F V b i t q C [ ] k.z.T.W.p.%XmXmXaX%XQ.k.X.{ { f.f.f.",
"lXKXqXhXuXuX2X_ ` [ p.` ^ / =.=.,.t.F.F.F.F.j.:.:.5.5.3.3.b.a.a.r.3.2./ ^ D C b u r 4 _ ..T.R.T.T.R.i./.0XmXmX%X`.N.] { 0.F.F.g.",
"hXuXs.iXuXuX X( ! ` 8./ L V A l l *.*.l *.*.I I U :.~ ` 3.i.p.p.3.2.} / F D B a e 8 3 C ..C.W.i.#XeX#Xp.&XmXaX0X`.b.l.] I ,.,.t.",
"U.eX1.1Xs.&.1.| T ^ 8.3.:.k k k l l k l l l l *.l I =.=.r.p.p.i.2.^ F ^ ^ C z e 4 ; 4 _ i.R.m.T.3X7XR.i.%XxX0X+X(.(.m.q.S.N.u.G.",
"|.L.<.1.1.K.1.[ T T ^ / 2.~ l A *.*.*.%.F.,.*.,.6.t.r.G.M.r.r.3.^ F ! ^ C B p 4 ; ; q _ C.W.i.R.5X9XW.T./.%X7XaX0X+X`.E.c.4X^.u.",
"yX6Xs.qXu.5X`.z.C b b } 8.-.-.S *.%.*.*.*.*.>.>.e.u.H.H.a.8.^ D C D ! T b z 4 3 % ; p q.R.z.p.3X7X7X5X#Xp.[.8XaXaXaX|.v.q.2X4X>X",
"dX6X3X6X5X5X4XE.d v z B 5.8.6.3.G Z V D I >.h.H.).P.H.y.2./ B j C C B z p 9 3 ; % q B ^ i.]. X$X3X3X3X3X8.).8X0XaXrX7X].c.v.5X>X",
"dXeX6X6X6X4X-X^.o.t t d ^ 8.p.p.e.F V S =.r.J.(.).H.p.| Z b d d z z z a e 4 1 ; ; d C } i.].].#X#X,X XR.8.H.%X0XaXaX0X XV.q.>X7X",
"eXeX3X#X^.2X-X^.v.y 4 t C 7.i.3.G F -.;.6.e.H.P./.a.3.F B z y q z y p a 4 ; % = 4 b D _ m.(.[.].3X3XQ.w.z.u.(.%X0XaXrX9X`.g.S.uX",
"`.D.C.N.l.z.R.W.Q.Q 2 q h [ 5.` ^ ~ 3.5.e.2.6.p.p.p.2.F B a q < 4 q 4 4 ; ; = % d b } q.p.].Q.gXLXlXiXS.i.6.M.[.0XaXaX9X].m.d.eX",
"m.R.R.v.l.q.g.Q.].V.y 3 y ! } ` | / 2.! / G / / F _ F C a e 2 ; 3 4 = = ; % % y z d R w.m.W.3XFXKXLXFXiXT.F r.(.%X0XaX0X}.Q.d.3X",
"5.+.l.b.v.h.9.h.N.C.w.3 q C L / / | B D ~ ~ F F B B b b t 4 < < < 3 ; ; % < a z z d C l.R.(.7XHXJXLXKXFXfXz.F p.[.0XrX0X+X].E.V.",
"..w.} _ 9.q.} [ ` 7.w.C q d B B G / x B D ! N Z y p e e r = < 8 ; 3 = % = a Z C j a _ ..V.M.<XfXFXJXLXJXCXfX8./ (.%X0X0X7X+X,XE.",
"v._ C C Z Z N N N N N N q r s N F D z z x B z z e e e 2 2 < < < < < % < b / D x j y d ..A.w.R.0XCXJXKXJXHXCXeX/ M.%X0XrX0X<X%X X",
"~.S.c.o...[ -.9.8.2.` F N w y d N z a z z x z e 4 2 < = < < 4 2 < % q ` } T B x j d o.fXFXjXi.[.VXDXKXJXJXJXDXeXp.%XrXmX0X8X%X X",
"~.!.N.k.} g.m.C.b.w.2.F z F s e e e e e e z e 2 < = 2 2 2 q < = 2 M | _ ! C v a i R 3XkXFXJXCXr.0XCXJXJXJXJXJXDXfX0X0XaXrXrX1X%X",
"~.S.v.f.[ ..A.D.m.w.2.! m D ^ z y e q w e e e 4 e e e e 2 < 3 f  .n J g g f u u t ..uXVXFXJXJXdX(.aXZXJXJXJXJXJXJXCXmXmXrXxX1X&X",
"!.Z.c.d.] [ A.R.B.p.-.F z a g n Y W J Q z z z B M z z J Y ' O.R $.+.T Y B b z d d i.7XCXDXJXPXJX`.M.NXDXJXPXPXPXJXZXVXNXvXxXvX7X",
"~.V.l.q.[ 9.S.R.m.0.2.F N D ! ^ ^ } M W W W O.} T.lX' O.W  .O.i.i.8.7.| ^ Z B z x F ].VXJXJXJXDXVXn.7XCXJXPXPXSXDXJXVXaX0X8X8X@X",
"A.z.d.g.q.d.V.A.m.0./ F V ! | 6.r.i.p.8.} ^ J z J J O.i.z.a.M.b.p.r.7.} D B B x B D $XgXHXDXDXJXDXiXZXZXJXDXSXAXZXZXmXrX0X&X%X_.",
"V.c.l.d.d.f.N.V.m.w.2.F Z F 2.3.r.p.M.M./.M.M.M.a.R.M././.H.M.n.p.8.2./ F V N N B / 0XmXZXZXCXDXSXDXZXDXDXSXSXSXAXBXmX7X%X+X[.L.",
"~.V.c.f.c.c.N.V.m.w.2.F F G / 3.8.p.a.M.M././././.H././.(.M.C.M.p.8.:.^ F Z B Z B F [.%XVXVXVXSXSXSXSXZXZXVXZXBXBXvX0X].`.(.L.H.",
"{.R.N.k.k.c.V.N.C.l.| ^ F G G 3.3.8.p.H./.H.C./.M.M.M.M./.M.M.b.8.2.` ^ ! D Z Z Z / /.%XmXMXBXSXBXAXMXBXNXaXNXnXwX+X(.C.b.m.p.8.",
"3X|.~.S.c.c.l.l.N.l.q.` / G G 3.3.8.p.M.m.M./.M.M.M.a.M.M.M.M.p.8.2./ ^ ^ D D Z D ^ p.(.0X0XMXBXMXmX8X8X%X0X%X<X[.K.p.7.7.w.7.} ",
"qX3X4X2X|.!.E.c.f.d.7.+.| / / 2.3.8.p.p.b.a.M.a.M.M.a.a.M.M.p.8.5.2.| ^ ^ ^ ^ F ^ m./.H.[.[.%XmXxX%XXX`.(.(.`.(.M.w.2.2.} } Q R "
};
