/* XPM */
static char *_b9c1ca5419842aef025f6a0400e0cfc[] = {
/* columns rows colors chars-per-pixel */
"64 64 256 2 ",
"   c #020400",
".  c #0B0600",
"X  c #040900",
"o  c #0C0B01",
"O  c #130B01",
"+  c #120802",
"@  c #1B0D03",
"#  c #0E1104",
"$  c #131204",
"%  c #1B1305",
"&  c #1B1906",
"*  c #15150A",
"=  c #1B150A",
"-  c #161808",
";  c #1C1B0C",
":  c #1E1D11",
">  c #260E07",
",  c #340D0B",
"<  c #221306",
"1  c #291907",
"2  c #24140A",
"3  c #2B150C",
"4  c #241B0C",
"5  c #2C1A0B",
"6  c #31140D",
"7  c #39140F",
"8  c #321C0D",
"9  c #2B1611",
"0  c #221E12",
"q  c #2D1C12",
"w  c #331C13",
"e  c #3B1D13",
"r  c #381814",
"t  c #1F2012",
"y  c #24210F",
"u  c #2C210F",
"i  c #35210F",
"p  c #242213",
"a  c #2B2313",
"s  c #2B2916",
"d  c #252518",
"f  c #2C2519",
"g  c #2D2A1A",
"h  c #332214",
"j  c #352717",
"k  c #3B2315",
"l  c #312916",
"z  c #3C2319",
"x  c #332C1C",
"c  c #3C2A1C",
"v  c #2F301F",
"b  c #38311E",
"n  c #2E2D21",
"m  c #332F21",
"M  c #353322",
"N  c #3B3423",
"B  c #3A3928",
"V  c #400F0E",
"C  c #451B17",
"Z  c #431D16",
"A  c #561C1C",
"S  c #432416",
"D  c #462816",
"F  c #44251A",
"G  c #4B251C",
"H  c #45291C",
"J  c #4B2A1D",
"K  c #55271E",
"L  c #532B1E",
"P  c #5B1F21",
"I  c #472621",
"U  c #452C21",
"Y  c #4B2C22",
"T  c #5A2723",
"R  c #532D22",
"E  c #5A2D23",
"W  c #4B3323",
"Q  c #483325",
"!  c #433D2B",
"~  c #4C3A2B",
"^  c #533325",
"/  c #573627",
"(  c #5C3425",
")  c #54352A",
"_  c #543B2B",
"`  c #5B3D2D",
"'  c #513D31",
"]  c #672B28",
"[  c #63342A",
"{  c #693429",
"}  c #653A2C",
"|  c #6A3B2C",
" . c #643D33",
".. c #6A3D31",
"X. c #763834",
"o. c #3D412F",
"O. c #5D422D",
"+. c #464333",
"@. c #4B4935",
"#. c #4B4A37",
"$. c #584535",
"%. c #514E3D",
"&. c #56513E",
"*. c #68442E",
"=. c #644333",
"-. c #6D4332",
";. c #6C4937",
":. c #6A4C35",
">. c #654939",
",. c #6C4B3B",
"<. c #734534",
"1. c #744B36",
"2. c #78443A",
"3. c #744C3B",
"4. c #7C4B3C",
"5. c #74533C",
"6. c #7A543D",
"7. c #79573C",
"8. c #4C5044",
"9. c #545343",
"0. c #5A5544",
"q. c #5C5945",
"w. c #5C5C4B",
"e. c #58594C",
"r. c #565C50",
"t. c #5A5E51",
"y. c #664E40",
"u. c #764D41",
"i. c #675845",
"p. c #625D4C",
"a. c #695D4C",
"s. c #765244",
"d. c #7C5542",
"f. c #7C5A44",
"g. c #795B48",
"h. c #6D5F52",
"j. c #5D604F",
"k. c #5D6253",
"l. c #64614E",
"z. c #6B624C",
"x. c #7D634C",
"c. c #646453",
"v. c #6A6553",
"b. c #676857",
"n. c #6A6A56",
"m. c #636659",
"M. c #656A5B",
"N. c #6C6D5C",
"B. c #756755",
"V. c #736D5A",
"C. c #6D715C",
"Z. c #73725E",
"A. c #79735E",
"S. c #676C61",
"D. c #6B6F61",
"F. c #6C7262",
"G. c #6E7768",
"H. c #737463",
"J. c #7B7664",
"K. c #767965",
"L. c #7A7B66",
"P. c #767569",
"I. c #747669",
"U. c #767A6B",
"Y. c #7B7C6B",
"T. c #853938",
"R. c #84463C",
"E. c #81523F",
"W. c #874D43",
"Q. c #835444",
"!. c #835B44",
"~. c #8B554A",
"^. c #86584A",
"/. c #855B4B",
"(. c #8B5C4C",
"). c #905E4E",
"_. c #835F52",
"`. c #8A5E51",
"'. c #945E52",
"]. c #84624B",
"[. c #8B634D",
"{. c #91644E",
"}. c #8C6352",
"|. c #836B53",
" X c #886957",
".X c #8A6D54",
"XX c #846C59",
"oX c #926454",
"OX c #946955",
"+X c #986659",
"@X c #956C5B",
"#X c #9A6C5D",
"$X c #8C7356",
"%X c #8B7359",
"&X c #927359",
"*X c #A06A5E",
"=X c #956D61",
"-X c #9B6E61",
";X c #837868",
":X c #817D6B",
">X c #9D7263",
",X c #9E796A",
"<X c #817F70",
"1X c #A56D62",
"2X c #A27565",
"3X c #A97666",
"4X c #A57966",
"5X c #A57669",
"6X c #A5796A",
"7X c #AB7B6C",
"8X c #AC7D70",
"9X c #B27F72",
"0X c #7E816E",
"qX c #7B8373",
"wX c #7E8479",
"eX c #81826D",
"rX c #838574",
"tX c #8A8573",
"yX c #868975",
"uX c #8A8B76",
"iX c #838779",
"pX c #8A8778",
"aX c #858B7B",
"sX c #8B8C7C",
"dX c #928D7B",
"fX c #86907F",
"gX c #8D917E",
"hX c #92927E",
"jX c #AF816E",
"kX c #B38275",
"lX c #868E82",
"zX c #898F81",
"xX c #8C9383",
"cX c #8D9687",
"vX c #8D9589",
"bX c #939584",
"nX c #999685",
"mX c #959886",
"MX c #9B9986",
"NX c #929789",
"BX c #949A8B",
"VX c #9B9C8B",
"CX c #9A9F91",
"ZX c #A19D8D",
"AX c #BE9385",
"SX c #A19F90",
"DX c #9EA18E",
"FX c #9DA293",
"GX c #9FA895",
"HX c #A2A18E",
"JX c #A4A393",
"KX c #A8A695",
"LX c #AAA896",
"PX c #A7A898",
"IX c #ABA99A",
"UX c #B9B8AC",
/* pixels */
"GXcXfXK.M.k.D.F.F.qXcXCXBXuX0XM.qXcXqXF.F.qXcXcXmXhXcXhX0XK.C.C.K.qXuXBXFXCXCXGXFXFXvXU.I.F.M.M.t.r.k.G.lXlXlXlXvXCXvXU.M.k.vXvX",
"GXbXwXqXF.t.M.M.F.F.wXCXBXfX0XM.M.cXwXqXC.qXwXcXcXcXhXcXyXK.C.C.C.yXtXfXGXCXCXCXBXCXBXwXU.M.M.N.k.k.r.F.lXwXlXlXlXvXBXlXqX8.lXvX",
"GXcXlXqXG.t.m.F.M.F.wXCXBXgXqXC.c.mXfX0XF.G.qXcXcXmXcXgXgX0XC.C.C.yXyXfXGXFXFXFXGXVXmXzXU.C.D.m.k.k.r.S.lXvXlXlXvXvXvXlXwXr.wXwX",
"DXcXlXqXG.r.m.C.M.F.qXBXDXgXyXZ.l.gXfX0XqX0XfXgXhXcXmXgXhX0XZ.C.Z.qXyXfXCXCXGXGXJXMXmXxXH.N.D.k.m.r.m.S.P.vXvXlXvXCXlXzXlXM.qXvX",
"cXBXxXyXG.k.m.D.N.F.G.cXDXcXyX0Xj.0XgX0X0X0XyXgXmXcXmXgXgXyXZ.n.n.qXyXyXcXJXGXFXFXPXFXsXY.H.H.D.M.r.m.S.wXvXzXvXcXBXCXBXaXH.F.vX",
"lXBXfXwXG.c.c.M.M.C.G.cXCXBXuX0Xc.K.gXyX0X0XqXfXcXhXhXgXuXL.n.z.l.n.Z.K.aXBXJXJXmXDXJXyXqXH.N.N.k.M.k.j.qXvXvXvXvXxXNXBXiXL.r.cX",
"qXBXfXyXL.b.j.M.D.F.C.cXDXBXgXyXC.C.gXyX0XK.L.uXgXyXZ.j.%.#.! +.! ! B B o.#.m.yXDXPXJXnXaXK.N.H.M.S.m.M.U.xXNXvXvXBXFXVXcXyXr.qX",
"F.CXgXyXL.C.j.m.M.D.F.qXmXVXhXyXZ.n.gXyXK.C.C.n.%.o.b b v b b v N N m s s y d M 0.:XsXxXiXV.D.V.N.c.e.m.G.zXBXNXBXFXFXlXgXyXr.k.",
"N.BXxXaXL.C.j.k.M.D.F.L.mXVXxXuXL.n.eXyXn.&.o.v M v x g s x g b N b x p y t ; : y M w.L.rXL.C.V.N.b.b.m.H.xXzXNXvXCXJXCXBXsXD.m.",
"k.zXxXsX0XF.t.k.m.M.F.L.mXMXnXuX0Xn.n.n.o.v s v v x s g l g v b x g a p t t : : : ; : v 9.N.F.N.V.b.b.k.D.NXMXNXvXCXBXDXDXrXF.r.",
"j.qXbXsXY.G.l.t.k.D.F.G.bXMXMXuXqXq.B s s s s s l g x g g x g x x x p ; $ # $ $ = * ; - t o.q.C.b.N.b.N.H.aXBXVXBXVXxXBXGXbXiX8.",
"w.U.bXsXeXK.c.k.c.N.N.G.bXVXMXrX%.d : ; t y y s f g s s y y y y d p : ; - $ $ # # $ * $ - ; M w.N.b.l.c.N.iXVXCXBXVXJXPXnXmXsX8.",
"j.N.cXgXrXU.b.w.l.b.N.H.bXMXMXe.d t : ; y y p p p 0 0 0 a p 4 a s a s & - # # # o o o # $ - ; M w.N.b.b.N.gXNXbXDXbXDXJXbXMXbXk.",
"e.j.BXhXrXP.n.p.l.l.N.D.zXnXJ.g p t t : t ; : p a a d f y y y ; & & & & $ $ o o o # o o # # $ & n c.N.v.v.fXCXVXBXMXHXPXJXFXrXD.",
"q.r.hXhXrXL.D.p.t.l.N.H.uXtXB p t t y t & y p u q d c x l s p 4 & $ # o o o o # o o o + o # $ $ * B b.n.V.:XnXCXDXFXJXxXMXJXsXH.",
"j.w.uXmXuXL.H.p.p.l.N.F.yXw.d t y t t y y y 0 l l f h f y 4 & $ & $ O + o o o X o X X o o o # $ * 0 #.p.N.Y.mXJXDXCXJXJXJXCXMXsX",
"c.q.0XhXuXL.Z.l.p.k.b.D.N.M 0 p p p y a l l l l l l l s a y $ $ # o o + . . . X X . X . X o o $ * : n e.N.Y.ZXZXZXCXZXKXJXbXMXgX",
"M.j.K.mXgXqXJ.n.p.t.c.N.+.s : 0 d l x u a l x l a a a y 4 ; - # o + X X X X . . X   . X X o o o $ = : +.a.P.ZXJXSXSXBXKXIXPXZXnX",
"Z.j.n.BXxXrXU.N.p.p.l.c.M ; ; 4 l U b b x a 4 & ; & & @ $ $ + + o o . . o X X X   X X X X + o + + * = n t.P.nXSXSXSXPXPXSXKXCXY.",
"0Xj.k.MXnXpXY.A.l.t.l.9.d : y l c N Q x l a u & & % $ $ # + o . . X X X . X . X .   X X   X . . O $ * 0 ' P.zXSXKXJXKXJXZXKXSXbX",
"eXc.k.hXMXsXeX:Xv.p.w.B : ; u Q W W W b a a y 4 & & % % + + . . X . X       . .   . X   X X . X o $ $ : B S.eXSXVXSXKXIXIXKXnXnX",
"uXn.w.eXVXhXtX:Xb.l.9.f ; 4 l :.7.:.O._ k i 4 4 < % % @ + + . . X     . X . X     X       . X . . # $ * n 9.P.ZXKXPXIXZXKXKXdXVX",
"gXC.w.0XMXmXsXtXN.h.#.d p f ~ [.#X&X/.:./ k i 4 < @ @ % @ @ . . . . . X .   . X   X .     X X . o + $ * 0 8.;XnXZXJXKXZXIXKXKXVX",
"gXK.w.H.DXMXnXgXZ.v.+.g f b :.-X6X4X4X@Xf.` H q < < @ @ @ % @ @ + + .     .     .   X . .   X X o # * # = +.P.bXZXKXKXPXKXnXKXZX",
"gX0Xw.C.HXMXMXhXZ.v.#.b f j g.5X6X5X2X,X@X/.` H 8 1 @ @ + @ @ @ @ @ + .       .     X X   . X   .   # * : B B.zXKXZXHXJXLXJXLXHX",
"uXeXw.C.ZXMXMXhXZ.l.%.N f h g._.g.s.,.;.` W U z 8 2 @ @ + + + + O O + . . .     X       X   . . . .   X * n p.P.ZXKXKXKXLXIXLXtX",
"yXrXw.n.MXZXnXdXV.p.+.n : : x c U U U z w 4 = 2 < < @ @ + + + . + . . . .   . .   .   . . + . . + + # * * d e.;XhXZXZXLXZXJXKXMX",
"eXeXq.v.nXMXtXtXV.9.n = = 0 ~ O.~ ) ` ) ^ F w 9 2 > < > @ + .   .   . X . + + . . . . + + + O + . + . X X d 9.H.dXZXKXKXKXLXKXHX",
"0X0Xw.c.gXMXtX:XV.9.d + = = ~ _ / `  .y. .Y w 2 @ @ @ 3 4 + . . . .   . + + . . .     . o + + O + + . . * d p.V.dXSXZXSXKXKXuXHX",
"A.eXw.b.xXVXdXdXJ.B.! q = = h j k U I z w = + . + @ w Y / O + w e 2 . . @ + + . . . . . o + @ @ = = ; 9 q : ~ y.;XZXnXKXJXLXKXKX",
"A.0Xl.Y.UXUXZXdX<X X .Y I U H k h w w r w 9 > 2 9 z ) ,.>.2 ' oXW.[ 2 . = > @ @ @ + O @ @ 2 3 4 q h c F j 9 z $.;XnXZXSXKXJXKXZX",
"Z.0Xz.K.IXIXdXtXXXX.Y R [ _.`.f.5.=.) R R ) [  ...u.W.Q.H W 5XkXoXu.A @ O 3 > 3 2 3 w w k w k k k S H ) ~ w I Y h.pXnXSXIXZXZXKX",
"V.J.p.p.tXbXtX:XB.2.u. ./.>X4X2X>X@Xu.<.^._.^.^._.`./.;.J +XkXkX*XT.[ Z @ 2 9 w w w e z F H F U U I Y ) ' f I ) p.tXZXZXJXKXKXKX",
"n.P.e.p.L.dXtX;X_.`.W.)  X7X7X5X4X+XoX}.oXoX`.`.oXg. .^ {.3X9X9X1X~...E Z 2 9 9 w z U Q U H F U Y Y c c c j e ' i.J.nXnXZXKXSXnX",
"b.V.p.e.J.dX;XZ.XX'.R.<.>._.,X,XoXoX-X=X_.>.u.u.y. .[ ~.1XkX9X9X1X+XW.X.R S q 3 q w e z w z z w w r 9 z U I z ) i.V.dXSXSXSXSXSX",
"b.V.0.e.;XdX;XV. X2.2.+X,Xs.>.` =.`  . .s./.`.d...] ~.1X7XkXAX7X1X+X~.2.[ K S w 8 w k S F F z F I F F I Y U e Q i.B.tXdXZXZXKXSX",
"b.V.0.e.:XpXJ.B. X~.~.-X5X2X+X}.}.`.`.`.^.d.u.2.2.~.1X3X3X7X7X*X~.~.4.[ L L G S e S D J G F J F I F I F Y Y J ^ >.p.J.dXZXZXZXnX",
"l.b.0.e.;X<XB.B.XX5X>X5X>X5X2X2X>X-X#X-X2X2X*XoX'.+X*X'.~.~.'.W.<.| R G Z S S S S S D J ) ) R R R Y G Y Y U Y ) y.h.V.tXZXnXSXSX",
"l.v.%.e.:X:XV.B.%X7X2X>X5X5X5X6X5X8X8X8X7X4X#X+X*X*XW.] C C [ [ K Z r > > > 6 e S H H J G E ) ) R Y Y Y Y Y U W >.p.a.P.bXnXSXnX",
"l.a.9.e.:XJ.v.b.XX6X,X>X5X5X7X6X7X7X8X5X4X*X-X3X3X7X'.{ T E ( K Z r , 9 , 3 7 S F J J J J Y R J R ^ Y Y I Y I ~ i.h.h.Y.nXVXZXnX",
"l.a.%.q.Y.J.v.z.a.&X@X>X5X6X6X6X5X7X5X5X5X2X5X8XjX4X3X1X*X*X{...[ [ R F S Z S F J J I J G G J G J J J J H H ~ >.a.p.p.N.rXdXnXnX",
"l.p.%.q.eXA.z.z.>.a. X=X2X2X4X4X2X4X-X1X>X5X7X7XjXjXjX4X4X4X*XR.W.(.^.} L L J J J J J J J J D J J H S H J F ' a.a.a.p.c.pXbXnXpX",
"w.q.#.q.eXA.z.a.0.h.XX>X2X>X#X>X>X-X-X-X-X5X5X7X7X7X7X3X+X~.R.W.R.2.[ P K L L J H S H F G H H J J H H D D F ~ p.p.a.p.w.c.t.N : ",
"q.0.#.q.:XA.z.p.9.B.%X@X-X=X-X-X-X#X#X@X#X-X+XoX(.Q.2.{ T T P P A V , , , , > > > 3 3 k z z S S S S D S D z ~ &.#.~ m 0 = * + X ",
"q.&.@.9.:XA.z.q.&.V.$X.X=X@X@X@X@X@X@XoXoX(.3...[ E ] ] { X.] ] ] P A C V 7 7 3 > 3 > 5 8 k k k S k S S z z c x ; $ + X X X X   ",
"9.&.+.&.K.A.z.0.&.V.XX.X@X&X@XoXoXoX.XoX}.7.4.6.!.Q.~.).W.T.T.T.X.X.] P G S C e e r w 5 5 8 i h k j k h k h 5 $ X X             ",
"&.&.+.%.N.A.q.q.9.V.%X_.}.}.}.}.}.oX{.[.[.E./.[.{.{.^.4.{ [ L K A Z 7 6 6 6 6 6 5 6 8 6 8 8 w w h h h h j 8 2 .                 ",
"v B v v B ! N b M #.>.g.].].}.}.[.[.[.!.!.Q.6.6.4.<.*.( ( E L L G S Z r 6 6 9 3 3 1 1 1 5 1 5 6 8 w i w 8 5 O                   ",
"- & - $ % $ ; $ & 4 x ,.g.f.].].!.!.f.7.d.3.1.<.*.*.( *.Q.).(.~.Q.4.<.| R e 6 3 3 5 > 1 1 1 8 1 1 5 6 5 5 4 +                   ",
"# $ $ # # $ o $ $ $ = ` d.d.f.7.7.7.7.s.7.1.<.-.| }  .!.OX+XOX).~.R.<...| ^ e 8 6 6 1 1 8 1 1 8 5 1 5 1 1 @                     ",
"X X X o o o o o + O * $.5.5.7.5.6.5.6.7.1.<.-.*.-.;.^.oXOXOX(.~.W.4.<...[ [ R F e 8 8 8 8 1 1 1 1 1 5 3 < +                     ",
"X X X X X o X   X o o ~ 5.5.5.7.7.6.6.1.1.<.1.1.3.d.oX@XOX{.!.E.4.2.<...} [ R R D k 8 8 1 8 1 8 5 1 3 1 % +                     ",
"X X X X X   X X X . X c g.5.:.7.7.7.7.3.6.1.1.6.d.`.{.OX{.{.E.E.4.2.<.| | [ E L G J S i i 8 i 8 8 1 1 < % +                     ",
"X X   X X X X     X X = g.x.:.s.d.7.d.6.7.6.6.7.d.!.(.[.!.!.E.<.-.{ | | [ E L J L J G S k k i 1 8 1 % < &                       ",
"X X   X X X X X X   X o y.$Xg.,.5.7.6.6.Q.!.[.!./.!.E.6.<.<.| { ( K E E R L L R ^ L J J D i i 5 1 < < 1 =                       ",
"X     X   X   X   X X X N |.&Xf.:.:.7.!.!.(.[.OXOX{.(.E.<.{ E L D D G K E R E E E ^ L J D i i 1 < < 1 4 +                       ",
"            X X X X X X : B.&X$X[.*.*.5.f.!.[.[.[.}.(.Q...} ^ Y D S F I I I G G R J F S e 5 < < < 4 5 4 o                       ",
"          X X   X   X X # z.%X&X$X[.5.O.:.5.7.7.f.d.1.*.( R I z w 6 q w w w r w r w w w 3 < % < 5 8 u 4 X                       ",
"  X               X   X # y.XX&X&X$X|.7.:.O.O.O.` ` ^ U c w 9 9 w 3 3 q 4 3 2 3 2 2 2 1 > < < 1 5 u a 4                         ",
"                X   X X X g x.$X$X$X$X|.x.5.*.O.^ Q c z h w q q q 3 4 3 3 2 2 = < > = 2 < 4 y y 5 a q O                         ",
"                      X X # a.XX$X$X$X$X.X].f.d.,.=.O.^ k i i q 9 3 2 2 2 2 1 < 2 3 ; 4 4 4 4 p u a 4 X                         ",
"                    X   X   v |.$X$X$X$X.X X|.!.f.5.:.O./ W k i 4 5 5 3 4 4 2 3 4 4 4 4 y 5 a u f 4 +                           ",
"                X         X # $.$X$X$X$X$X$X|.|.].f.5.:.O.W Q H z h q a 8 a a q y i i h i i i i q @                             ",
"                X       X   X 0 z.$X$X$X$X$X$X$X|.x.f.i.:.*.O._ W ^ Q U c z c b c Q Q b j i a h 4 X                             "
};
