/* XPM */
static char *load_load[] = {
/* columns rows colors chars-per-pixel */
"100 20 254 2 ",
"   c #3D5B85",
".  c #3E679F",
"X  c #3C53A3",
"o  c #3F62A3",
"O  c #4C568E",
"+  c #455D8D",
"@  c #4A588A",
"#  c #455B92",
"$  c #4A5C93",
"%  c #545C95",
"&  c #456389",
"*  c #486497",
"=  c #576298",
"-  c #5A789B",
";  c #455BA5",
":  c #4A5AA6",
">  c #4C5CAC",
",  c #515CAB",
"<  c #475DB1",
"1  c #515DB6",
"2  c #4564AC",
"3  c #4A62AC",
"4  c #4A69A9",
"5  c #5461AC",
"6  c #576BA9",
"7  c #5B6DAD",
"8  c #4C76AB",
"9  c #597AA5",
"0  c #5875AA",
"q  c #4562B3",
"w  c #4C63B4",
"e  c #4C63BB",
"r  c #4B6BB8",
"t  c #5264B6",
"y  c #546CB5",
"u  c #5A6DB4",
"i  c #5565BC",
"p  c #5E63BB",
"a  c #536CBB",
"s  c #5A6BBA",
"d  c #4970B2",
"f  c #5C74B4",
"g  c #5577BA",
"h  c #5D74BB",
"j  c #626FA4",
"k  c #6376AB",
"l  c #626CB5",
"z  c #636CBB",
"x  c #6172B4",
"c  c #637BB4",
"v  c #687FB3",
"b  c #6374BB",
"n  c #667ABC",
"m  c #6A7CBC",
"M  c #5968C2",
"N  c #5374C1",
"B  c #6569C3",
"V  c #6573C1",
"C  c #6975C1",
"Z  c #6C7AC1",
"A  c #717EC6",
"S  c #5685B1",
"D  c #668BA8",
"F  c #6383B5",
"G  c #6D85B6",
"H  c #6D83BC",
"J  c #6988BB",
"K  c #7185BE",
"L  c #758BBE",
"P  c #7A8BBE",
"I  c #7491BA",
"U  c #7798B8",
"Y  c #7EA3BE",
"T  c #5F83C1",
"R  c #6C82C2",
"E  c #668AC7",
"W  c #6D89C3",
"Q  c #7383C3",
"!  c #7885C3",
"~  c #758BC3",
"^  c #7C8BC4",
"/  c #7687C9",
"(  c #7986CA",
")  c #7D8CCA",
"_  c #6893C5",
"`  c #7D93C4",
"'  c #7796C8",
"]  c #7B94CD",
"[  c #7E8FD7",
"{  c #6F96D1",
"}  c #7799D7",
"|  c #79A4CD",
" . c #7EB9C7",
".. c #7BADD4",
"X. c #7BA6DA",
"o. c #7DABDC",
"O. c #7FB0D8",
"+. c #84AABF",
"@. c #838CC7",
"#. c #838DCA",
"$. c #8393C6",
"%. c #8598C7",
"&. c #8A9BC7",
"*. c #8493CB",
"=. c #8B95CC",
"-. c #829BCB",
";. c #8C9BCC",
":. c #909BCC",
">. c #8B95D2",
",. c #839CD2",
"<. c #839BD7",
"1. c #8C9AD2",
"2. c #929BD2",
"3. c #9098D9",
"4. c #85AAC4",
"5. c #8AABC5",
"6. c #85A2C8",
"7. c #8BA3CC",
"8. c #86AACA",
"9. c #89ACCB",
"0. c #93A3CE",
"q. c #8CB0C6",
"w. c #8CB2CD",
"e. c #95B4CC",
"r. c #84A3D5",
"t. c #8BA4D3",
"y. c #84ACD3",
"u. c #8CABD4",
"i. c #84A4DB",
"p. c #8DA2DA",
"a. c #82ACDB",
"s. c #8DABDB",
"d. c #95A3D3",
"f. c #99A6D4",
"g. c #93ABD3",
"h. c #9BADD4",
"j. c #9CA4DA",
"k. c #93ADDB",
"l. c #9BABDA",
"z. c #83B3D5",
"x. c #8CB4D5",
"c. c #8EBBD4",
"v. c #83B2DC",
"b. c #8DB5DB",
"n. c #89B9D8",
"m. c #95B4D4",
"M. c #9AB5D5",
"N. c #91BBD6",
"B. c #9AB9D6",
"V. c #93B3DC",
"C. c #9CB3DC",
"Z. c #93BBDD",
"A. c #9BBDDD",
"S. c #A4ADC5",
"D. c #AAACC4",
"F. c #A4AECA",
"G. c #AAADCB",
"H. c #B0AFCE",
"J. c #A9B2C5",
"K. c #A6B1CC",
"L. c #A8B5C8",
"P. c #AAB3CC",
"I. c #A6ACD5",
"U. c #A4AEDC",
"Y. c #A5B4D5",
"T. c #ABB3D3",
"R. c #A0B8D2",
"E. c #ACBAD2",
"W. c #A4B3DB",
"Q. c #ABB5DB",
"!. c #A3BCDC",
"~. c #ADBADB",
"^. c #B3B7D6",
"/. c #B3BCD2",
"(. c #B2BDDD",
"). c #83ADE3",
"_. c #8DADE2",
"`. c #97ABE3",
"'. c #85B3E2",
"]. c #8DB2E1",
"[. c #87B8E3",
"{. c #94B5E2",
"}. c #99B5E3",
"|. c #94BAE2",
" X c #9BBCE2",
".X c #99B5E9",
"XX c #9CBDE9",
"oX c #A6ADE2",
"OX c #A8AFE5",
"+X c #A5B2E4",
"@X c #ACB4E2",
"#X c #A4BCE4",
"$X c #AABCE4",
"%X c #A2BEE9",
"&X c #B2BEE8",
"*X c #8BC3D6",
"=X c #9EC3D6",
"-X c #95C2DA",
";X c #9DC2DD",
":X c #ABC7D5",
">X c #AFC8D6",
",X c #A3C4DC",
"<X c #A9C5DD",
"1X c #A4CADB",
"2X c #ABCADE",
"3X c #B3C3D4",
"4X c #B6C7D9",
"5X c #B4C2DC",
"6X c #BCCADC",
"7X c #97C0E0",
"8X c #9DC1E3",
"9X c #A3C3E3",
"0X c #ABC5E4",
"qX c #A6CAE4",
"wX c #ACCBE4",
"eX c #A4C2EB",
"rX c #ABC4EA",
"tX c #ADCBEA",
"yX c #B4C3E3",
"uX c #B3CCE5",
"iX c #BCCCE5",
"pX c #B2C4EA",
"aX c #B8C7EE",
"sX c #B3CDEB",
"dX c #BBCCEB",
"fX c #AED1E3",
"gX c #B2D2E4",
"hX c #BBD5E3",
"jX c #B6D5EB",
"kX c #BBD3EC",
"lX c #BED9EB",
"zX c #B7CFF1",
"xX c #BCCDF1",
"cX c #B9D5F2",
"vX c #BED9F2",
"bX c #C0C6DC",
"nX c #C2CDDD",
"mX c #C5D3DD",
"MX c #C8D6DF",
"NX c #CCDADD",
"BX c #C2CEE3",
"VX c #C3CEEC",
"CX c #C6D5E3",
"ZX c #C9D6E3",
"AX c #C3D9E5",
"SX c #CAD9E4",
"DX c #C4D5EC",
"FX c #CAD7E9",
"GX c #C5DBEC",
"HX c #CADBEB",
"JX c #C3DAF2",
"KX c #C4D8F6",
"LX c #CADBF3",
"PX c #D1E1FA",
/* pixels */
"HXHXCXCX3XS.S.D.D.D.D.D.D.H.3XmXSXSXmXmXmXSXHXZXbX^.D.K.F.F.F.S.S.J.L.mXMXZXNXMXNXMXMXSXnX/.J.F.F.G.G.F.S.S.P.4XmXNXNXZXMXmXMXZXCX4XE.L.S.S.S.J.J.D.D.L.iXHXCX6XmXSXmXZXMXnX3XP.S.F.G.D.H.G.S.S.:XnXCXSX",
"HXHXiX5XT.S.F.P.G.T.^.P.T./.nXFXHXSXmXAXCXHXZXiX^.G.F.G.T.T.Y.S.J./.6XmXZXSXZXZXZXFXZXbX4XL.F.F.T.T.Y.Y.P.Q./.6XCXMXMXSXSXSXHXAXiXE.J.P.F.F.P.E.G.P.E.4XAXHXAXCXSXHXSXSXnX3XP.P.T.T.T.G.H.T.E.3XmXHXFXMX",
"LXDXiXY.~.(.~.Q.Q.~.Q.E.4XFXHXHXGXHXHXHXHXDXdX/.Q.T.(.@XQ.Q.Q.~.>XiXHXHXHXHXZXZXHXFXFX&X(.Q.^.@XQ.Q.Q.^.5XiXGXLXHXHXHXAXSXHXHXBX^.^.^.^.Q.(.(.~.Q.(.VXHXFXFXHXHXHXAXDXDXiXE.P.~.(.Q.T.^.^.(.dXJXLXDXFXFX",
"VXuX(.Q.$XW.Y.W.W.+XY.>XhXHXGXFXGXJXLXJXJXdXyX~.Y.Q.@X@XoXU.Q.yXdXkXGXGXGXFXGXHXHXVXbX&X(.Q.Q.Q.Y.Y.Y.W.5XVXLXLXLXHXGXFXHXKXiX(.Q.@X@XoX@X@XU.W.(.dXLXHXFXHXLXGXFXGXLXyX(.Q.E.Q.I.Y.Q.E.Q.yXkXkXGXDXLXCX",
"yXY.I.oXU.U.#XW.C.#XsXlXlXJXlXlXJXvXkXVXuXQ.Y.W.W.U.I.oXoXoX&XxXvXvXGXlXlXAXGXKXVX(.G.OXoXoXoXU.W.Y.(.yXkXKXJXJXkXkXkXLXDXyX(.U.U.U.oX@X+XoXU.&XkXKXKXAXGXGXGXJXKXVXpXY.h.W.W.W.W.Y.Q.P.dXvXvXlXGXLXLXPX",
"h.d.d.d.d.l.l.0.9.C.tXgXgXgXfXlXJXcXzX0XC.0.0.f.l.f.f.d.j.W.rXzXkXjXjXjXjXkXkXyXT.I.f.j.j.j.l.d.d.h.!.uXkXkXkXkXkXcXvXxX&Xh.f.f.j.j.j.j.d.f.W.rXzXcXzXhXhXgXiXdXaXW.0.l.j.d.f.f.0.d.f.T.zXvXjXfXuXdXdXxX",
";.:.2.2.2.=.%.7.C.0XtXfXgXgXfXfXzXtX9X0.;.:.:.1.:.=.;.:.f.#XsXdXsXfXgXgXwXsXpXW.:.=.3.3.>.3.:.&.0.M.yXgXwXgXuXuXsXtXtX#Xf.&.:.1.=.2.2.1.:.d.#XsXtXfXfX2X>XhXkX0Xl.0.1.;.1.2.2.;.&.d.W.iXwXfXgXjXgXdXxXaX",
"=.=.#.#.#.=.&.g.#XfXfX;XfXfXqXtXrXC.;.$.*.*.$.$.=.*.$.&.R.pX0X<XqXfXwXqXtX9Xg.$.$.>.>.#.*.*.$.&.h.<X2X2XwXwXwX0XtXrXA.1.*.#.*.*.#.$.=.*.0.C.rXuXfXqX1XfXwXwX#Xg.$.$.,.>.*.*.*.` %.l.pX>X2XqX1X1XwXpX&X}.",
"#.@.@.$.@.$.g.!.0X2XqXqX,XqXrXrXl.;.$.#.^ ! *.$.P ` -.R.<X2X2XqXqX,X,XtX X0.-.@.#.#.( *.^ ! %.g.!.qX2X2X<X,XqXwXeXV.-.*.) ) ) ) @.@.P &.C.rXwX,X1X1X1X0X0X!.9.` ` ` / ) ) ) ^ $.k.#XrX:XwX2X=X1XwX$Xj.1.",
"A A ^ ! ^ 7.W.0XqX1X,XtX9X9XeXl.$.P ( ) ! P ^ ^ P *.l.,X<X<X,X,X,XqX X Xt.I L ~ / ! ( ! L ^ 7.A.9XqX,XqX,X!.9XeXV.%.K / ( ( ~ ~ L P U l.#XwXqX,X=X1X1XrX X7.L K / / K / Q K ' g.#XeX9X<X,X1X1X1X,Xk.*.^ ",
"! ! ! P 7.#X9X!.,X,X=X8XeXeXk.*.Q Q ! Q ( ! H G ` V.#X=X=X,X=X!.9X9X#X] ^ K K Q Q Q / v L t.}.9X!.;X,X;X,X9X#Xs.` Q K / / Q ( Q G ` m.9X,X;X,X,X=X,X,X}.,.L H Q Q Q / Q H ~ t.XXeX8X9X,XA.8XqX1X9.` ( A ",
"A K K ,.k.eX#XA.B.=X=X%X Xs.~ m m R A Z A H m L s.8XeX=X;X,X X8X%XV.r.H m H R H C A R G |  X8X8XA.;X8XA.9XXXu.~ H m Q A C Z H G ' u.#X;X,XA. X;X8X7XA.] W v H R H m Q H L ,.{.#X7X;X;X!.8X8X7Xw.I m Z A ",
"k H ] |.|. X7X7X;X;XA.XXt.L F n C C Z C b c ~ a.A.|.-X-X7X7XXX X}.*.m m n n n n n H m 6.b. X XZ.7X8X;X X{.t.~ c Z Z Z m C c c L u. XZ.N.;X7XZ.XXeXk.] R R m n n n m n H ,.}. X|.;X;X-X#XeXXX| J v c C C ",
"c ' V.XX|.|.|.;X|.Z.x.i.W f f n b b V n n W a.{.|.c.n.7Xn.|.{.s.] C x C z b b n f H ] b.V.Z.Z.A.7X|.|.b.,.J c b b b B b b m L t.Z.-XN.N.Z.N.|.}._.] c h C n h n b n R ] s.#X XN.-X-XN..X.XX.F 9 k n V V ",
"' s.{.].7X7Xb.b.Z.N.7.F f 7 f f z h h b R <..X{.n.c.-X7XZ.|._.' f u C b l z n x k ' _.Z.Z.b.|.Z.Z.Z.b.-.J 0 7 l z z z l x Q p.{.Z.m.-X-Xc.Z.XX_.W h n h s u b b f n / k.}..XA.N.c.c.c.`.<.T 0 9 k s B z ",
"u.B.e.e.e.m.g.U..X1.v p z z l 7 7 j 6 k ` V.A.N.m.m.x.b.}.p.W f a M M i h h 6 9 U 8.w. .*X*Xz.z.[.].i.h f u y s y 7 y 6 G 6.k.M.M.m.w.m.C.k.p./ z p B B M p z x k ~ u.m.m.M.C.m.m.g.M.X.h y y i t g r d ",
"b.b.c.c.w.m.{._.} n y M t t i u y 6 f i.V.].b.v.n.n.O.{.r.W f w i M e M w 3 y W u.N.n.z.n.b.n.{._.{ h s y 3 t t y y a F ] _.].b.n.x.Z.Z.V.X.W a t i M M M i 3 a E i.].b.Z.b.z.b. Xx.' a t s s p a M r r ",
"v.z.z.v.v.v.'.{ g 2 2 r q e r w 2 g } o.).'.o.O.[.[.[.X.W d 3 w e e e M t a E X._.z.z.b.z.a.[._.} h > , > 1 i i 1 t M } o.'.'.o.O.O.v.v.X.T d 2 q e e < q r g E ).[.v.v.'.v.v.'.v._ 8 r t < > 1 e t M N ",
"O.z.O. .z..._ 8 o 2 2 2 2 2 2 o g { ).a.'.'.'.v.O...| c 4 * ; 3 < < < X w E i._.a.y.x.8.u.s.r.H 7 * 5 5 , , : : : z [ '.'.v.v.v.n.O...| S . . 4 o ; < q 2 4 T } a.v.v.O.O.v.'.o.E 8 . 3 > : : 5 > : a } ",
"4.5.+.q.4.U 9 + # # # # # # + - I t.u.u.9.8.8.w.8.U D & & & + $ $ # $ = c -.9.7.4.4.q.5.w.5.I - @ @ $ O O O % = j P l.9.7.8.4.8.w.4.Y - &   & & # # $ # * k 6.V.u.8.4.w.4.8.8.U *     O $ O O % % k >.t."
};
