/* XPM */
static char *e0bf729b18014a36e951f2b570e0cc4b[] = {
/* columns rows colors chars-per-pixel */
"64 64 256 2 ",
"   c #010117",
".  c #02011B",
"X  c #0B041C",
"o  c #16061D",
"O  c #15081E",
"+  c #22091F",
"@  c #040323",
"#  c #080725",
"$  c #0C0A25",
"%  c #06052A",
"&  c #09062C",
"*  c #0B0A2B",
"=  c #150922",
"-  c #190A22",
";  c #130C2C",
":  c #18122B",
">  c #0D0B33",
",  c #120B35",
"<  c #140D3B",
"1  c #0E1034",
"2  c #181535",
"3  c #16123C",
"4  c #1A143B",
"5  c #260D25",
"6  c #380F28",
"7  c #281329",
"8  c #36152B",
"9  c #291A37",
"0  c #321C33",
"q  c #381B35",
"w  c #25223C",
"e  c #34223A",
"r  c #3B2538",
"t  c #3B243B",
"y  c #43172B",
"u  c #431D33",
"i  c #481A35",
"p  c #501430",
"a  c #641A35",
"s  c #472337",
"d  c #432B3D",
"f  c #4B2B3C",
"g  c #532B3D",
"h  c #58283A",
"j  c #4F303B",
"k  c #68283C",
"l  c #68343D",
"z  c #1C1442",
"x  c #1B1943",
"c  c #221B45",
"v  c #251B4B",
"b  c #261A4A",
"n  c #291D51",
"m  c #2A2445",
"M  c #282546",
"N  c #2B244B",
"B  c #2E2A4D",
"V  c #382844",
"C  c #322C4B",
"Z  c #38334D",
"A  c #2C2352",
"S  c #2E2B50",
"D  c #322D51",
"F  c #362A58",
"G  c #363152",
"H  c #393454",
"J  c #3C3858",
"K  c #383867",
"L  c #442D42",
"P  c #492C44",
"I  c #562D44",
"U  c #4C3343",
"Y  c #48354C",
"T  c #533444",
"R  c #5B3343",
"E  c #543A4A",
"W  c #5C3948",
"Q  c #453A56",
"!  c #573E53",
"~  c #673947",
"^  c #6C314B",
"/  c #763B48",
"(  c #463D62",
")  c #3F4777",
"_  c #574349",
"`  c #49445C",
"'  c #584759",
"]  c #69444D",
"[  c #79454C",
"{  c #664454",
"}  c #774753",
"|  c #695A5F",
" . c #7A555A",
".. c #6A625F",
"X. c #4C4563",
"o. c #554B68",
"O. c #5B5464",
"+. c #595568",
"@. c #4C517A",
"#. c #545173",
"$. c #6D5766",
"%. c #675966",
"&. c #645C6B",
"*. c #655C74",
"=. c #6F6165",
"-. c #65606E",
";. c #6B626E",
":. c #77666A",
">. c #6F716D",
",. c #6C6572",
"<. c #6B6477",
"1. c #6E6975",
"2. c #726B75",
"3. c #786C74",
"4. c #746D7A",
"5. c #76717B",
"6. c #7B7679",
"7. c #7B747C",
"8. c #8C1A3C",
"9. c #8E1D44",
"0. c #8C2F48",
"q. c #89384B",
"w. c #A1244B",
"e. c #85474A",
"r. c #93524E",
"t. c #844B53",
"y. c #894A56",
"u. c #974957",
"i. c #895457",
"p. c #965557",
"a. c #945B5B",
"s. c #9B5C5C",
"d. c #A84B59",
"f. c #A55B5B",
"g. c #98675D",
"h. c #97705F",
"j. c #A7655C",
"k. c #B46C5E",
"l. c #8A5863",
"z. c #995C63",
"x. c #A65C64",
"c. c #B65B63",
"v. c #876E6D",
"b. c #986865",
"n. c #997464",
"m. c #847978",
"M. c #997A73",
"N. c #A86665",
"B. c #AB6C63",
"V. c #B56966",
"C. c #A7756A",
"Z. c #B77769",
"A. c #AB7B73",
"S. c #B57974",
"D. c #CD556C",
"F. c #C4686A",
"G. c #C8766C",
"H. c #C37B6C",
"J. c #D36C75",
"K. c #C77B75",
"L. c #E3757A",
"P. c #87837D",
"I. c #988476",
"U. c #A78677",
"Y. c #BB8676",
"T. c #B58974",
"R. c #B3957D",
"E. c #C7846C",
"W. c #D4836F",
"Q. c #C88978",
"!. c #D38978",
"~. c #C8947C",
"^. c #D7947A",
"/. c #DC9B7B",
"(. c #E2997C",
"). c #E2A17E",
"_. c #3D4D81",
"`. c #455085",
"'. c #726D8A",
"]. c #7C7682",
"[. c #7E7983",
"{. c #827B84",
"}. c #857986",
"|. c #837E89",
" X c #957F85",
".X c #E16E81",
"XX c #898487",
"oX c #938C8A",
"OX c #98948A",
"+X c #979192",
"@X c #AD8E85",
"#X c #AC9489",
"$X c #B49289",
"%X c #A49A93",
"&X c #B2A997",
"*X c #BEB6A1",
"=X c #CC8E86",
"-X c #CC9983",
";X c #D89A85",
":X c #E59986",
">X c #F39291",
",X c #D8A486",
"<X c #D2A488",
"1X c #DCA48B",
"2X c #C8AA9B",
"3X c #E4A48C",
"4X c #E8A788",
"5X c #E4AC8B",
"6X c #E9B48B",
"7X c #EBB38C",
"8X c #F3B88D",
"9X c #E8AA92",
"0X c #F4AA95",
"qX c #E6B597",
"wX c #EBB392",
"eX c #EEBA94",
"rX c #F5B697",
"tX c #F3BB93",
"yX c #F4BC9B",
"uX c #C29FA1",
"iX c #C9B8A6",
"pX c #CBB7AF",
"aX c #D4BBA9",
"sX c #F2BCA1",
"dX c #EFC096",
"fX c #F6C598",
"gX c #F9D29C",
"hX c #CAC6AA",
"jX c #D6C6AB",
"kX c #D6D1AE",
"lX c #CCC7B3",
"zX c #D8C7B4",
"xX c #D4D3B4",
"cX c #DAD5B9",
"vX c #FACBA3",
"bX c #F8C8A5",
"nX c #FAD3A4",
"mX c #F9D9A8",
"MX c #E5C9B2",
"NX c #E5CCB3",
"BX c #F0C8B0",
"VX c #E7D6BA",
"CX c #F8DBB7",
"ZX c #F9E2AC",
"AX c #E8E2BC",
"SX c #F9E9B6",
"DX c #F9F3BD",
"FX c #E8D9C5",
"GX c #F3DDC3",
"HX c #ECE8C7",
"JX c #F7E4CB",
"KX c #F9F5C6",
"LX c #EDEDD3",
"PX c #F8EAD7",
"IX c #F8F5DC",
"UX c #FCFBE3",
/* pixels */
"K 1 * @.'._._._.`.`._.`.`.) ) ) S C m B C C Z Z H J ` ` X.+.+.-.>.>.6.6.P.P.XXOXoXP.OXOXOXOXOXOXOXOXOXP.XXP.P.m.6.6.2.1.1.1.1.1.",
"K 3 . @ * * 1 1 1 1 1 1 1 1 1 1 M C B B m C C C Z Z Z H H ` ` ` ` o.O.+.-.;.>.>.6.6.6.m.6.6.6.6.6.>.6.>.2.1.1.,.,.-.,.1.1.4.4.7.",
"A 1 . @ * * # * 1 * * * * # * > M C m C C C C C Z Z Z H Z Q Q ` ` ` ' O.O.' ' O.O.%.&.&...-.-.-.-.-.-.-.-.;.-.;.,.,.1.2.4.5.].[.",
"1 * @ x G ) @.@.`.`.@.@.@.@.@.#.J C C C m C C C Z Z H Z Z Q Q H Z V L Y r e e t d Y ` ' +.+.+.+.+.+.-.-.-.-.,.,.1.2.5.5.].[.[.XX",
"* @ @ * 1 2 x x x x w x x w x w m C C m V C C C C Z G Q ' ' { E U V d d d d d L t e t Z Q ' O.+.-.+.-.-.;.1.1.4.5.5.[.'.[.|.|.|.",
"w x x w M M M M M M M M M M M M C C C C C C C C H Y E t r s U U E L 0 0 r f f U U U V 0 e V Y O.+.-.-.;.,.1.2.4.5.].[.[.|.|.|.XX",
"S B B B B S S S S Z G G G G H H G C C V A C C C V 0 5 : 5 7 8 r r r t d d j E U t t t t m t t Y +.&.-.;.1.4.4.5.5.[.|.|.|.|.|.XX",
"S S B S S S D D G G G G H J H H G C C C C M 9 : X . . X X o 5 7 - = o 5 7 q d d d 0 9 q e e t e C Q O.-.1.4.5.5.].].|.|.|.|.|.XX",
"S S S S S S Z S G G J G J G J J G C C C M , $ @   X O O O + o o o O = 7 7 7 + 7 r r d d U U d r 0 V ! +.1.4.4.5.].].[.[.|.|.XXXX",
"S S Z S G G D G G G G G G J J J Q C V 9 ; X X X o O O O O O O + 7 7 8 q 7 8 7 7 : 7 0 0 r r d U L V V ' -.<.4.5.5.5.[.[.[.|.|.XX",
"S S S C S G D G G G J J H H Z J Z V 9 & X . X o O O O O O O + 8 y s s r s j _ j r j r 7 r 8 r d P L V Y %.<.1.4.5.5.].[.[.[.[.XX",
"S B S D D D G Z G G G G H H H Z N V $ X . X X X O O O + + + + y 8 y 8 5 y j _ j s j _ j r d 0 0 q V L Y %.;.,.1.5.5.'.5.[.[.XX[.",
"S B B S S S S S G S G G H H Z Z C 9 @ @ X X   + 5 8 y y y y y l [ l j y y l l l j j j j s j j 7 0 e V Y ! ;.<.1.1.1.2.5.'.[.{.{.",
"S B B S B S S Z B Z G G G H Z B 9 ; . X X o + 6 s l l e.l e.r.r.j.r.r.e.l l l l l l l l h s j y 7 7 q V Y o.$.;.2.1.2.5.].].7.{.",
"S S S S B S B S Z S G G G G Z w : $ O o + 8 j l e.r.k.E././.^.E.E.E.E.E.k.r.r.r.r.e.e.e./ h h h 0 7 e V V ' $.;.;.,.1.4.7.7.7.{.",
"n A X.+.S M M S S G S G G Z Z w : 0 r y s [ g.k.E./.).).8XgXgXfX8XfX8X).).^.E.k.j.j.k.k.j.e.l l u 5 0 q e ! %.&.;.,.,.3.4.7.7.m.",
"A v ( *.o., > < < z z x v v N 9 e W ~ R ] g.E.!.).8XgX8XgXgXZXZXZXZXZXZXgXfXtX).W.E.E.4X/.G.k.p./ 6 5 7 7 Y O.*.&.;.,.2.3.5.m.7.",
"A v n o.<.n % @ @ % % % & & , V ! { ] ] e.k.E./.).8XgXgXgXgXgXZXZXZXDXDXSXZXZXmXgX7X6XfXgX8X).!.k.~ 8 7 = V o.O.%.&.;.,.,.5.4.m.",
"A z z F -.H @ @ @ @ @ @ % & e L P f P R e.k.H.).8X8XfXgXgXgXZXZXZXSXDXDXDXSXSXDXZXmXgXmXmXmXgX6X).B.g 7 ; 9 ' +.%.&.;.,.,.3.4.m.",
"n v < v o.Z @ @ . . . . @ , 9 t q 7 8 h r.j.H./.).8XfXgXgXZXgXZXZXDXDXDXKXDXKXDXDXSXZXZXZXZXmXgXtX^.i.q 5 q Q +.+.&.$.,.,.3.3.3.",
"v z > 3 ( H $   . .   . . : 7 7 + o + h r.j.Z./.6XfXfXgXnXmXnXmXZXDXDXKXKXKXDXDXDXSXSXCXZXZXmXnXfX5XZ.[ j e Y ' O.&.$.;.:.:.4.3.",
"z < & > G C X . . . .   . $ X o o o 6 l j.j.Z.W.6XdX8XfXdXsXdXdXnXZXSXSXDXJXDXSXZXZXmXnXnXBXnXnXfX6X^.Z.} L L O.O.&.$.;.,.3.3.m.",
", & % * N w . . . . .   X X X X o o 5 e.j.j.k.E.Y.A.b.b. .i.N.S.=XwXfXnXnXnXnXvXqX9X-XY.A.S.Y.=X,X1X,XQ.l.T V ' O.| $.;.;.:.3.v.",
"# # @ # c : . . . .   . . @ X X X o y r.j.j.g.] u s q 7 7 5 7 u / B.:X8XfXvX8X:XV.q.i 5 7 0 s I } a.Q.~.a.L e ' O.| $.=.:.3.3.v.",
". . @ & 2 ; .   . .   .   X . X X 5 h r.f.a.~ u q 8 5 6 6 8 8 y h e.G.4XfXvX4XG.y.k i 6 6 6 q i P ^ l.Q.g.q 7 ` | $.=.=.:.:.v.m.",
". . @ ; : @       . .     . . X X o h r.p.[ h j ~ ~ / / / ] ^ / / q.F.4XnXnX0XF.d.y.q.t.t.u.p.y.} }  .S.a.8 - E | =.=.:.:.v.v.m.",
". . . $ $         . .         X X O l e.r.[ ~ [ a.A.E.~.-XS.z.y.e.l.S.wXbXBXsXQ.N.x.N.H.^.).4X;XK.C.b.S.n.e = E =. .:.v.v.v.I.m.",
". . . # @       .   . . . . . . X O j r.U.M. .} g.E.,XdXfX;XS.x.u.N.x.Z.qXqXQ.S.S.N.Z.!.5XrXrX3X=X=Xb.l.:.Y 7 ' =.:.:.v.n.I.I.I.",
"; * ; 2 2 2 : $ # . . . . . . .   O d 0 j ..b.a.j.Z.Y.M. .i.p.Z.~.Y.p.E.bXCX;Xj.-X=Xs./ ^ } N.S.K.=XM.$.' P e '  .:.....>.I.I.I.",
"m m m m C m C C C C M w : . .     O O 8 } h.S.s./ h s 7 9 { l.S.,XS.u.!.BXSXqXa.Y.;Xx.R 7 9 E I y.$XS.b.} i ^ Y ......>.>.n.h.I.",
"m m N C C C C C C C Z G m $   .     + [ h.T.-XS.s.[ / t.a.=X3X9X,XE.d.!.bXCXsXZ.E.3X:X;XS.z.z.N.-X1X<XA.[ e.!.l.>.I.P.I.I.R.R.R.",
":.%.$.=.:.2.7.}.|.|.XXXX7.Q q y O   o l j.~.<X-X^.Y.S.Y.Q.;X;X1X,XQ.G.!.yXCXnX3X;X3X0X3X=X=XQ.-X1X9X3XuXA.Q.G.i.I.U.R.OXR.R.R.R.",
"2X2XpXpXpXFXFXPXPXPXPXUXPX Xa I 6 - 5 g r.T.,X,X<X/.^./.1X5X9X4X^.G.G.:XfXCXnXrX4X0X7XrXyXdXdXqXwXwXqXqX~.K.K.2XjXjXkXhXkXkXAXmX",
"aXaXzXMXFXFXFXPXPXPXUXUXUXuX^ p i y 8 R i.Z.Q.!.^.^.,X4X5X4X6X(.W.G.K.4XbXCXGXbXrX4X7XtXyXfXyXyXwXrXqX5XQ.K.1XHXHXVXHXIXIXUXIXIX",
"aXMXzXMXMXFXGXJXPXPXUXPXUXFXl.l.y.I s / i.B.B.N.Z.!.^.^.,X).).(.W.G.W.4XvXPXKXCXfXrXyXrXtXrX5X4X3X9X5X1XS.c.^.LXLXHXLXUXUXUXUXUX",
"MXMXMXBXFXGXJXJXPXPXPXPXUXPXuXc.u.p 6 R i.g.s.s.Z.H.G.W.(.).).).(.G.G.G.0XbXbXbX0X8XvXnXnXvXyXwX3X9X1X<XS.F.;XcXHXIXLXLXIXUXUXUX",
"MXMXBXMXFXGXGXJXPXPXPXPXPXUXzXS.q.p i I  .p.a.x.N.V.H.!.4X8XtXrX(.G.c.d.G.:X:X!.K.:XrXnXnXvXvXyX0X3X;X<X=X:XqXiXkXcXVXhXkXIXUXUX",
"MXMXNXNXBXFXGXJXPXPXPXPXPXPXPX=Xu.I ^ ^ [ l.p.x.N.Z.^.6X8X8XtX8XW.F.0.a q.c.V.d.q.c.8XvXnXnXvXyX9X;X;X;X:X3XqXVXDXAXAXxXFXIXIXIX",
"MXMXVXVXNXGXFXGXJXPXPXPXPXPXPXuXS.u.x./ ~ y.a.j.B.Q./.4X6X8XfXtX(.d.a 6 k q.d.u.9.c.rXnXnXnXfXrX5X;X1X-X;X1XuXiXiXiXiXpXpXlXlXkX",
"MXMXNXNXMXFXBXFXFXMXFXFXFXFXzXuXS.c.S.y./ t.a.s.B.E.!./.8X8XfXfX:Xq.p a k 0.q.x.c.K.rXnXnXnXvXfX9X5X5X,X3X;X#X%X%X%X*XiXiXjXjXcX",
"aXaXaXMXaXzXzXzXzXzXzXzXzXzXlXpXb.q.u.l./ t.p.s.h.Z.E.).).fXfXtX4XK.k.j.p.y.x.K.;X9XyXvXnXgXbXyXqX6X6X,X$XM.$X&XaXjXkXMXcXVXVXVX",
"2X2X2XiXpXaXaXaXpXzXzXzXpXpXpXpXuXS.x.u.} t.a.B.k.Z.E.).).fXfX8X0X4X3X:X:X=X=X9XsXsXbXvXvXvXbXfXeX6X6X,XT.$XjXjXMXjXMXzXNXVXVXVX",
"2X2X2XiXaXpXaXpXzXaXzXzXzXzXzXzXzXuXK.x.] [ a.B.Z.T.E./.).6X8X6X9XwXwX9XsXsXrX0X0X0XyXbXvXvXvXfXeX6X6X<XT.T.R.R.R.R.R.R.R.R.R.R.",
"S.$X$X$X@X$X$X$X@X@X@X@X#X$X%X@X+X@X X} s } p.B.k.T.E.~.).6X5X,X;XW.F.F.D.J.J.D.F.c.J.:X0X9XyXyXqXeX5X~.n.g.v.h.b.h.g.h.n.b.h.h.",
"! { { { ^ { { ~ { ] ] ] ] ] ] ] ] ] } W s } p.j.Z.Z.Z.E.^.E.H.V.u.0.8.9.8.8.w.w.w.9.8.q.c.K.wXqX6XeX5XR.n.h.h.h.h.h.h.h.h.h.h.n.",
"I I I T E I W W ~ W W W ~ ] ] ] } ] ] ] T [ s.g.C.B.k.Z.Z.p./ a a 0.d.D.D.D.D..X.X.XD.d.d.K.5XwXqX6X,XC.] _ _ _ _ U j j j L t r ",
"L I U U T T E E W E E E E T U E U U j d P ~ a.B.B.B.B.k.k.f.e.d.J.J..X>X>X>X>X>X>X>X>X:X0XwX5X5X5X5X-X_ @ @ @ # @ # # $ $ $ $ @ ",
"c 4 * X X X . . . . .   . . .       . . ; P i.g.j.s.g.j.Z.Z.G.G.F.F.D.D.D.D.L.L..X>X(.:X9X9X5X5X1X1XU.L $ * $ * * $ * $ $ $ $ $ ",
"z c , . . .   . . . .   .   . .   .   . : r } g.g.g.r.p.j.Z.Z.G.H.V.V.c.c.d.c.c.F.Q.!.;X).5X5X,X<X=X .0 : * * $ * $ @ . . . @ # ",
"4 c v & . .   . . . . .   . .     . . 2 C V j t.a.a.[ r.s.j.c.j.N.k.N.f.d.u.u.d.c.G.!.^.:X3X1X-X-XC.L $ . $ @ @ . . . @ @ @     ",
"< 4 N z > @ @ c Z $ # . .       @ w J ` o.Q e W i.i.i.[ i.p.f.f.f.f.f.c.N.V.J.K.Q.^.,X4X5X5X,X;X~.v.Z $ . . . . . . . . . @ X . ",
"< , c n z < 4 *.7.O.+.` : .   w ` -.-.+.` M : r ] i.r.[ [ u.s.f.k.G.K.:X0XrXsXsXrXrXrXeXeX5X1X-XY.I.6.+.: . . @ @ . @ @ @ . . . ",
"< , 4 n z < H }.4.<.<.X.J > 4 J ` X.+.+.X.S 2 0 h [ i.i.r.s.N.V.K.^.:X0X0XsXrXrXsXrXsXsXwX9X-XY.-XM.m.OX5.w ..OXXX>.J A 1 @ X . ",
"z , < b b z ( }.].<.+X&.S 3 M J ` +.` +.` J M w f g ~ e.a.g.N.Z.K.!.:X0X0X0X0X0X0X0XrX0X9X-XY.Q.~.I.:.oX%XOXOXxXcXFXlX[.X.2 . @ ",
"z , < v c n o.].].}.}.X.c 4 x O.6.XX7.&.X.X.H e f g h ~ [ i.s.N.K.K.L.;X>X3X>X:X>X9X9X3X^.Y.T.~.<XM.%.}.%XOX&XxXxXcXcX+XX.w @ . ",
"v < z z b b ( <.}. X*.J 3 < < H P.XXoXXX,.+.Q V f T u s l / t.r.x.V.V.F.K.K.!.!.=X.X=XS.C.Z.~.~.,Xn.O.7.OX%XhXxXxXxXlX].F 4 1 * ",
"v < z z n n F *.oX*.X.F 1 > , x 6.oXXXP.m.3.` m P I f u u h ~ / } y.u.p.x.x.N.x.x.x.N.N.S.S.~.~.<XC.' 3.XX*XxXxXxXxX&XK x S S A ",
"v < < z n n F 3.;.X.( S * * 3 3 ( m.}.oXXXP.;.Z d R R s 8 y i h ^ / / e.y.y.u.u.l.z.N.A.S.$XR.<X<Xn.{ :.OXhXxXxXxXlX'.x M K K F ",
"A < , < v ( #.*.+.X.( M @ # , , N ;.oXOXoXP.6.&.T R W g s u u s h k ^ / / [ y.l.a.b.C.S.Q.Y.~.<X<Xn.{ m.*XxXxXxXxX%XJ x A J F n ",
"b z & , F o.o.#.#.o.( , @ # , 3 4 &.oX%XXXP.XX6.&.! W R g u y s s h R ~ / t.y.a.g.N.A.Y.Q.=X-X<X~.h...%XhXxXxXcXlX-.x x F F F n ",
"b z % , Q o.o.( o.o.N % @ % , 4 , C ,.%XOXXXXXm.4.%.' R R g i i g h R / } y.y.z.b.B.S.Y.~.~.-X-XT.h.I.*XhXxXxXcX%XF z n Q F v z ",
"n v % 2 F o.*.*.o.Q 3 % & & > 4 , , m *.%XXXP.}.5.,.O.! W R g s s g h ~ [ y.i.a.b.C.S.Y.Y.~.-XQ.T.U.&X*XhXlXxXxX'.K x n A n z v ",
"b c # 2 F X.}.4.F v < & & & , z 4 @ & M 3.oX}.m.m.3.;.| ! T R I g h I ~ [ i.l.z.b.C.S.Y.~.~.Q.U.I.&X*XhXhXlXcX[.X.o.n n n x < n ",
"b b > , n *.}.#.A z z & & & > z < @ $ $ N [.+XXX6.}.5.&.O.! I R R R R ~ ] t.l.a.j.C.A.T.Y.~.U.I.&X&X*X*XhXxX+XJ '.( n A A z < n "
};
