/* XPM */
static char *_437aa7b584c4359fd9fb18e35efbe1e[] = {
/* columns rows colors chars-per-pixel */
"64 64 256 2 ",
"   c gray1",
".  c #1F170B",
"X  c #170F07",
"o  c #4B4B4B",
"O  c gray100",
"+  c #1B1B1B",
"@  c #131313",
"#  c #0B0B0B",
"$  c #070707",
"%  c #2F371F",
"&  c #232B0F",
"*  c #171F07",
"=  c #0F1703",
"-  c #4F3B2B",
";  c #473323",
":  c #3F2B1B",
">  c #FFB7B7",
",  c #F7ABAB",
"<  c #F3A3A3",
"1  c #EB9797",
"2  c #E78F8F",
"3  c #DF8787",
"4  c #DB7B7B",
"5  c #D37373",
"6  c #CB6B6B",
"7  c #C76363",
"8  c #BF5B5B",
"9  c #BB5757",
"0  c #B34F4F",
"q  c #AF4747",
"w  c #A73F3F",
"e  c #A33B3B",
"r  c #9B3333",
"t  c #972F2F",
"y  c #8F2B2B",
"u  c #8B2323",
"i  c #831F1F",
"p  c #7F1B1B",
"a  c #771717",
"s  c #731313",
"d  c #6B0F0F",
"f  c #670B0B",
"g  c #5F0707",
"h  c #5B0707",
"j  c #530707",
"k  c #4F0303",
"l  c #470303",
"z  c #430303",
"x  c #FFEBDF",
"c  c #FFE3D3",
"v  c #FFDBC7",
"b  c #FFD3BB",
"n  c #FFCFB3",
"m  c #FFC7A7",
"M  c #FFBF9B",
"N  c #FFBB93",
"B  c #FFB383",
"V  c #F7AB7B",
"C  c #EFA373",
"Z  c #E79B6B",
"A  c #DF9363",
"S  c #D78B5B",
"D  c #CF8353",
"F  c #CB7F4F",
"G  c #BF7B4B",
"H  c #B37347",
"J  c #AB6F43",
"K  c #A36B3F",
"L  c #9B633B",
"P  c #8F5F37",
"I  c #875733",
"U  c #7F532F",
"Y  c #774F2B",
"T  c #6B4727",
"R  c #5F4323",
"E  c #533F1F",
"W  c #4B371B",
"Q  c #3F2F17",
"!  c #332B13",
"~  c #2B230F",
"^  c #EFEFEF",
"/  c #E7E7E7",
"(  c #DFDFDF",
")  c gray86",
"_  c LightGray",
"`  c #CBCBCB",
"'  c gray78",
"]  c gray75",
"[  c #B7B7B7",
"{  c gray70",
"}  c gray67",
"|  c #A7A7A7",
" . c #9F9F9F",
".. c #979797",
"X. c #939393",
"o. c #8B8B8B",
"O. c #838383",
"+. c gray50",
"@. c #777777",
"#. c #6F6F6F",
"$. c gray42",
"%. c gray39",
"&. c #5B5B5B",
"*. c gray34",
"=. c gray31",
"-. c gray28",
";. c #434343",
":. c gray23",
">. c #373737",
",. c #2F2F2F",
"<. c #272727",
"1. c #232323",
"2. c #77FF6F",
"3. c #6FEF67",
"4. c #67DF5F",
"5. c #5FCF57",
"6. c #5BBF4F",
"7. c #53AF47",
"8. c #4B9F3F",
"9. c #439337",
"0. c #3F832F",
"q. c #37732B",
"w. c #2F6323",
"e. c #27531B",
"r. c #1F4317",
"t. c #17330F",
"y. c #13230B",
"u. c #0B1707",
"i. c #BFA78F",
"p. c #B79F87",
"a. c #AF977F",
"s. c #A78F77",
"d. c #9F876F",
"f. c #9B7F6B",
"g. c #937B63",
"h. c #8B735B",
"j. c #836B57",
"k. c #7B634F",
"l. c #775F4B",
"z. c #6F5743",
"x. c #67533F",
"c. c #5F4B37",
"v. c #574333",
"b. c #533F2F",
"n. c #9F8363",
"m. c #8F7753",
"M. c #836B4B",
"N. c #775F3F",
"B. c #675333",
"V. c #5B472B",
"C. c #4F3B23",
"Z. c #43331B",
"A. c #7B7F63",
"S. c #6F7357",
"D. c #676B4F",
"F. c #5B6347",
"G. c #53573B",
"H. c #474F33",
"J. c #3F472B",
"K. c #373F27",
"L. c #FFFF73",
"P. c #EBDB57",
"I. c #D7BB43",
"U. c #C39B2F",
"Y. c #AF7B1F",
"T. c #9B5B13",
"R. c #874307",
"E. c #732B03",
"W. c gray100",
"Q. c #FFDBDB",
"!. c #FFBBBB",
"~. c #FF9B9B",
"^. c #FF7B7B",
"/. c #FF5F5F",
"(. c #FF3F3F",
"). c #FF1F1F",
"_. c #FF0303",
"`. c #EF0303",
"'. c #E30303",
"]. c #D70303",
"[. c #CB0303",
"{. c #BF0303",
"}. c #B30303",
"|. c #A70303",
" X c #9B0303",
".X c #8B0303",
"XX c #7F0303",
"oX c #730303",
"OX c #670303",
"+X c #5B0303",
"@X c #4F0303",
"#X c #430303",
"$X c #E7E7FF",
"%X c #C7C7FF",
"&X c #ABABFF",
"*X c #8F8FFF",
"=X c #7373FF",
"-X c #5353FF",
";X c #3737FF",
":X c #1B1BFF",
">X c #0303FF",
",X c #0303E3",
"<X c #0303CB",
"1X c #0303B3",
"2X c #03039B",
"3X c #030383",
"4X c #03036B",
"5X c #030353",
"6X c gray100",
"7X c #FFEBDB",
"8X c #FFD7BB",
"9X c #FFC79B",
"0X c #FFB37B",
"qX c #FFA35B",
"wX c #FF8F3B",
"eX c #FF7F1B",
"rX c #F37317",
"tX c #EB6F0F",
"yX c #DF670F",
"uX c #D75F0B",
"iX c #CB5707",
"pX c #C34F03",
"aX c #B74703",
"sX c #AF4303",
"dX c gray100",
"fX c #FFFFD7",
"gX c #FFFFB3",
"hX c #FFFF8F",
"jX c #FFFF6B",
"kX c #FFFF47",
"lX c #FFFF23",
"zX c #FFFF03",
"xX c #A73F03",
"cX c #9F3703",
"vX c #932F03",
"bX c #872303",
"nX c #4F3B27",
"mX c #432F1B",
"MX c #372313",
"NX c #2F1B0B",
"BX c #030353",
"VX c #030347",
"CX c #03033B",
"ZX c #03032F",
"AX c #030323",
"SX c #030317",
"DX c #03030B",
"FX c black",
"GX c #FF9F43",
"HX c #FFE74B",
"JX c #FF7BFF",
"KX c #FF03FF",
"LX c #CF03CF",
"PX c #9F039B",
"IX c #6F036B",
"UX c magenta",
/* pixels */
"$.$.%.;.o ;.;.o ;.;.o ;.:.$.%.%.$.$.$.$.%.%.$.%.$.%.%.R R E R R E E E R R E R E R W *.$.$.$.$.$.%.$.%.%.$.$.%.%.$.l.k.l.k.l.x.%.",
"%.$.;.>.;.:.>.;.;.:.>.:.<.*.%.%.l.k.k.l.k.l.%.$.%.%.$.%.W Q W Q Q W R E R R Q W W *.$.o o ;.%.%.$.%.%.%.%.$.%.$.%.x.v.c.z.x.v.$.",
"%.%.:.:.>.:.<.<.<.,.,.<.,.*.$.l.z.l.x.l.x.l.k.%.$.%.$.$.%.*.*.*.*.*.Q Q Q W *.*.*.%.;.o :.:.:.%.%.%.;.o ;.;.%.$.$.%.*.*.v.c.*.%.",
"o $.%.,.<.,.*.*.*.*.*.*.*.$.k.x.l.k.l.z.k.z.x.c.$.%.$.%.;.;.o ;.:.%.*.*.*.*.;.o %.$.:.:.;.>.,.$.%.o :.;.o :.;.:.%.%.%.%.*.*.%.o ",
";.o ;.*.*.*.%.Y U Y $.%.%.$.l.k.l.z.x.l.x.z.x.v.%.%.o o ;.:.;.:.<.*.$.%.;.o :.o ;.:.%.<.:.,.*.%.;.:.;.>.:.;.:.,.*.$.%.%.$.$.;.o ",
":.;.:.:.%.%.U Y R R Y R $.%.l.x.z.l.z.x.z.x.c.*.%.:.:.;.:.>.>.:.,.*.%.;.:.;.>.>.:.,.$.*.,.<.*.;.o ;.:.;.>.:.>.<.*.%.%.;.o ;.:.:.",
";.:.:.,.$.Y R E U E R W *.%.x.v.x.x.x.v.v.c.v.*.%.%.,.:.>.<.<.,.*.%.$.:.>.:.:.<.,.*.%.%.*.*.%.;.:.:.>.:.<.<.,.*.%.%.;.:.:.;.:.;.",
">.:.,.*.%.U Y R Y R E Q *.$.%.*.c.v.c.*.*.*.*.%.%.%.%.<.,.*.*.*.%.$.%.%.,.<.,.*.*.%.$.%.$.$.%.:.>.:.,.<.*.*.*.%.$.%.:.>.:.:.>.>.",
":.,.<.*.Y R E Y E R Q *.%.$.%.%.*.*.*.%.U Y Y U Y Y %.*.*.%.$.%.%.$.%.$.%.*.*.%.U U Y Y U R %.$.<.,.*.*.%.$.%.%.$.%.%.<.,.<.,.:.",
"<.*.*.%.R R Y E R W *.%.%.o ;.%.$.%.%.U R Y R E U R R %.$.%.o o ;.%.$.$.%.%.U Y R Y U R E Q *.%.*.*.%.$.%.%.$.%.$.%.$.%.*.*.*.<.",
"*.l.k.%.$.W E R R Q *.$.o ;.:.:.%.$.Y E Y E Y R E R Q *.%.;.:.;.:.:.$.$.$.$.Y E Y E Y R R W *.$.%.o ;.:.%.%.$.$.%.$.%.;.o ;.:.*.",
"k.z.l.x.%.Q R R W *.$.$.;.>.:.,.*.$.R R R R E E R R W *.o :.;.>.;.:.,.%.%.%.R R R R E E Q *.%.%.o :.:.<.*.%.%.$.%.;.o :.o :.,.%.",
"k.z.x.z.c.%.Q Q W *.%.;.:.;.>.,.*.%.%.W W Q Q Q W Q *.%.;.>.;.:.:.>.,.%.$.%.%.W Q E R R W *.o ;.;.>.:.,.*.$.$.%.o :.;.>.;.:.<.*.",
"l.x.c.c.v.*.%.*.*.$.%.:.>.:.>.<.*.$.%.%.*.*.*.*.*.*.%.%.:.:.:.>.,.,.*.%.$.$.%.*.*.W Q W *.$.;.:.>.:.<.*.%.$.$.%.;.>.>.;.>.:.,.*.",
"x.v.*.*.*.%.$.%.$.%.%.%.<.<.,.*.%.%.$.%.$.%.k.k.l.%.$.$.$.,.,.,.*.*.%.$.%.o :.%.%.*.*.*.%.o :.;.:.,.*.%.%.%.%.%.:.<.:.>.:.,.<.*.",
"c.*.%.o o ;.:.%.%.%.$.$.%.*.*.%.$.%.%.%.l.k.x.z.k.l.x.%.$.%.*.*.$.%.;.o ;.:.,.*.%.$.%.%.;.:.:.>.<.*.%.;.o ;.%.$.%.*.,.<.,.*.*.%.",
"$.%.o ;.:.;.<.*.$.$.$.%.$.%.%.$.%.$.$.k.z.l.l.x.l.x.z.c.%.$.%.%.%.o ;.:.;.:.<.*.$.l.$.%.:.,.:.:.,.*.o :.;.:.:.$.$.%.*.*.*.%.%.$.",
"%.$.;.>.;.:.<.*.%.$.%.$.%.;.;.o ;.%.%.l.l.z.x.l.x.x.x.v.*.%.%.$.o :.o ;.:.>.,.*.l.k.x.%.%.*.<.,.*.;.>.;.>.:.<.*.%.%.%.;.o ;.%.$.",
"$.%.:.:.>.,.*.Y U Y %.$.%.o o >.:.:.%.x.x.x.z.x.z.x.c.v.*.$.%.;.:.;.>.>.:.<.*.$.k.z.x.v.%.%.*.*.%.:.:.>.:.,.*.$.%.o o :.o :.o %.",
"%.$.$.,.<.*.Y U R R R $.;.;.:.o >.,.*.%.v.c.v.v.v.c.*.*.%.$.%.:.:.>.:.:.,.*.%.x.z.l.z.c.*.%.%.$.%.%.,.<.:.<.*.%.;.:.;.:.;.:.;.:.",
"*.%.$.*.*.%.Y R Y E Q *.o >.;.:.:.<.*.%.*.*.*.*.*.*.$.$.$.%.%.*.<.,.<.<.*.%.%.*.c.x.v.*.$.U Y $.%.%.*.*.,.*.%.$.o o >.o >.:.:.<.",
"*.;.o %.$.U R U R R Q *.;.;.:.>.:.<.*.$.%.%.$.%.%.$.%.%.$.%.$.%.*.*.*.*.%.$.$.$.*.c.*.%.Y Y R R %.$.%.%.*.%.$.$.;.;.o ;.;.>.;.,.",
"*.:.;.:.%.U Y E Y E W *.:.:.>.:.,.*.$.%.%.;.o o ;.%.$.%.$.$.$.%.%.$.$.%.o o %.$.%.*.%.%.U E R W *.%.$.%.$.%.%.%.%.:.:.>.;.:.>.<.",
"*.,.:.,.*.Y R R E R Q *.%.,.<.,.*.%.%.$.;.:.;.>.:.:.$.%.$.%.%.;.o ;.o ;.:.o :.%.$.%.$.$.U Y E Q *.%.%.%.$.%.$.$.$.,.>.:.:.:.:.<.",
"*.*.,.<.*.%.W R R W *.$.%.*.*.*.%.$.%.$.:.>.:.>.>.<.%.%.;.o ;.:.;.;.:.o :.;.:.,.%.%.$.%.Y E R W *.%.;.o ;.o o ;.%.,.<.>.>.>.>.,.",
"*.%.*.*.%.$.*.W Q W *.%.$.%.l.k.l.$.$.%.*.,.<.<.,.*.%.;.:.;.:.o :.o >.;.;.>.:.;.<.$.%.$.R R W *.%.;.;.:.:.;.:.:.%.*.*.<.:.:.>.<.",
"%.$.%.;.o ;.$.*.*.*.%.k.l.k.x.z.x.%.$.%.%.*.*.*.*.%.%.:.>.:.:.;.>.;.;.:.>.;.:.>.:.,.%.%.*.Q W *.%.o :.;.:.o ;.:.,.%.$.*.,.<.,.*.",
"%.%.;.:.;.:.%.%.$.%.l.x.k.x.l.z.x.c.%.$.%.$.%.%.%.$.$.%.>.:.>.:.:.>.:.;.:.:.>.>.>.<.%.$.$.*.*.%.$.;.>.:.;.:.:.>.<.*.$.%.*.*.*.%.",
"$.%.o o >.:.<.%.$.k.z.l.x.z.x.x.v.*.%.%.U Y U U U Y %.$.$.<.,.>.>.:.:.:.:.>.:.,.<.*.$.%.%.%.$.%.$.:.:.>.>.>.>.:.,.*.Y U Y Y %.$.",
"%.$.;.:.o :.,.*.k.l.k.x.l.x.x.v.*.$.Y Y R Y R E Y R Y R %.*.*.,.<.<.<.,.<.<.,.*.*.%.o ;.o ;.%.$.%.$.<.:.>.:.<.,.*.$.U Y R U R %.",
"%.$.:.:.;.>.<.*.k.l.z.l.z.z.c.*.%.Y U E Y E Y R U Y R E Q %.$.*.*.*.*.*.*.*.*.%.$.;.:.o ;.>.:.%.$.%.*.,.<.<.*.*.%.Y R E Y R R W ",
"$.$.*.,.>.:.,.*.x.x.l.x.z.x.v.*.U Y R Y Y Y R Y R E R R W $.%.%.$.%.%.%.$.$.%.%.%.%.;.>.;.:.,.*.%.$.%.*.*.*.$.$.Y E Y R E E R W ",
"$.%.$.*.,.:.>.<.*.v.x.z.x.x.c.*.Y E R Y E R Y E Y E E W *.$.$.$.%.;.o o o ;.%.$.%.$.:.:.>.:.<.*.%.;.o o ;.;.$.%.R R R E R R Q *.",
"U Y %.*.<.:.>.,.*.*.c.v.v.c.*.%.%.Y R R E E R E R R R Q *.%.$.%.o :.;.:.>.;.:.%.%.$.*.,.<.,.*.%.o ;.:.;.o :.:.%.$.Q W R E W *.%.",
"Y R R %.*.<.<.*.%.$.*.*.*.*.%.$.%.R R E R R E R E E R Q *.$.%.;.:.o >.o :.>.:.<.%.$.%.*.*.*.%.%.;.:.;.:.>.:.>.,.$.*.*.Q W *.$.U ",
"Y E W $.%.*.*.%.%.%.%.$.%.;.;.%.%.%.W R R R E R R R Q *.%.$.%.o o ;.;.:.;.>.:.,.%.$.%.%.$.%.$.%.:.:.>.:.:.>.:.<.%.%.%.*.*.%.Y Y ",
"E Y R W %.%.%.$.%.$.%.%.;.o :.:.$.%.*.Q W W Q Q Q Q *.%.$.%.$.;.>.>.>.:.>.:.<.*.$.%.%.$.$.%.%.%.*.,.<.,.<.<.,.*.$.;.;.:.%.U R Y ",
"R E R Q *.;.o ;.;.%.$.%.;.>.;.:.,.%.%.*.*.*.*.*.*.*.%.%.%.$.%.:.<.>.:.>.:.,.*.%.$.$.$.$.$.%.o ;.%.*.*.*.*.*.*.%.;.o >.<.*.Y E R ",
"E R W *.o :.:.;.:.:.%.$.:.:.>.:.<.%.$.%.%.%.$.$.%.%.%.$.%.%.$.%.*.,.<.<.,.*.%.%.%.$.$.%.%.;.:.>.o ;.%.$.%.$.%.o :.;.:.<.*.R R E ",
"Q W Q *.;.o ;.:.>.<.*.%.*.,.<.,.*.%.$.%.$.$.%.%.Y U U Y U Y %.$.$.*.*.*.*.$.k.l.$.$.%.%.;.:.o ;.>.:.:.%.%.;.o :.;.>.:.,.*.%.W Q ",
"*.*.*.%.o >.;.>.:.,.*.$.%.*.*.*.%.$.%.%.%.%.U Y R Y R U Y R U Y %.%.%.$.%.%.l.x.x.%.$.%.o ;.;.:.;.:.,.*.$.;.:.>.:.,.<.*.$.$.%.*.",
"%.;.:.%.o ;.:.>.,.*.$.%.%.;.o o ;.%.$.$.$.Y Y R E Y R Y R Y R R R $.$.%.$.l.z.x.z.c.$.%.;.:.>.;.:.>.<.*.$.:.,.<.<.*.*.%.k.l.%.$.",
";.:.,.%.;.:.;.:.<.*.%.;.o :.:.;.:.o $.%.%.U R E U R Y U R R E E W %.%.%.$.l.k.l.x.v.*.%.:.>.:.>.>.:.,.*.%.%.*.*.*.%.l.k.l.x.x.%.",
"o >.<.*.:.>.:.<.*.%.%.o :.o ;.>.;.:.:.%.$.Y R E Y R E R Y U R E R W *.$.%.k.x.x.x.c.*.%.*.,.<.<.<.,.*.%.$.%.%.%.%.k.z.l.x.z.v.*.",
";.o >.,.*.<.,.<.*.$.%.;.>.:.:.;.:.>.,.*.$.Y U Y R U R R R E E R R Q *.%.$.l.z.l.x.v.*.%.%.*.*.*.*.*.$.%.Y U Y $.%.x.x.x.l.x.v.*.",
";.>.:.<.*.%.*.*.%.$.%.:.,.:.>.:.;.:.<.*.%.U Y R E R Y Y E R Y E E R W *.l.x.l.k.x.c.*.$.%.%.%.%.U U Y U Y E R R %.%.v.z.x.x.c.*.",
":.:.,.*.%.$.$.%.%.%.$.%.*.<.,.:.>.:.,.*.%.Y R E E R E R E R R R E R Q *.k.l.z.x.c.*.%.$.%.$.%.Y Y R Y R E Y E W *.$.*.c.v.c.*.%.",
"*.,.<.*.$.%.k.%.$.$.%.%.%.*.*.,.<.<.*.%.$.Y R R E R E E E R E E E R Q *.k.k.x.z.v.*.$.%.Y U Y U Y E R Y R R R Q *.%.%.*.*.*.%.$.",
"%.*.*.%.l.k.x.x.$.%.%.$.%.$.%.*.*.*.%.$.%.%.R R E R R R E E R E R R W *.l.z.l.x.v.*.$.Y R Y R E R U E R E E E W *.$.%.$.%.%.$.%.",
"$.%.%.k.x.l.x.v.%.$.Y U %.$.%.%.;.o o ;.%.$.%.Q W R E E R E R R R W *.%.l.x.x.v.*.%.%.Y E E Y R Y Y R Y R R R W *.%.%.;.o ;.%.$.",
"%.$.l.x.l.z.v.*.%.U E U Y R $.:.:.;.:.o ;.$.%.*.*.Q W Q Q Q W W Q *.%.$.x.x.z.c.*.$.$.R R R R E E R E R R E Q *.;.o ;.:.;.o :.%.",
"$.l.k.z.l.x.v.*.Y U R Y R Q %.%.,.:.>.;.:.:.,.%.$.*.*.*.*.*.*.*.*.%.$.%.*.c.v.*.%.%.$.%.W Q E E E R Q W W Q *.%.o :.;.o >.;.,.*.",
"$.l.x.l.z.x.c.*.Y E Y R E R W %.*.<.,.>.>.:.<.*.%.$.$.%.$.$.%.$.%.%.$.%.%.*.*.%.$.%.$.$.%.*.W Q Q W *.*.*.*.%.;.;.;.>.;.:.:.<.*.",
"%.x.x.x.l.z.v.*.R R R E E R W *.%.*.*.<.<.,.*.$.%.%.o o o ;.o ;.%.$.%.$.$.$.%.%.o o ;.;.;.%.*.*.*.*.l.k.%.$.$.:.>.:.;.>.;.>.,.*.",
"%.$.c.z.x.x.c.*.%.Q E E R R Q *.$.%.%.*.*.*.%.;.o ;.:.;.o ;.:.:.o $.$.%.$.$.o ;.o ;.:.o :.;.%.$.k.l.x.l.k.k.%.%.,.:.>.:.;.:.<.*.",
"$.%.*.v.v.c.*.%.$.W Q Q E R W *.%.%.$.%.o ;.;.:.o ;.;.o ;.>.;.>.:.;.:.%.%.%.;.:.;.:.;.>.o :.:.%.l.x.l.z.x.x.l.x.*.<.:.>.>.>.<.*.",
"$.%.%.*.*.*.$.$.%.%.*.*.Q W *.%.$.$.%.;.o ;.:.;.;.>.:.;.:.>.;.>.;.:.,.*.$.;.:.;.:.o ;.:.;.:.,.*.l.z.k.x.l.x.x.c.%.*.,.<.,.<.*.%.",
"%.$.%.%.$.%.o ;.:.%.$.%.*.*.%.$.%.$.;.:.>.:.;.:.>.;.;.:.;.:.:.:.>.>.<.*.%.;.>.;.;.>.;.;.:.>.<.*.l.k.x.k.x.z.z.v.*.$.*.*.*.*.%.$.",
"%.%.%.%.%.o :.;.<.%.$.%.l.l.k.l.$.%.:.,.>.:.;.;.:.:.>.>.:.:.>.:.,.<.,.*.$.$.;.:.;.:.:.:.>.:.,.*.l.x.z.l.x.z.x.v.*.%.;.o ;.o %.$.",
"$.%.$.$.;.;.>.>.:.,.*.k.z.l.x.k.x.$.%.*.<.<.:.:.>.:.>.:.<.<.,.,.*.*.*.%.%.%.:.:.>.:.>.:.,.<.*.%.l.x.z.x.x.x.x.c.*.;.:.;.:.;.:.%.",
"$.$.$.%.o :.;.:.,.*.$.l.x.z.x.l.z.c.c.$.*.*.,.<.<.<.,.<.*.*.*.*.%.Y U U Y $.%.<.,.<.<.,.*.*.%.$.x.v.x.x.z.x.v.*.%.o ;.>.;.:.,.%.",
"%.$.%.%.:.>.:.>.<.*.%.x.z.x.z.x.z.x.v.%.$.%.*.*.*.*.*.*.%.Y Y U Y R E Y R R %.%.*.*.*.*.$.$.%.$.%.*.c.v.v.c.*.$.;.:.>.;.>.;.>.,.",
"$.%.$.$.%.,.<.,.*.%.$.*.c.v.c.v.c.c.*.$.$.%.%.$.%.%.Y U Y R Y U R E Y R E W %.$.%.%.%.$.%.%.%.$.%.%.*.*.*.*.%.%.:.:.>.>.>.:.:.<.",
"$.%.%.%.$.%.*.*.%.$.$.%.*.*.*.*.*.*.%.$.%.%.$.%.$.Y R Y E Y E R Y R R E R R Q W *.%.$.$.$.%.$.$.%.$.$.%.%.$.$.%.%.,.<.,.<.<.<.,."
};
