/* XPM */
static char *_ef88b82c6bd4508e4ce392de66e10ce[] = {
/* columns rows colors chars-per-pixel */
"64 64 256 2 ",
"   c #1C1A1D",
".  c #1C1625",
"X  c #1D1924",
"o  c #1F1A2A",
"O  c #211B25",
"+  c #231D2C",
"@  c #281D2A",
"#  c #241E32",
"$  c #291E32",
"%  c #1F212F",
"&  c #252226",
"*  c #2B2427",
"=  c #25222C",
"-  c #2A242D",
";  c #2D292C",
":  c #33262E",
">  c #332B2D",
",  c #37322F",
"<  c #262232",
"1  c #2B2533",
"2  c #2D2A34",
"3  c #282639",
"4  c #2D2B39",
"5  c #322C33",
"6  c #382C35",
"7  c #322D3A",
"8  c #2C333C",
"9  c #343133",
"0  c #3B3434",
"q  c #33333C",
"w  c #3B353B",
"e  c #383A39",
"r  c #3C3B3C",
"t  c #422F36",
"y  c #443637",
"u  c #433B3C",
"i  c #4C3C3D",
"p  c #533D3D",
"a  c #48443C",
"s  c #55473E",
"d  c #624C3F",
"f  c #1F314D",
"g  c #2D3949",
"h  c #343542",
"j  c #353B43",
"k  c #3B3B43",
"l  c #393A48",
"z  c #313854",
"x  c #443D42",
"c  c #493D46",
"v  c #4E3C46",
"b  c #3C434B",
"n  c #39454A",
"m  c #3C4955",
"M  c #3F5358",
"N  c #38536D",
"B  c #3C626C",
"V  c #444343",
"C  c #4B4443",
"Z  c #474748",
"A  c #4C4B4C",
"S  c #534443",
"D  c #5B4545",
"F  c #544B44",
"G  c #5C4B44",
"H  c #594649",
"J  c #544C4B",
"K  c #5D4C4B",
"L  c #4C5249",
"P  c #585647",
"I  c #54534C",
"U  c #5C534B",
"Y  c #444B54",
"T  c #564D51",
"R  c #445254",
"E  c #44555B",
"W  c #485A5B",
"Q  c #5B5454",
"!  c #585955",
"~  c #654A46",
"^  c #624C4B",
"/  c #6F494D",
"(  c #67574A",
")  c #63534C",
"_  c #725B4D",
"`  c #675556",
"'  c #645B55",
"]  c #6C5B54",
"[  c #6A5E5B",
"{  c #755B56",
"}  c #4C635D",
"|  c #596359",
" . c #6D654E",
".. c #6B6354",
"X. c #676659",
"o. c #6B635B",
"O. c #746353",
"+. c #766756",
"@. c #74645B",
"#. c #746D5C",
"$. c #7B6B5C",
"%. c #677259",
"&. c #79735D",
"*. c #475B64",
"=. c #545769",
"-. c #4B6767",
";. c #4C6464",
":. c #4D6A6B",
">. c #556867",
",. c #536B6B",
"<. c #56736C",
"1. c #486A78",
"2. c #536E73",
"3. c #4A737B",
"4. c #577674",
"5. c #5B7C75",
"6. c #5C7D7B",
"7. c #686863",
"8. c #746C63",
"9. c #776966",
"0. c #7B6D63",
"q. c #667266",
"w. c #777767",
"e. c #7C7364",
"r. c #7C746A",
"t. c #7C7A6C",
"y. c #756D71",
"u. c #647C78",
"i. c #7C7A72",
"p. c #865957",
"a. c #866C5C",
"s. c #856A63",
"d. c #837364",
"f. c #887866",
"g. c #83746B",
"h. c #837B6C",
"j. c #8B7B6C",
"k. c #937C6A",
"l. c #847D72",
"z. c #877B76",
"x. c #8B7C74",
"c. c #957970",
"v. c #68805B",
"b. c #5D807B",
"n. c #67877B",
"m. c #64857D",
"M. c #7A8170",
"N. c #85826D",
"B. c #8C826C",
"V. c #95856E",
"C. c #858473",
"Z. c #8B8474",
"A. c #898679",
"S. c #8D8B7C",
"D. c #938374",
"F. c #968877",
"G. c #938C7B",
"H. c #9A8C7C",
"J. c #8E907F",
"K. c #959179",
"L. c #9B927D",
"P. c #A1947C",
"I. c #456B83",
"U. c #49768A",
"Y. c #557C85",
"T. c #4B7C92",
"R. c #617E80",
"E. c #4A828C",
"W. c #578689",
"Q. c #4D8396",
"!. c #528495",
"~. c #558C94",
"^. c #588996",
"/. c #558B9A",
"(. c #5A8C9D",
"). c #5B9294",
"_. c #58939A",
"`. c #5D939A",
"'. c #628482",
"]. c #658A83",
"[. c #6A8C84",
"{. c #688A88",
"}. c #6D918A",
"|. c #72938A",
" X c #65979C",
".X c #729393",
"XX c #7CA59F",
"oX c #5D8CA0",
"OX c #5C92A2",
"+X c #6395A3",
"@X c #649AA3",
"#X c #6B9DA4",
"$X c #679BAA",
"%X c #6E9FB0",
"&X c #6EA1A7",
"*X c #76A5AA",
"=X c #73A4AD",
"-X c #7CAAAD",
";X c #75A7B1",
":X c #7BABB2",
">X c #8C8B82",
",X c #938A83",
"<X c #938D82",
"1X c #9B8E82",
"2X c #8A9589",
"3X c #949384",
"4X c #9B9484",
"5X c #9D9985",
"6X c #96978A",
"7X c #9C958A",
"8X c #9D9C8C",
"9X c #989992",
"0X c #9C9D91",
"qX c #A29584",
"wX c #A99286",
"eX c #A39A85",
"rX c #A79887",
"tX c #A39C8B",
"yX c #AA9C8B",
"uX c #A39E92",
"iX c #A99F93",
"pX c #91A38F",
"aX c #9DA296",
"sX c #A4A28D",
"dX c #AAA28C",
"fX c #A4A393",
"gX c #ABA494",
"hX c #AAA897",
"jX c #A4A59A",
"kX c #A5AA9B",
"lX c #ABAB9C",
"zX c #B4AA99",
"xX c #ADB29F",
"cX c #B3B19D",
"vX c #90B3B0",
"bX c #A7ADA5",
"nX c #ABADA2",
"mX c #B2AFA2",
"MX c #ADB1A4",
"NX c #ADB5AB",
"BX c #B2B3A4",
"VX c #BAB2A4",
"CX c #B3B6AB",
"ZX c #B4B9AC",
"AX c #BBBBAD",
"SX c #B5BBB3",
"DX c #B7BBB7",
"FX c #BABEB4",
"GX c #BBC1B5",
"HX c #B8C2B8",
"JX c #BBC4BC",
"KX c #BEC9BC",
"LX c #C1C4B7",
"PX c #C2C9BC",
"IX c #BEC9C1",
"UX c #C2CAC2",
/* pixels */
"q.v.%.q.L e 9 & % & - & ; < o & + = + + O # + o o + o < & # + # o o o + o o + o + 1 1 = & < 4 7 q e q n j n n W } <.m.m.m.2.*.-.",
"L  .%.v.L L 9 ; = = & ; = O X o @ = & - $ @ @ O + < + # = < & % + o o % o + o + # 1 2 1 = < 1 4 9 8 8 j h n m R W >.n.n.m.6.-.} ",
"a P %.%.L V , & % & - ; + O X   = - ; > 5 6 ; < - - 1 - < < < + < + + + o + o # < 5 7 1 < < - 1 2 8 8 j j n Y E } ,.n.n.b.b.-.} ",
"e a P | L r ; & X & * & o O : ; ; , 9 e i a 0 5 w 5 9 2 1 & * 6 1 + + + + # # 1 2 2 1 < < ; 3 2 2 q q j r n m W W ,.b.n.n.b.:.-.",
"e a s P L e ; & O + + + + - w 6 a L ( ! 8.X.F C U v C 6 5 1 < y y < - + & < 5 7 ; $ < + ; 1 1 ; 2 7 9 q b m n E ,.4.b.m.m.b.<.:.",
", , , a P , & & . . O O - 5 0 F ' ' &.&.C.r.0.' t.#.o.P y 6 6 S [ q : 5 1 2 6 w 4 # O = = 1 1 2 ; 4 7 q b m m W >.4.n.6.n.b.4.<.",
", , , a a a &   . . . O ; 0 i ..#.8.N.N.N.h.A.] J.>XC.M.K H C +.S.L y w w 0 u 0 2 = # # = - 1 2 2 2 8 h l n Z E >.<.n.m.n.b.4.-.",
"a , , , , a *     . X $ : y P #.e.i.h.Z.B.A.3Xg.8X8X6X,X8.+.7.,XfX7.J K T r C 6 - < + + + = 1 5 2 2 7 9 x n n W -.<.m.b.'.b.4.>.",
"s , > > , a =   . . O $ 6 i ( &.M.S.F.3X5XaXaXjXbXbXbXaX>Xz.A.aXbXM.' y.7.J c x > $ @ = # = ; 2 2 2 4 9 k n m E ;.4.m.{.'.6.2.;.",
"G y > : > 0 &   . O + > i P #.&.B.Z.3X8XfXkXMXNXNXDXHXNXZXbXbXNXNXaX3X<XA.y.' J u 5 1 = @ + = 2 3 2 4 q j b n E ;.<.'.[.m.u.,.*.",
"..P v , > ; & X   o & , C ..&.r.l.S.3XsXxXMXNXSXNXHXHXHXJXSXNXNXNXMXMXbXuX,Xw.[ J c 7 < + < = : 1 1 2 8 j k R E } 4.n.].m.W.2.-.",
"#.%. .P 0 *   X . . O 6 s O.+.e.N.K.6XkXxXMXSXDXHXHXIXHXHXDXSXNXZXZXCXnXbX7X|.9.( H u < = o @ 2 2 1 4 q e m W E ;.4.n.].b.'.4.-.",
" . .7.#.P y     o o + > i ] &.f.V.K.8XkXbXSXSXDXHXJXHXJXDXIXDXSXDXDXCXBXlX0XA.r.' J w < + @ < 1 2 2 4 8 j I *.R >.4.'.m.u.b.4.,.",
"U ( X.w.#.F & X . X @ : S ..#.f.S.5X8XkXMXNXHXIXIXJXIXJXJXJXDXSXNXSXZXNXkX0XG.e.` K w - @ + # 5 2 2 4 h l ;.*.E >.5.].m.b.5.4.4.",
"F K %.w.w.P + X o . O > s  .&.B.G.5X8XkXMXZXDXIXHXIXJXJXKXJXGXFXHXSXZXBXxX8XG.s...D 6 $ # # < 1 5 5 q q n ;.W Y } 5.}.W.b.4.4.<.",
"0 a ..w.8.( @ . . o & > p O.e.N.K.P.sXhXxXNXDXHXIXIXIXIXKXJXDXDXZXSXZXBXlXsX1Xg.@.^ y 1 + < < 1 4 4 8 q Y } E E >.5.}.6.b.5.2.:.",
", i  .&.&.( & X o o @ 6 d O.d.B.K.L.sXgXMXCXFXJXIXIXJXIXGXJXGXFXSXCXBXlXhXeXH.f.@.] x 1 # # $ 1 4 2 2 q b W E M *.5..X'.R.6.2.;.",
"s F  .+.e. .- X o O - t D +.e.B.K.eXsXhXcXZXSXJXKXKXKXPXPXLXGXFXDXCXBXmXgXyXH.j.s.] v 1 = # $ 1 5 2 7 q b E Y R W 4.{.'.R.6.<.,.",
"..+.#.&.e..., O O + : i (  .&.B.L.eXfXlXBXZXFXGXKXKXKXJXKXKXKXJXAXAXCXBXhXrXH.x.+.{ S : < + $ 1 ; 2 4 q n n Y R W ,.[.{.u.u.4.:.",
"t.h.e.N.r.O., X + * 0 d ( O.a.B.L.tXhXhXMXZXGXJXKXIXUXPXKXPXIXJXFXFXCXMXlXtX4XB.s.( v 5 < < $ - 5 4 2 8 e m R m W ,.[.R.R.5.<.,.",
"N.t.d.h.e...0 O @ : p d _ O.&.f.4XtXgXlXMXCXFXJXIXIXUXPXPXUXUXFXFXFXAXCXlXyX7Xj.+.) v 6 $ # $ - 2 5 3 q q Z W m R ,.].{.R.Y.2.,.",
"N.N.h.h.e.+.t O * t d ( _  .d.B.G.7XsXlXMXCXFXFXIXPXKXKXUXUXUXJXJXLXFXSXnXiX7XZ.d.~ i , 5 $ $ 1 5 2 4 4 k b R m W :.n.{.b.4.-.:.",
"t.l.g.r.e.@.y O @ t d ( _  .+.+.h.D.H.7X0XfXhXMXSXDXHXPXIXJXHXFXFXCXnXlXnXuX7X,X0.^ i 6 : $ $ i 6 5 2 9 e Y b R R } n.[.u.6.-.} ",
"h.g.g.g.0.+.i O * p d _ O._ ) _ d.Z.S.>XA.<X,X9XbXCXFXJXJXFXDXZXnX7Xx.c.x.x.g.r.` p x t 6 $ : _ x 5 2 7 h b m Y R } ].{.{.6.:.*.",
"h.g.g.g.8.O.i O & p d _ +. .] e.A.3X7X>XC.C.J.7XhXMXSXGXHXDXCXlXuXH.j.g.g.h.x.0.` i 6 x 5 $ t p.^ 7 ; 4 q l b m m *.n.}.n.6.:.;.",
"l.h.g.g.0.{ p @ @ p _ O.&.w.N.G.8XaXfXaX8X5X3X4X8XnXZXSXGXSXMXjX7XZ.D.G.D.5XtX7Xg.^ c y 6 1 p k.9.7 4 5 e j k l Y W n.|.n.b.:.W ",
">Xz.g.g.9.O.p * : p _ _ &.Z.K.L.8X8X8X9X8X8XG.F.J.tXMXSXDXZXMX7Xz.j.V.4XiX0XtX7Xx.@.K D w : ~ k.y.4 2 5 h h k b l R u.|.].b.:.*.",
"C.z.z.r.0.( p : : s _ +.M.3X2X2XJ.F.A.3X9X9Xx.0.d.S.fXZXJXSXjXh.9.s.Z.uX0XG.3XG.x.9.] ^ x 4 _ c.y.3 3 2 7 q l b j Z b.|.[.b.:.*.",
"C.z.l.r.$.) p w : D _ O.N.5X5XB.&.#.8.W Y A X.0.d.x.tXBXKXNX6Xo.{ g.i.>X|.r.g.0.d.+.&...u y a.V.7.1 1 : 2 7 w c b n n.|.].'.:.-.",
"M.i.l.g.$.~ p J i d ( +.C.6X5XF.0.A x r 6 7 >XM.B.Z.L.MXGXNXS.{ s.2Xl 6 t c J ^ O.k.V...c G P.c.7.3 - 2 1 q h k r n m.}.].b.:.*.",
"l.g.r.0.{ ^ p #.) ~ ) +.B.K.5XP.L.B.0.9.^ ` 9X,XG.j.H.hXMXlXA.@.D.jX=.y v [ H _ f.K.B.@.c K gXF.' 3 1 1 3 2 q l k n M.|.].b.:.W ",
"y.r.0.@.( D p l.@.~ / O.N.F.6XkXeXL.eX6X7X<X<X1XF.V.L.iXhXsXx.@.x.<X,Xj.g.j.k.F.qXL.Z.] i ` lXH.! < 1 1 < 2 7 r l k 5.|.{.b.1.W ",
"o.@.@.../ G D C.@.^ ~ { d.F.7XsX7XtXtXfX7X7X7XH.L.G.H.tXhXiXF.@.d.c.H.P.1XrXiXdXsXL.j.{ v @.zXH.J # 3 < 3 3 7 k j l q.|.{.b.-.E ",
"Q ( ] ' ( G D C.h.^ ~ _ f.c.qXuXtXeX1X4XqX7X7XtXqX1XP.yXlXhXG.a.s.H.L.qXqXyXgXgXtXL.j.[ x $.zXH.c 4 4 1 < 4 7 h b n >.|.].b.-.E ",
"T K ( X.] ( K Z.S.G K { j.k.1XrXyXdXeXqXyXgXlXgXeX1XqXdXcXhXL.k.f.rXdXrXqXwXrXwXrX1Xx.[ x s.yXH.k ;.l 2 1 4 7 k Y n >.[.].5.:.E ",
"#...9.d.0.] ( F.B.( ^ _ d.D.1XiXgXgXzXdXgXcXBXzXiX7XqXyXhXgXqXk.c.yXzXzXdXdXrXwXrXH.z.o.C $.4Xg.l Y.1.g 3 1 7 h Y n >.}.{.4.:.*.",
"N.N.&.N.0...( x.r.^ K ] d.k.H.7XhXlXmXmXBXCXAXBXgX4XL.eXdXdXP.k.k.dXVXVXzXzXyXyXwXH.Z.' C 9.c.Q ;.^.R.Y.m h 7 h W E >.}.].4.:.} ",
"C.C.N.N.e...) j.N.) ~ ~ $.k.H.qXhXmXVXCXCXAXFXAXtXF.F.P.P.dXV.a.k.VXLXLXAXVXzXzXwXH.j.[ H { ` l {.oX+XT.I.N z l W W >.}.].b.:.-.",
"C.A.S.M.&._ ~ +.0.( s ~ +.s.D.rXlXCXAXFXSXAXFXCXP.a.V.P.yXyXF.s.p.zXLXPXLXAXVXzXyXH.0.' K s.A E  X+X+XT.U.I.=.l E W } [.}.4.:.:.",
"M.C.C.M.0.G t ~ f.+.S D { s.D.7XhXCXFXFXSXCXCXhXc.k.V.dXBXzXwXc.a.dXPXPXPXLXVXVXiXH.g.) ` g.c 6.#X$X+X^.Y.T.I.E E E ;.}.{.6.:.-.",
"M.M.h.e...S w G g.r.K D ] s.c.wXhXmXZXAXCXnXnXuXk.k.P.lXFXAXxXV.a.dXGXLXLXLXAXVXgXH.p.T T T Y .X%X$X+X+X(.T.U.I.*.*.;.{.}.4.:.;.",
"w.w.e.%.U y u C U o.H D ~ { f.1XiXnXMXMXbXuXbXnX,XD.H.fXBXBXuXj.a.dXZXGXLXFXAXzXiXH.{ C k >..X;X*X#X$X+XoX^.T.Y.I.1.:.}.}.6.:.*.",
"&.&.&...P 0 Z 6 : - i K ~ { $.,XuXjXlXbXuXjXnXnXjXF.1X<X8X9Xx.x.D.sXBXBXCXAXVXzXrXD.` x j XX-X:X-X%X$X+X(.(.!.!.T.1.3.R.{.Y.2.-.",
" .%...( s q a 2 - - w ~ / _ { c.1XuXuX7X6XiXbXCXMXlXsXfX>XS.1X4XuXgXlXcXhXmXzXiX1Xj.Q C b *X:X:X*X%X#X+X+X^././.T.U.U.3.4.6.,.:.",
"[ ..) P 0 r r ; - & 0 ~ ] _ { g.x.7X<XG.G.0XkXbXMXNXbXnXhXjXuXuXuXuX9XrXrXiXwXwXD.0.K C l -X:X:X*X*X%X$X+X+X/.!.~.Q.U.U.U.3.1.:.",
"U ' P F > r , ; * & 9 K { { { d.x.F.g.0.r.<XpXbXbXbXbXMXnXMXbXjXjX6X6XS.H.1XP.F.c.@.G C b -X:X-X;X*X%X#X$X+X+X/./.~.Q.U.U.U.1.1.",
"P F a 0 , e ; & & 2 w J O.$.$.d.G.,Xj.@.@.i.S.6X9XaXjXCXMXnXjX9X0X3XC.l.V.P.4XH.k.@.K H A -X-X:X:X*X%X$X@XOXOXoX(./.!.T.T.T.U.1.",
"a C e ; 9 9 * & - 8 m A +.g.0.j.<X4XG.j.V.{ K ` @.s.c.hXjX7X,Xz.9.@.@.r.K.eXdXtXG.@.o.A :.-X:X:X:X%X*X%X$X+X+X+X X/.^.!.T.Q.U.I.",
"u r , e e ; ; & < g M b [ t.g.x.<X0XeXP.eXV.{ / ~ / p.p.s.p.p./ ~ d a.eXP.hXlXtXD.0.$.x u.:X:X:X;X%X=X=X&X@X$X@X`././.!.Q.Q.T.U.",
", 2 u a a ; & & 3 M B ;.' d.h.x.<X0XtXsXsX3XV.f.p.p.p.p.s.p./ p./ +.K.sXzXcXlX5Xx.z.@.h .X;X-X:X*X:X*X%X$X@X$X$X+X(./././.(.Q.Q.",
", e s a a & & % 8 B I.).>.9.l.x.3X8XsXhXsX4X3X3XH.V.H.P.wXc.s.a.a.V.5XhXcXcXxX7XG.Z.[ h XX:X:X:X=X=X%X;X$X@X$X$X$XOX_.(._././.Q.",
"a L V e 8 & % % g 3._. Xu.9.r.G.J.0XkXlXfX5XL.>XuXiXiXzXgXyXrXH.F.V.eXlXcXcXkX8X1Xj.T Y -X:X:X:X;X=X=X&X$X#X#X#X@X+XOXOX+X_./.Q.",
"L F e , & & % 8 *.!.@XXX.X=.g.S.J.6XkXkXfX7X5X3X7X7XaXkXfXfXaX<X3XK.eXhXBXlXfX6XG.0.k ,.-X:X:X:X-X;X;X$X$X$X%X$X@XOXOXOX@X_.Q.Q.",
"P P a e & 8 g b.E.~. X=X#X2.[ g.S.6X8XfXfX8X5X5X8XtXfXfX5XsX5XtXK.3XeXhXlXdXfX8XS.[ q .X:X;X:X:X*X=X%X$X$X$X$X$X@X$X@XOXOX/.Q.U.",
"L a a 8 % M b._.`._. X#X#X}.=.8.C.K.6X8X8X5X7XsXsXsXhXsX5XtXsXtXeX5X5XsXjXiX7X4Xl.v R *X;X:X;X%X&XoXT.U.U.I.I.T.T.Q./._.Q.T.N N ",
"a V e & g W.~._.`._.#X&X&X#X*.! e.F.J.J.6X3X5X7XsXsXhXsXdXdXdXfX8X5X4X6X8X4XL.G...7 m.*X;X=X%XoXI.N Y c Y m z z z z N N N N f 3 ",
", 8 ; < <.).)._. X~. X#X&X#X2.n [ N.S.J.>XJ.3XL.rXtXfXlXnXhXtXeX5XL.F.S.F.K.L.r.n 2 Y.=X&XOXI.N l x c A A I A Y j h h l h q q 1 ",
"& & % g W.).).).~._. X&X&X XN e C w.N.N.i.C.J.L.qXsXkXMXMXlXsX4XK.G.j.t.B.K.Z.Q 2 < f ^.oXN b C S s F J ! ' ! I V k x k l w k q ",
"& & ; 1.W.).~.).).). X#X@X_.g e r U &.h.r.w.A.L.4XhXlXlXMXMXhX4XG.C.@.0.B.Z.o.q < < # z N c v D K ^ A P I Q | 7.! Z Z x n a c u ",
"; & e E.E.~.~.).).).@X&X@XU.j V a r ) #.e.X.t.A.4XjXlXjXkXMXjX8XZ.8.' d.B.8.V < < < < 4 u v s K U ) F L A T I 7.q.>.A Z a a A C ",
"e e n W.~.~.).).)._.@X X XN L L I Z V ( #.#.o.t.G.0XfXjXkXkX8X<X0.' ..h.8.Q 2 = & < & 6 i s G P ^ ) s F V x k A | w.R I V V V A ",
"e Z *.W.W.~.~.).)._.@X#X~.f } q.! | A A ! 7.' ' w.A.3X9XaX9XJ.w.Q U &.X.! %.4 < < # = y s G U ( U G s A C x e r c q.>.I I V V C ",
"a a B ~.W.).).)._.)._.@XB % } |.q.#.%.A Z P ..' U 7.8.i.l.y.7.I U o.| ! A.XX4 < # < 5 S D ~ U ) ( G D s S V y q h L u.' >.A a C ",
"L L 3.W.W.~.~.).).)._.E.f & | XX.Xw.w.%.W F L X.X.' I ! ) T T U ' ! q.aXvX}.3 = & - t d G ~ G ( G S s F F F C r q k 7.| %.| Z Z "
};
