/* XPM */
static char *_f77eb02370049b5b2c1640daec67288[] = {
/* columns rows colors chars-per-pixel */
"64 64 254 2 ",
"   c #010301",
".  c #0B0600",
"X  c #040803",
"o  c #0B0A03",
"O  c #060A09",
"+  c #0A0D0A",
"@  c #1B0602",
"#  c #140C02",
"$  c #1B0D03",
"%  c #180904",
"&  c #130E09",
"*  c #0E110D",
"=  c #121105",
"-  c #1D1105",
";  c #14140A",
":  c #1C140A",
">  c #16190D",
",  c #1C1A0D",
"<  c #131311",
"1  c #1D1B12",
"2  c #1A1916",
"3  c #200701",
"4  c #220C05",
"5  c #240D09",
"6  c #2A0D0A",
"7  c #300B09",
"8  c #221206",
"9  c #2C1707",
"0  c #23140B",
"q  c #2A120C",
"w  c #231A0D",
"e  c #2A1A0D",
"r  c #33120D",
"t  c #2C1612",
"y  c #241D13",
"u  c #2C1C12",
"i  c #341712",
"p  c #3F1511",
"a  c #331C14",
"s  c #3C1C15",
"d  c #341E1A",
"f  c #3C1C1A",
"g  c #242315",
"h  c #2C2315",
"j  c #262618",
"k  c #2C2419",
"l  c #2B2918",
"z  c #2C291B",
"x  c #332115",
"c  c #3B2216",
"v  c #35241A",
"b  c #3B241B",
"n  c #342B1E",
"m  c #3C2A1D",
"M  c #34321E",
"N  c #2F2C21",
"B  c #3B2721",
"V  c #352D22",
"C  c #3D2C21",
"Z  c #353223",
"A  c #3B3324",
"S  c #3A3429",
"D  c #3D3A2B",
"F  c #461313",
"G  c #4A1716",
"H  c #401817",
"J  c #411E1A",
"K  c #4B1D1D",
"L  c #43241D",
"P  c #4C221B",
"I  c #422B1D",
"U  c #4B2B1D",
"Y  c #51221F",
"T  c #591E22",
"R  c #452621",
"E  c #4A2622",
"W  c #442D22",
"Q  c #4C2C24",
"!  c #4D2E29",
"~  c #542321",
"^  c #5B2424",
"/  c #532C26",
"(  c #592C26",
")  c #542D29",
"_  c #5E2C2A",
"`  c #453224",
"'  c #4B3325",
"]  c #453926",
"[  c #46352A",
"{  c #4C352A",
"}  c #483B2B",
"|  c #4B3A2B",
" . c #523425",
".. c #553925",
"X. c #5C3825",
"o. c #54332B",
"O. c #5A352C",
"+. c #543B2C",
"@. c #5B3B2D",
"#. c #443E32",
"$. c #4B3E32",
"%. c #573330",
"&. c #593530",
"*. c #543B31",
"=. c #5C3C32",
"-. c #622526",
";. c #6E2D2E",
":. c #702F2F",
">. c #68342F",
",. c #643A2E",
"<. c #6A3530",
"1. c #643D32",
"2. c #693E33",
"3. c #663F38",
"4. c #7A3136",
"5. c #713A34",
"6. c #7D393C",
"7. c #3F4129",
"8. c #45422C",
"9. c #53412E",
"0. c #5C422D",
"q. c #464232",
"w. c #4B4537",
"e. c #4E4A34",
"r. c #554232",
"t. c #5E4234",
"y. c #524E37",
"u. c #594835",
"i. c #524C3C",
"p. c #5D4A3B",
"a. c #53513E",
"s. c #5A553F",
"d. c #64422E",
"f. c #644334",
"g. c #6A4335",
"h. c #644936",
"j. c #6D4A35",
"k. c #64453A",
"l. c #6C453A",
"z. c #644A3B",
"x. c #6C4B3B",
"c. c #73463A",
"v. c #78413B",
"b. c #734B3C",
"n. c #7A4E3F",
"m. c #6D513C",
"M. c #74533E",
"N. c #78543F",
"B. c #5F4C41",
"V. c #565542",
"C. c #595445",
"Z. c #5E5949",
"A. c #6F4740",
"S. c #674F41",
"D. c #6D4D42",
"F. c #724741",
"G. c #7B4541",
"H. c #744D41",
"J. c #7A4D42",
"K. c #6C5242",
"L. c #695645",
"P. c #635D4D",
"I. c #745344",
"U. c #7C5344",
"Y. c #745944",
"T. c #7A5A46",
"R. c #765448",
"E. c #7D5449",
"W. c #755B49",
"Q. c #7B5C4B",
"!. c #755D50",
"~. c #7E5D51",
"^. c #5E624D",
"/. c #66634E",
"(. c #7D634C",
"). c #696453",
"_. c #696654",
"`. c #6D6B56",
"'. c #6E6C59",
"]. c #786657",
"[. c #716C56",
"{. c #736C5B",
"}. c #796D5D",
"|. c #6E705C",
" X c #74715D",
".X c #7A725E",
"XX c #7C6F60",
"oX c #747563",
"OX c #7B7362",
"+X c #757864",
"@X c #7C7A66",
"#X c #737668",
"$X c #767969",
"%X c #7B7D6B",
"&X c #813B3C",
"*X c #863F40",
"=X c #884044",
"-X c #834D46",
";X c #825446",
":X c #815846",
">X c #83564A",
",X c #89554C",
"<X c #845A4C",
"1X c #8B5D4E",
"2X c #855E51",
"3X c #8B5E52",
"4X c #83624D",
"5X c #89654F",
"6X c #856253",
"7X c #8B6354",
"8X c #856B55",
"9X c #8D6A55",
"0X c #8F6459",
"qX c #83685B",
"wX c #8D6B5A",
"eX c #936455",
"rX c #9A6757",
"tX c #926957",
"yX c #926659",
"uX c #946B5C",
"iX c #9A6C5E",
"pX c #86715A",
"aX c #8B725B",
"sX c #95715E",
"dX c #9C705F",
"fX c #966D61",
"gX c #9B6D62",
"hX c #9A6C68",
"jX c #817463",
"kX c #807D66",
"lX c #847E6C",
"zX c #967261",
"xX c #9B7464",
"cX c #9B7967",
"vX c #9E7469",
"bX c #9E796A",
"nX c #8A7F70",
"mX c #A16D60",
"MX c #A17266",
"NX c #A27569",
"BX c #A17A6B",
"VX c #A87A71",
"CX c #7E816C",
"ZX c #7F8271",
"AX c #83836E",
"SX c #89836E",
"DX c #858572",
"FX c #8B8472",
"GX c #868972",
"HX c #898B75",
"JX c #878978",
"KX c #8B8C79",
"LX c #908573",
"PX c #8D907A",
/* pixels */
"%X%X%X%XZXZXZXZXCXCXGXCXGXGXGXCXGXGXGXDXJXDXFXGXKXHXHXHXPXHXPXPXHXHXHXHXHXHXHXPXKXKXHXHXHXPXPXHXHXHXHXDXDXDXGXJXZX%X+X+X#X#X#XoX",
"%X%XCX%XAXZXZXAXCXGXCXDXAXGXCXGXGXGXGXDXJXFXJXJXKXGXHXGXHXHXHXPXHXHXGXGXHXHXHXHXHXHXHXKXKXHXGXPXKXGXDXDXZXDXZXDXZX%X$X$X+X$X#XoX",
"CXCXCX%XCXCXGXCXCXCXGXCXCXGXGXGXGXGXGXJXJXHXJXFXGXGXGXHXHXPXPXHXPXGXGXGXGXHXHXHXHXHXJXJXKXKXHXHXHXDXDXZXGXDXAXZXZX%XZX%X$X%X$X#X",
"CXCXCX%XCXCXCXAXGXCXCXAXGXCXGXCXGXGXJXHXDXFXFXJXCX|.^.V.s.V.^._._.|. XCXGXHXHXHXHXHXFXHXKXHXHXHXGXGXGXGXDXAXZX%XCXZX%X%X$X+XoXoX",
"CXCXCXGXCXGXCXGXGXDXAXDXGXGXGXGXGXHXJXDXCX+X/.a.D N l j j j g l z Z M 8.s.[.@XSXAXAXSXDXDXJXFXHXDXDXZXAXDXDXAXCX%XCXCX$X#X#X#X#X",
"CXCXCXGXGXCXCXGXCXDXDXDXGXGXGXGXCXGXZX/.e.Z l j g g g g g g g l z M M M 7.7.s.[.[._.{.%XDXJXKXHXKXGXJXlXAXDXDXAXCXCX$XCXoXoX#XoX",
"CXCXCXCXCXGXCXGXAXDXDXJXDXDXDXGXZXCXi.z 1 1 , , > > , , , 1 g l M S e.e.y.y.y.y.P.P.e.w.Z.oXHXDXGXGXKXJXJXJXAXZX%X%X$X$X#X|.|.|.",
"CXCXCXCXGXCXGXCXDXDXDXDXFXJXJXAX_.M > > ; ; = ; = > = > ; > , g j Z A M M M M M V Z S V N Z Z.$XDXGXKXHX%X%X%X%X+X+XoX#X|.'.`._.",
"AXZXAXAXZXDXAXAXGXDXSXGXGXAX@XC.j ; > ; > ; ; ; ; ; ; ; , g j l h w w w 8 w w w j w y h z z N #._.@XAXlX%X@X$XOX|.`.|. X|.|.`.|.",
"ZX%XAXDXDXDXDXFXDXDXFXGXSXAXP.z ; < ; ; = ; ; ; , w w w h v m m A m m m M m n x l h h w u l n n S [.@X@X@X.XoX.X X|. X`.|.|.|.`.",
"AXAXlXDXDXDXDXAXDXDXSXGXFX@Xq.1 = = = = ; h I ..0.f.h.x.j.m.T.M.N.T.4X4X8X(.(.M.m.h.@.` v w w l z q.{.oX.X.X}.|. X[.`.`.'.|.`.`.",
"AXZXDXDXDXDXDXAXSXDXDXSXlXC.y + o ; , v *.m.(.(.4X4X4X4X5X5X5X5X9XaXsXsXzXzXcXsXwX7X4XY.m.+.n h h n V.{. X X|.[.[.`.`.[.'.|.`.`.",
"AXDXDXDXDXDXDXJXSXDXSXAXV.y & & , V ] r.D.R.~.2X6X7X7X7X9X7X5XwXaXsXaXcXcXxXcXcXcXxXzXwX4XE.h.m y w M /.'.'.'.[.{.{.).].{.oX[.'.",
"AXAXDXDXDXDXDXGXHXGXGX_.j ; < y [ r.h.z.I.Q.~.2X6X6X6X9X5X7XwXsXsXsXzXzXzXcXcXcXcXcXcXzXuX9X4Xh.a w g P.oX{.|.[.'.'.{.'.`.'.|. X",
"DXAXAXDXDXDXSXGXDXSX@X8., , g C *.p.z.D.I.R.Q.4X6X7XwXwXuXsXzXfXsXsXxXxXzXcXcXbXcXcXcXzXzXsXuX5Xd.l k a.{.oX{.{.{.'._.{.'.{.{.{.",
"DXAXlXDXFXSXSXGXSXSX{.M w g V } *.k.z.D.I.Q.2X6X7X9X7XuXuXzXzXfXsXzXzXzXxXzXcXcXcXxXxXsXxXzXtXwX4X+.I $.'.{.{.{.'.{.'.'.'.'.|.|.",
"DXlXSXSXSXSXGXFXFXFX/.z 1 z A } +.h.z.D.R.U.Q.4X7X9XtXuXuXzXzXxXxXzXsXcXdXcXxXcXNXcXxXNXxXdXsXtX4Xh.' } ).{.{.{.{.[.`.[. X'.|.+X",
"SXDXAXAXSXSXFXFXFXLXV.l j n ` [ *.0.l.D.R.U.U.:XU.<X7XuXdXxXxXxXxXzXxXzXxXdXcXNXNXcXNXNXsXeXdXtX7Xm.{ } P.{.[.[.{.|.[. X`.|.#X#X",
"AXnXSXlXSXSXSXSXFXSXi.l l m C ' *.k.S.I.U.U.T.U.;X<X2X7XuXuXzXzXsXdXsXxXzXcXxXcXxXxXcXcXxXuXuXuX7XQ.=.[ i.`.|. X}.}. X[. X X XoX",
"nXlXSXSXSXSXGXFXSXFXZ.k k n ` } t.z.D.Y.T.T.U.T.T.U.:X<X3X0XwXfXzXaXuXsXsXsXdXdXxXxXxXxXxXxXuXsX7X2XM.| r.}.{.}.OX.X X.X X}.|.}.",
"SXSXSXSXLXFXHXLXLXLXP.V n A } +.t.t.0.t.h.z.x.x.x.m.b.b.E.E.<X2X1X7X5X2X7X0X7X7XtXuXzXzXzXzXzXzX9X9XQ.r.i.{.}.}.oXOXOX}.{.[.{.{.",
"SXkXSXSXSXSXLXLXLXSXP.V N C [ } ] ` m b x u u h b W ' O.3.F.H.E.Q.>X<X>XE.U.J.J.b.b.x.x.m.T.4XuXwX6X4Xz.p.}.}.}.OXOX}.'.[.'.'.{.",
"kXSXSXSXSXSXLXLXLXLXP.S V V m k h h e e q 0 0 8 4 0 t a R %.x.H.>X>XH.j.2.( Q b c a c W ' *.K.~.8X8X(.K.u.].XX}.}.}.{.{.'.{.{.{.",
"AXkXSXSXSXSXLXSXLXLXP.S n v y u u y h n I W b c t q q t t E f.H.>X<Xb.,.U c s a a a b b I ` *.=.z.W.Q.K.S.{.XX}.{.}.}.}.{.}.{.{.",
"SXSXlXnXnXnXLXnXnX}.} m n e 0 : 0 w v C ! *.*.! B i q 5 q L h.U.0X0X:X2.U P U U  .@.t.=.=.=.*.%.&.t.R.W.L.XXXX{.}.}.}.XX}.{.{.{.",
"kXlXlXSXSXnXnXLXjX*.v m l e w 0 0 w u C ` *.*.W a i q q e E c.7XgXvXeXj. .U Q ! %.1.m.D.A.k.k.&.%.@.K.R.!.].XXXX}.{.}.}.].}.}.}.",
"nXnXnXSXSXnXnXnX].` v m m v c e u 0 0 : # o & u b a i s L &.n.1XgXNXrX;Xn.@.K L f B [ *.*.=.=.*.=.t.D.!.~.qXXX}.}.}.}.}.}.}.}.|.",
"lXSXlXlXSXnXnXlXB.b m ] +.@.+. .Q I B R W ! o.f.g.,.o.&.,.2.n.eXgXNXrXeX1XJ.&.Q t & & 0 a b W ! %.3.R.~.R.G.XXXX}.}.}.}.}.}. X}.",
"} ).}.OXOXkXlX`.[ i b +.h.m.j.d.j.x.H.D.b.J.E.>X<Xb.g.,.2.,.c.1XmXNXdXeXrXrX<Xb.1.1.=.=.3.k.k.R.!.~.6XqX3X-X6XjXjXOXOXXX XOXOXOX",
"o # o o = = = : t t m 0.m.M.T.Q.<X<X7X7X7X7X7X7X<XJ.2.>.,.,.c.1XdXmXmXrXeXtXiXuXuX1X4X7X0X0XwXfXhXfXzXfX7X,X,XjX.X}.XXXXOXOX.XOX",
"X X X X X X X : u a ` @.x.I.U.U.<X2X2X2X7X3X7X3X;Xj.,.o.) ,.n.eXiXMXmXrXeXtXiXNXNXNXBXBXvXbXBXbXBXbXbXzX3XG.G.*.9.q.$.$.#.#.#.#.",
"X X X   X X   : x c W @.h.b.H.U.;X>X<X1X3X7X3X3X>Xc./ E Q l.<XrXiXNXMXrXeXeXdXxXNXMXhXNXBXBXBXBXBXbXbXvX0X-X5.a % : ; & & = = = ",
"            X : c c ` =.g.l.U.<X<X<X<X1X3X1X3X3X,Xg.Q Q ) g.J.0XNXVXNXMXeX3XyXgXMXMXNXNXNXNXhXNXNXhXhXgXyX-Xv.E $ # . . o . o o ",
"            . 5 e h U =.l.H.U.E.;X:X:X<X3X1X7X1X>X1.) R f f ! 1.J.,X<X>X,X3X0XiXMXMXNXmXMXgXmXgXgXgXyXuXyX3X,X! % . . X X X X X ",
"              o 5 u b &.l.F.G.G.-Xn.U.-X,X3X1X<Xv./ K r 5 q t i J R ) O.1.J.3XiXMXMXMXMXmXgXgXgXiXiXiXyX0X7X3X=.% . X X       X ",
"                X , C ! =.l.c.b.J.n.U.-X,X1X1XU.O.s 7 @ . . % 5 q t 5 5 i ( -XrXgXgXMXMXMXgXgXgXiXhXgXyX7X,X>X@.- o .   X X X X ",
"                . : b { @.f.l.j.b.M.U.U.:X1X>X2.Q s r 5 4 4 6 q i I L i r P J.iXgXgXMXMXgXgXiXiXiXiXiX0X2XH.1.a .   X X X X X X ",
"                o : b { @.h.g.x.b.b.c.U.U.;Xn.g.( U L s b L ) O.,.l.U.b.5.J.iXgXMXMXdXgXgXgXiXiXhX0XyXyX2Xk.w . X X           X ",
"+ O   X         o : v { @.f.f.g.j.c.b.b.J.n.b.b.b.c.2.,.l.b.U.U.J.3X0X3X3XyXiXvXNXgXgXgXzXdXiXyXyXiXiXyX2Xk.: X X X X X   X   X ",
"X X             o : c ' ..@.@.d.d.j.j.j.j.b.b.b.c.b.b.n.E.1X7X7XG.0XhXhXfXyXuXuXgXgXvXgXgXiXiXuXhXyXyXyX2X=.1 X X     X   X     ",
"                . : a W  .o. .+...@.@.=.d.d.f.f.g.x.x.l.c.-X3X1X,X,X3XrXuXuXuXfXgXfXgXfXiXuXyXrXuXuXiXuX3Xf.; . X   X           ",
"                X # 0 v ! ' ) ' '  .{ ' ' I c b c s F s K K ^ <.<.<.<.5.6.-X2X3X3X7X0XyXuXyXyXyXrXeXuXtX2X=.:   X X X X   X   X ",
"                X # : d b W R I I I m b x t $ @ @ @ $ 3 4 7 6 7 F G G F F F Y _ _ 2.E.3X3XyXeXyX7XtXtX7X;X+.; . X X             ",
"                X # & e a v x d a x x b B ! m s J P Y ^ -.^ ^ T T -.:.;.;.-.-._ _ O.2.>X2X3X3X3X7X9X7X3XE.+.: X           X     ",
"                X # % 8 u a a u a u e h c I c a i J K ^ ;.4.4.4.4.&X=X*X&X&X=Xv.J.J.c.b.U.>X<X2X3X3X3X<XH.} ; X     X           ",
"                X o o - 8 w 0 0 w 0 e e e a e q 4 3 5 6 r H K ~ ~ T ^ ~ ~ ( _ 2.c.v.c.c.b.b.b.n.U.<XE.U.l.` & . X               ",
"                X # # # $ $ - - $ # $ # $ 8 8 8 $ 5 4 @ $ @ @ 3 4 5 5 6 i R %.=.1.d.g.l.j.j.j.b.b.U.U.x.=.v . .   O             ",
"                o # o # # # # # $ # $ % $ 8 4 8 4 5 4 4 5 6 q 6 p J s J J L ~ %.O.,.1.f.f.f.f.g.g.j.l.0.{ y o X                 ",
"                . # # # % # # # $ # $ - $ 8 $ 4 4 4 5 r f L ! %.%.%.) E E E E ) =.O.@.@.@.@.=.@.=.f.+.o.B : X   X               ",
"                X $ # # # # # # $ $ - - 8 $ 8 4 4 8 a ! =.1.l.b.A.A.l.1._ %.) / ( o.+.O.=.=.@.+.+. .' [ n ; X     X     O       ",
"                X # - # # $ $ $ - - 8 $ $ $ 4 4 q c o.f.c.n.U.J.H.E.J.J.l.1.%./ ) %.&.%.%.=.%.%.+.) ' ' V .       O             ",
"                  # - - # $ - - 8 8 8 8 4 4 8 8 e P X.g.g.n.U.U.E.-X2X>X>Xb.,.) ) %.&.%.=.o.)  .o. .W ] y O     O O             ",
"                  o - - $ # - w u e u u e e 9 9 c U X.d.j.j.b.H.E.-X-XE.J.v.,.X.=.&.=.%.O.o. . . .! | +.= X   O   O   O         ",
"                X o = w - $ $ w u c B m I I U U U ..X.X.X.,.1.2.k.c.c.3.c.n.n.1.1.,.@.+...' @.+.' ' z.`     O     O O           ",
"                  X ; w w - # $ 0 u B W ' ..o.@.g.d.j.d.g.g.g.l.l.l.J.U.>X<X<XH.l.f.1.@.0.@.0.' ..m.z.;           O             ",
"                X O = , w w - $ $ 5 u b ` ' @.@.,.d.d.g.2.,.2.g.l.b.b.U.U.>X<X;XU.M.j.g.d.0.' 0.Y.T.m X                 O       ",
"                O O + ; y w w w $ $ - w a I ' ! Q ! / ! ! ' Q {  .=.f.j.x.U.U.U.H.b.x.h.@.' h.4X4Xu.+     O           O O       ",
"                  O O + : u u u 8 - $ $ - 0 d v x d n v x h a c R { ! =.=.f.k.g.g.f.d. .| R.8X7XI.t             O O   O         ",
"                    O O & g h h e e 8 - - $ - 0 0 0 w e 0 5 : w e u a c C C C W W ` { h.(.8X8Xm.n X           O O   O O         ",
"                      O + < n m h h h 9 q - 4 4 - 4 8 0 w 5 5 5 - 5 0 e e u t a [ h.Q.8XwX8Xm.h o           O     O O           ",
"O O                     O O < [ 9.m x h e w w 5 5 4 4 8 8 5 8 - 8 8 - 9 e b *.R.qXwXaXpX8Xr.; o         O       O               ",
"                          O * * N u.0.9.W b h e w w 0 0 0 0 8 0 w e c ] h.Y.(.8XaXaX8XL.V < & X   X       O O   O O             ",
"    O                     O + O O 2 V $.p.z.*.[ W B b v b v V ` ..t.m.(.(.pXpXjXpXL.} y < < + X             O                   ",
"    O                       O O O O + < 2 Z $.p.S.L.K.K.L.K.R.W.(.(.(.8XpXpX(.L.S y < < < * X     O     O                       "
};
