/* XPM */
static char *_02ef3ed9d594748c672ef9e308097e9[] = {
/* columns rows colors chars-per-pixel */
"64 64 256 2 ",
"   c #1C160B",
".  c #1A130E",
"X  c #1C130D",
"o  c #23150D",
"O  c #29160D",
"+  c #25190D",
"@  c #2B1A0E",
"#  c #331E0E",
"$  c #271812",
"%  c #251B13",
"&  c #2C1B11",
"*  c #311D12",
"=  c #35220E",
"-  c #2C261A",
";  c #332213",
":  c #3A2513",
">  c #372914",
",  c #3D2A14",
"<  c #37281A",
"1  c #3C2B1A",
"2  c #1C1E22",
"3  c #2D2C2C",
"4  c #3A3424",
"5  c #43270D",
"6  c #442C15",
"7  c #482A16",
"8  c #432D1A",
"9  c #542C19",
"0  c #49331B",
"q  c #4B341C",
"w  c #573516",
"e  c #54341C",
"r  c #5B351B",
"t  c #533A1D",
"y  c #5D3B1C",
"u  c #642A1B",
"i  c #633B1C",
"p  c #473925",
"a  c #573621",
"s  c #543B23",
"d  c #5C3D23",
"f  c #433E32",
"g  c #6F2C22",
"h  c #643C23",
"j  c #6B3D25",
"k  c #773D28",
"l  c #69441C",
"z  c #774A1E",
"x  c #4B432D",
"c  c #5C4225",
"v  c #55442A",
"b  c #5C442A",
"n  c #4C4634",
"m  c #584C37",
"M  c #58513A",
"N  c #634224",
"B  c #6C4224",
"V  c #654925",
"C  c #63452A",
"Z  c #6C442A",
"A  c #644A2B",
"S  c #6A4C2C",
"D  c #734324",
"F  c #764627",
"G  c #7A4C24",
"H  c #724C2B",
"J  c #7C4B2B",
"K  c #6D512C",
"L  c #7C5324",
"P  c #75542C",
"I  c #7B542E",
"U  c #654A32",
"Y  c #784C31",
"T  c #6D5333",
"R  c #66543A",
"E  c #735433",
"W  c #795635",
"Q  c #755935",
"!  c #7B5B35",
"~  c #7B5C3B",
"^  c #7C6039",
"/  c #5C5642",
"(  c #685D46",
")  c #785E42",
"_  c #685E50",
"`  c #6C624B",
"'  c #76654A",
"]  c #6D6450",
"[  c #796C54",
"{  c #7C735B",
"}  c #7C7365",
"|  c #933F2F",
" . c #864A2A",
".. c #844C2C",
"X. c #845A26",
"o. c #8B522E",
"O. c #865929",
"+. c #884E31",
"@. c #845634",
"#. c #875936",
"$. c #8B5B3B",
"%. c #945433",
"&. c #975036",
"*. c #985935",
"=. c #945C3B",
"-. c #9B5D3A",
";. c #A84C3B",
":. c #A45C3B",
">. c #8B6128",
",. c #8D622C",
"<. c #93642C",
"1. c #98682E",
"2. c #83633B",
"3. c #8B673B",
"4. c #936433",
"5. c #93623B",
"6. c #986938",
"7. c #9C7239",
"8. c #A3673C",
"9. c #A67639",
"0. c #B2783B",
"q. c #A35C44",
"w. c #846544",
"e. c #8B6B42",
"r. c #8A6A48",
"t. c #976A43",
"y. c #8C724C",
"u. c #977447",
"i. c #896E54",
"p. c #86775A",
"a. c #977755",
"s. c #A76A45",
"d. c #BA6B4B",
"f. c #A87748",
"g. c #B77A49",
"h. c #A77854",
"j. c #B87954",
"k. c #867A64",
"l. c #C97557",
"z. c #D77B67",
"x. c #BB843D",
"c. c #C1873F",
"v. c #9F8158",
"b. c #A6824A",
"n. c #B98846",
"m. c #A78458",
"M. c #B98759",
"N. c #BC9451",
"B. c #8C826B",
"V. c #98886A",
"C. c #8C8573",
"Z. c #958B74",
"A. c #9D9277",
"S. c #A98966",
"D. c #B88C65",
"F. c #A5936A",
"G. c #B69169",
"H. c #A79678",
"J. c #BA9975",
"K. c #B2A07F",
"L. c #C38A47",
"P. c #C6954B",
"I. c #C58758",
"U. c #C4845A",
"Y. c #CC8B5C",
"T. c #D2895D",
"R. c #C99756",
"E. c #D29957",
"W. c #CFA45B",
"Q. c #D7A759",
"!. c #E3B15C",
"~. c #CC8B62",
"^. c #D48D64",
"/. c #CA9666",
"(. c #D49263",
"). c #D99869",
"_. c #DC9B6B",
"`. c #C49D73",
"'. c #D69C73",
"]. c #E39B6B",
"[. c #E79B74",
"{. c #D9AA65",
"}. c #DEB368",
"|. c #C5A77B",
" X c #DAA776",
".X c #DAB97B",
"XX c #E4A36C",
"oX c #E3B363",
"OX c #E8B969",
"+X c #F1BD6A",
"@X c #E5A572",
"#X c #EBAB75",
"$X c #E8A978",
"%X c #F3AC7C",
"&X c #E7B67A",
"*X c #F2B67B",
"=X c #F2C370",
"-X c #F5C778",
";X c #9F9580",
":X c #A79C83",
">X c #B09D8D",
",X c #ABA38B",
"<X c #B5A78B",
"1X c #B4AB92",
"2X c #BBAC95",
"3X c #BCB298",
"4X c #C9A886",
"5X c #CAAE8E",
"6X c #CBB288",
"7X c #D7B58B",
"8X c #C3B597",
"9X c #C3B49C",
"0X c #C3BA9C",
"qX c #D6B396",
"wX c #D7B796",
"eX c #F0AF86",
"rX c #E9B786",
"tX c #F7B887",
"yX c #C3BBA2",
"uX c #CBBCA3",
"iX c #CABBA6",
"pX c #D4BFA9",
"aX c #CEC296",
"sX c #DAC69D",
"dX c #F4C48D",
"fX c #FAC48B",
"gX c #F9C795",
"hX c #F6CF90",
"jX c #CBC2A6",
"kX c #CDC3AC",
"lX c #D3C4AC",
"zX c #D5C8A9",
"xX c #D9D1AF",
"cX c #D5CAB3",
"vX c #D7C8B4",
"bX c #D9CBB4",
"nX c #DBD4B6",
"mX c #DCD5BA",
"MX c #E8C9A8",
"NX c #FBD7A6",
"BX c #ECCEB0",
"VX c #E7D7B8",
"CX c #F2D4B5",
"ZX c #F4D9B8",
"AX c #F5DBBB",
"SX c #F5E2BC",
"DX c #FAE4BB",
"FX c #F7DDC2",
"GX c #F6E4C3",
"HX c #F9E4C4",
"JX c #F9E9C6",
"KX c #F8E6C8",
"LX c #FBECCC",
"PX c #FCF0CE",
"IX c #FCEED1",
"UX c #FCF1D2",
/* pixels */
"AXFXZXFXCXFXCXFXFXCXFXMXMXBXFXFXAXZXCXCXFXFXFXFXFXFXHXHXHXHXHXKXKXKXLXKXLXIXIXLXKXLXIXLXAXGXIXUXUXUXUXPXIXUXIXLXUXLXJXSXSXPXUXUX",
"AXCXCXCXCXCXCXCXFXCXFXCXgXCXCXCXCXZXCXMXCXAXFXFXFXGXFXCXpXsXCXAXFXKXKXKXLXLXLXKXGXKXKXIXJXVXLXPXLXLXIXUXIXUXLXLXLXGXDXCXJXPXJXJX",
"CXCXCXBXMXBXBXMXMXMXMXCXqXMXMXBXBXBXMXBXBXCXBXZXBXBX5Xa.a.y.y.S.4XqXMXAXHXKXHXKXSXKXKXGXJXAXJXLXLXUXIXIXIXLXKXLXHXZXDXDXJXLXJXJX",
"BXMXMXMXMXMXqXqXqXqXqXqX'.qXMXMXMXwXwXwX5X7XwXwXwXJ.a.r.w.r.u.a.y.w.a.S.5XZXHXKXGXKXGXGXKXZXJXLXUXLXPXLXPXLXPXSXSXDXPXPXPXUXUXUX",
"MXpXqXqXqXqXqX4X4X4X4X4XD.>X4X4XJ.J.J.S.v.S.S.G.S.r.w.) ~ ~ e.2.w.2.~ ^ u.m.6XGXGXKXGXKXJXCXJXLXLXUXPXLXJXSXAXJXLXLXJXPXUXUXUXUX",
"qXqXqX4X4XJ.J.>XJ.J.J.S.h.S.a.t.r.w.2.! ^ ^ ~ w.~ T S U U Q ~ Q Q e.y.u.w.e.u.F.wXGXGXGXJXVXPXLXIXLXKXSXSXLXLXKXLXLXLXUXUXUXPXUX",
"4X4XJ.J.J.S.H.S.S.h.a.a.w.) Y Y S S T T Q ~ Q T b b t v C E E Q e.e.2.e.e.e.u.y.v.|.MXDXSXSXPXPXLXGXSXLXPXUXIXUXPXPXUXPXUXPXLXUX",
"J.D.D.S.S.h.h.a.i.i.r.Y U b d v v c T ) Q U m A b A c c U b U ^ ^ Q ! W 2.3.3.e.e.e.J.sXCXGXJXLXKXJXJXUXUXPXLXUXIXUXPXIXIXPXLXUX",
"S.S.S.h.a.a.y.e.w.W C s s p a s c T T A b A T T T ~ ! Q E d A S S c c c c S Q 2.u.e.w.G.wXJXJXLXIXLXLXIXIXIXIXIXUXUXUXPXPXLXPXPX",
"h.a.a.a.y.w.w.R U a s q q s s c A b c V C U T Q Q ~ e.e.2.E P S Z y q a q p s c K 3.3.e.|.BXGXLXLXPXIXIXIXIXIXIXIXLXLXLXPXLXPXPX",
"i.a.r.r.w.~ U t 0 q q t s c s b s c c c c c c K w.u.2.3.t.e.7.t.s.$.Y V a q s q c A ^ 2.u.7XSXLXLXLXLXPXLXIXIXIXUXIXPXLXPXPXLXLX",
"r.r.r.) Q c q 8 1 0 a s t t s c A A A A A T ~ ^ S P 3.5.t.f.M.I./.Y.M.f.@.d s C c c K ^ e.F.sXJXLXPXPXLXLXIXIXIXLXIXPXLXLXLXPXJX",
"w.) ~ Y c 8 6 0 q a s q p t c V A S E ~ ~ W W w.! O.5.g.I.).{._.XX_.{.(.I.4.y A c t c T ^ m.6XSXLXLXLXPXPXIXIXIXLXPXPXLXPXPXJXPX",
") W U a 6 6 6 q q 8 p q q V A b P ! Q T E ~ K @.=.f.M.Y.).].].XX@X@X#XXXXXR.=.H Q V t K ^ 7.`.SXHXJXLXLXLXPXLXLXLXPXLXPXJXJXLXPX",
"d e q : 8 6 q 8 8 8 0 0 s T A Q ~ t 6 a N Z @.6.g.L.Y.E.).Q.].@X#X#X#X*X*X#X~.5.! E c Q e.e.m.sXHXJXLXLXLXIXLXLXLXPXPXLXJXPXLXLX",
"s s 1 8 8 8 6 1 1 1 8 6 A V K Q A 1 e N F @.-.s.g.I.T.T.)._.XX].XX@X#X*XtX*X#XR.4.K y 2.e.b.7.|.AXKXJXLXLXJXPXLXLXLXJXJXPXLXLXLX",
"8 , , 1 8 : 1 < , > > , V A Q Q b e N J o.4.8.j.l.I.T.E.].].XXXXXX#X#X%XtX*X*X#Xn.L l K b.b.u.u.6XJXLXLXPXLXLXLXLXIXLXJXPXPXLXPX",
"1 1 , 1 1 < # < > > = 6 N K Q Q d N B O.=.q.s.n.I.I.Y.(.).)._.].@X#X#XtXfXfXfXfX&Xf.V K e.v.7.y.u.sXKXJXJXLXLXLXLXKXLXJXJXPXLXIX",
"* ; ; ; * * : * = = @ , d H E W d Z J o.-.8.d.g.I.U.I.^.).).].].@X#X#X*XtXfXfXfXdX@X! l P u.7.b.a.v.VXDXJXJXLXLXLXLXLXLXLXLXUXLX",
"* * & * * ; ; = @ @ O ; c E K Q C j J o.*.:.s.g.U.U.U.T.(.].]._.[.#X%X*XtX*XfXfXfXhXW.V V 3.7.b.b.b.wXSXJXJXLXJXJXLXLXLXLXIXIXIX",
"& @ O * < * ; * O O $ ; s K K Q I D J o.*.8.s.s.g.I.U.T.(.(.)._.XX@X#X%XeXtXfXgXhXgXfXf.y ! 3.7.b.m.b.aXsXPXJXLXLXLXKXIXIXLXUXIX",
"; # ; ; * * & O $ X + @ 6 S P Q E j J o.*.:.s.s.g.I.I.Y.T.(.(.(.).XX@X%XtXtXfXgXgXgXhXrXz c 2.3.u.b.3.F.|.SXJXLXJXJXPXLXIXLXLXIX",
"* * & ; @ $ o o % o o @ # s S C K j J +.%.*.:.s.d.I.Y.Y.Y.~.Y.(.(._.$X%XtXgXgXgXgXfXtXfX XV V ^ ^ e.u.m.F.VXDXJXLXLXLXIXLXIXLXLX",
"* @ O # * * o o o o O * & ; 8 e h D F  .%.*.8.:.8.I.T.(.(.~.Y.I.)._.@X%XtXgXgXgXtXrX$X&XrX7.P V Q ^ ^ e.`.SXDXJXKXKXKXLXLXLXLXLX",
"# @ O $ + @ ; & & & ; + $ O = 7 r D G  .%.*.:.8.8.g.T.^.(.(.^.Y.).).$X$XeXeXdXeX'./.D.D.M.M.3.I Q ^ ! u.6XVXDXJXJXLXKXLXLXJXLXJX",
"5 O $ $ O o & $ $ o o o $ $ @ = 9 F  .%.<.*.*.:.8.g.I.T.~.~.(.(.).).'.'.).`.~.a.r.$.u./. X7XD.! y V V ! v.SXDXPXJXLXKXJXJXLXLXLX",
"j O $ * & o o o o o + O O O O : r D  .o.*.*.-.-.s.s.g.l.l.~.^./.).'.).M.s.=.@.E t.D. XeXrXrXdXm.P w t c Q VXDXJXHXJXJXJXKXLXLXLX",
"G 5 @ * @ o $ & & O + + O * # 7 j  .o.*.*.5.-.=.=.6.s.f.j.M.~.~./.(.~.j.h.f.s.t.s.D./.'.'.&XdXrX7.P K c V VXVX|.J.|.NXDXJXJXKXJX",
">.i = # = @ O O o O O @ # = 7 r D  ...Y F Z h h C Z Z $.t.s.j.U.^.)._._./.f.F h s ) t.=.s.W.*XgXM.f.) s K G.7.,.7.N.+XhXNXDXJXJX",
"1.G w 5 = = = # * ; * & # 7 7 r D i y w 0 , 1 q e t j Z Y $.5.s.~.rXdXrXU.%.F B h $.D.7X&X*XfXhX}.M.e.y ^ b.b.1.x.oXoX=X-XhXNXDX",
"1.o.l w 7 # O X $ + X . O 5 9 9 w 9 r r y S P #.$.~ Z j h j J *.M.eXgX%X~.s.-.=.s.j.R._.XX%XfXhXgXf.! I 9.x.1.>.1.n.OX=X-X-XhXhX",
"0.<...l w 7 # X X o o o X : 9 9 r l Z H J ..#.2.E d 9 a a 9 h +.s.).tXtX_.).U.U.U.(.).(.].@XtXNXNXrX6.6.1.b.1.>.x.b.!.=X=X-X-XhX",
"0.9.>.G l w 7 @ X X X X o # 9 w l D D j r q 6 o 1 U h 9 r i j F *.l.%XtX%X%X#X].].].].].].%XgXNXNXgXh.5.1.1.>.1.9.n.Q.!.=XOX-XhX",
"g.g.<.X.z i w 6 O o X X X O 9 w j j i 5 5 7 9 a Z Y j h j j k F o.:.^.%X%X%XtX%X#X[.].[.%XtXgXNXNXgXf.,.<.<.X.,.x.E.P.Q.!.oX=X-X",
"c.0.1.O.L F l w = # O X X O 9 i l i w r h B k F k j j F ..F  .k o.&.d.@XtXtXtXeX[.].].#X%XtXgXNXNXdX6.,.>.X.L ,.7.P.P.E.oXoX!.=X",
"c.c.0.1.X.z l i w # O O X   7 h z z  .G D k k j k Y +.+.+. . . . .%.8.].tXtXtXtXeX].^.).[.tXgXCXNXhX6.<.X.L L ,.7.9.n.P.Q.{.!.P.",
"L.L.0.:.X.z l i w w = = X X = i k z  .o.o.+.+.%.&.%.%.%.+.+. . . .o.:.I.eXeX%XtXeX^.l.j.U.[.rXtXgXMX6.X.X.L L X.4.9.9.W.oXn.n.Q.",
"L.c.0.1.X.o.G D w w 7 = % . = r k  . .o.*.*.;.-.&.q.-.*.&.+. . .o.%.:.l.].%X%XeXeX).~.s.-.f./.$XdXdX1.X.X.z L >.,.7.P.oXP.P.E.oX",
"L.c.0.<.>.o.z l y 7 5 , < % @ w F  .o.o.%.*.:.:.:.:.-.*...F k  .o.*.:.d.z.[.eXtXeXeXeX'.h.....m.&XhX3.>.L L L L X.7.OXoXx.x.!.+X",
"L.c.0.>.<.O.L l l t c R p < & 6 i J  .%.*.=.:.:.8.q.=.o.F u J  . .&.q.d.z.[.tXtXeXeX X'.m.t.@.G  XrXu.>.X.z L X.,.n.oXoXx.P.{.+X",
"L.L.9.<.<.o.z z y v ~ ~ x p 1 > r F Y $.*.=.-.:.-.=.$.F k h k .. ...%.s.l.z.'.'.^.~.U./.m.=.#.z M.rX1.L X.L X.L ,.n.Q.!.P.W.!.!.",
"L.c.9.1.o.z z l t A ' ' m 4 v > 9 Z Y o.$.$.=.=.=.%...Y Y Z j k D F Y $.h.j.D.j.D.).).j.~.M.=.8./..X>.>.X.L X.L ,.P.}.!.Q.!.!.+X",
"L.g.8.*.>.L l l t V ' ) R 1 R p : N I I #.$.$.t.$.Y B h j h d a e a Z $.i.&.q.^.^.z.d.^.rX Xg.{.rXM.! >.X.>.! >.1.x.Q.!.OX!.OXOX",
"L.0.1.1.O.z l l v v i.i.v > ) m ; q H @.W $.=.t.W w 0 r h h a h j j H q.q.d.j.d.;.l.[.tXdX&XM. X.X3.L ,.1.>.,.>.1.N.Q.oXQ.Q.+X!.",
"n.g.9.7.X.G l t v p [ p.p p ' ( m 8 B ! W #.5.e.r 7 a t a a a a j j k k &.| ;.;.z.tXgXgXtX X/.R.M.L X.4.>.>.1.1.9.P.=XQ.P.+XQ.!.",
"R.L.9.9.X.l w 0 v p ' H.f v i.i.( v 6 K @.I #.f.$.9 N C g a u 9 u u g | ;.;.;.l.[.eXgXgXdX~.M.D.u.>.,.,.1.>.7.7.N.!.}.c.P.=X!.+X",
"I.n.f.1.z y t p p 1 ' ,XM m p.H.k.R < 8 H I H $.s.$.r Z Y Y Y Y k k k | q.q.l.~.'.'.gXgX7X~.M.h.^ X.,.3.,.,.1.b.P.!.Q.P.W.+X!.+X",
"I.n.7.H c 0 5 p A R i.p.n x p.:XH.V.` + , V E H J #.Y d Z Y @.Y @.@.$.q.h.j.j.j.^.eXeX7X).M.h.w.L X.,.7.1.>.x.P.Q.W.P.x.Q.oX=X+X",
"f.t.K S V Q i.y.p.H.k.p.m m [ H.9X>X:Xn . < s S S C C h h Z H Y @.@.$.$.t.s.s.f.U.'. X/.R.`.m.! 3.>.6.7.7.b.x.N.P.P.P.Q.OX}.=X}.",
"p.a.a.H.<X<Xa.p.H.8XV.k.R R i.Z.yX3X:XZ.f . % < 8 q q 8 e h C H Y @.$.t.s.t.s.s.j.U.~.M.M.N.u.y.F.,.1.7.9.x.N.x.P.W.P.Q.OX!.}.OX",
"2X5XpXyX8XV.a.F.8XuXH.p.( R ) V.3X0X3X3XC.. . % + ; ; * : q s S H @.$.=.=.s.g.h.s.f.M.M.h.m.^ A K.F.9.7.b.b.b.W.W.N.N.Q.}.}.OX}.",
"jXpXuX2XV.a.A.2XjXjX2Xp.] ( i.k.<XjX9XkX1Xk.. .   % ; ; ; * 1 s d C H I #.=.s.t.t.3.s.u.t.3.v > { aXv.b.b.F.N.N.n.N.N.Q.}.}.Q.}.",
"pX0X4XS.V.H.<XsXzXjXyXV.[ ( i.k.A.0XkXiXyX3X/ o     + + - + & , 8 e a c H @.5.t.$.Q $.3.^ V v + ` aX1XB.v.V.3XaX6XN.W.Q.W.}.}.}.",
"4X<XH.F.K.2XuXuXuXjXiXiXp.[ p.k.Z.1XlXjXkX1X,X3 2   + +   @ + + - < 8 q a j P I E S S A 0 x M % M 0XmXp.[ p.V.<XxXxXaX|.W.}.W.}.",
"<XH.>X2X2XuXzXbXcXcXcXkXH.k.k.k.k.H.yXcXyX3XyX:Xf % % % < 1 < # & & 1 8 q s V c C U < ; > 4 M 4 x aXxXZ.[ v.V.aXxXxXxXxXaXW.W..X",
"8X2X5X9XuXlXpXlXcXcXkXkX9X/ p.p.p.B.1XkXkXjX3X:XA.4 - 2 % s y.h.u.$.W K U W a.J.rXp.. % 4 4 M / p 8XmX1XV.V.V.A.F.xXxXxXSX.X}.Q.",
"2X9X9X9XiXlXlXlXbXzXlXlXlX} ( } { B.A.0XbXyX,XyX1XA.4 3 - 4 R G./.D.M.M.N.'.rXrXdXR . . - p M ( / jXmX0XB.{ ` ` p.jXmXmXmXxXQ.Q.",
"5X9X9X9XuXuXvXvXlXvXzXjXvX3XM ( k.} k.:XjXkX1XyXV.,XZ.n f - 4 M `. XD././..XrXhXrXS . 2 % p n / [ mXmX0X` ` ` ` Z.aXnXxXmXmX.XOX",
"uX2X9XiXuXlXvXvXvXpXuXlXcXkXA.( _ { { B.,XnXkX3XB.;X3X,Xn f 4 4 T |.{./. X7XdXdX`.Y * . % 4 n M B.nXmX0X` A.{ ` :XxXjX0XnXxX}.!.",
"jXpXyXpXlXpXlXlXpXlXzXlXkXcXkX,X] _ { B.B.1XiXyXA.:XA.3X,X` f - p R 6X.X&XdXdXdXD.@.e - % 4 n p ,XnXnXjXF.A.{ { 1XjX0X0XmXxX}.}.",
"iXlXpXiXiXlXlXpXvXbXmXcXmXvXmXkX1X_ _ } B.C.1XyX0XA.C.:XyXjX{ 4 - x ( 7XhXfXhXdXM.5.H f - - x x aXmXmXB.H.,X1X,X1X0X,XyXnXxXOX}.",
"2X9XpX2XpXpXpXvXbXbXbXvXvXvXcXvXcX1X/ } k.k.C.,XyX3XB.Z.,X1X3X} 4 - n y.sXfXfXdXM.6.@.f 2 - 4 p.aXmXmXn { :XaXaXxX3X1XxXaXxX.X}.",
">XiXlXpXpXvXpXbXmXbXcXcXiXvXmXbXcXcX;XM { } } B.,XyX1XZ.Z.A.H.0X1X/ < n [ dXfXdXP.s.( 3 2 - x ,XnXmX0Xn ` A.3XmXxXH.3XxXjXnXmX.X",
">X2XpXmXvXvXlXvXvXvXvXvXcXkXkXmXmXcXjX{ m _ { k.C.:XyX3XZ.B.Z.<X1X0X,XM x i.rXeXM.7.A 3 2 2 ( aXmXnX,XM M Z.,X1XjX;XjXjXxXmXxXaX"
};
