/* XPM */
static char *_779653e5fbf42e7f1962e3bfcee7d63[] = {
/* columns rows colors chars-per-pixel */
"64 64 256 2 ",
"   c #040404",
".  c #0A0A06",
"X  c #0B0B0B",
"o  c #080707",
"O  c #120E0B",
"+  c #0E100D",
"@  c #14110D",
"#  c #1B140D",
"$  c #0E0F11",
"%  c #131313",
"&  c #1A1612",
"*  c #1C1A15",
"=  c #1C1C1A",
"-  c #171817",
";  c #101010",
":  c #21160E",
">  c #241A13",
",  c #2B1C14",
"<  c #221D1B",
"1  c #271A14",
"2  c #341D16",
"3  c #24231D",
"4  c #2B231A",
"5  c #2E2017",
"6  c #34241B",
"7  c #3C241C",
"8  c #3C291E",
"9  c #34271C",
"0  c #191D24",
"q  c #171E38",
"w  c #1B2229",
"e  c #1A233A",
"r  c #252523",
"t  c #292623",
"y  c #2B2A25",
"u  c #2D2D2B",
"i  c #262829",
"p  c #3D2A21",
"a  c #332E27",
"s  c #33332C",
"d  c #39362B",
"f  c #343432",
"g  c #3A3534",
"h  c #3C3B34",
"j  c #3C3C39",
"k  c #2D302E",
"l  c #201E21",
"z  c #432B1E",
"x  c #44231D",
"c  c #432C22",
"v  c #4B2D23",
"b  c #482521",
"n  c #532B26",
"m  c #4B3225",
"M  c #4D3429",
"N  c #483529",
"B  c #53352A",
"V  c #543A2D",
"C  c #5B3A2D",
"Z  c #57342A",
"A  c #423E33",
"S  c #433E3A",
"D  c #5C3C32",
"F  c #543D31",
"G  c #61382E",
"H  c #633C33",
"J  c #693732",
"K  c #733536",
"L  c #3F4039",
"P  c #444235",
"I  c #4A4536",
"U  c #44423B",
"Y  c #4B463A",
"T  c #4D4A3B",
"R  c #514B3D",
"E  c #584337",
"W  c #55503E",
"Q  c #654235",
"!  c #64453A",
"~  c #6A453A",
"^  c #6C4B3C",
"/  c #68483A",
"(  c #734B3E",
")  c #73483B",
"_  c #61553F",
"`  c #1A2E4E",
"'  c #4D4B44",
"]  c #4E4D49",
"[  c #484641",
"{  c #534D43",
"}  c #554F47",
"|  c #555244",
" . c #5B5444",
".. c #54534C",
"X. c #5A544A",
"o. c #5D5A4C",
"O. c #5A5847",
"+. c #5A5652",
"@. c #5C5B54",
"#. c #5D5D59",
"$. c #565552",
"%. c #4F5040",
"&. c #6B4C42",
"*. c #764D41",
"=. c #635A46",
"-. c #635C4C",
";. c #655948",
":. c #745142",
">. c #7B5445",
",. c #7B5548",
"<. c #7C5849",
"1. c #625D53",
"2. c #615E5A",
"3. c #7D5B51",
"4. c #65614E",
"5. c #6C624C",
"6. c #6D6147",
"7. c #74664B",
"8. c #656154",
"9. c #6B6554",
"0. c #64635C",
"q. c #6B655C",
"w. c #6D6A5A",
"e. c #6D6856",
"r. c #7B6D55",
"t. c #736D5C",
"y. c #776B56",
"u. c #77715D",
"i. c #666561",
"p. c #686763",
"a. c #6B6A65",
"s. c #6D6D69",
"d. c #676863",
"f. c #736D64",
"g. c #716F6B",
"h. c #6F706B",
"j. c #757263",
"k. c #7A7564",
"l. c #73726C",
"z. c #7A756C",
"x. c #7E7A6E",
"c. c #767571",
"v. c #797773",
"b. c #7C7A74",
"n. c #7D7D79",
"m. c #777873",
"M. c #5F605A",
"N. c #17476D",
"B. c #83554A",
"V. c #845A4B",
"C. c #8B5B4D",
"Z. c #825445",
"A. c #8C5D52",
"S. c #835C53",
"D. c #935E51",
"F. c #915D4F",
"G. c #8A6555",
"H. c #946355",
"J. c #996356",
"K. c #946459",
"L. c #946A5A",
"P. c #9D6B5D",
"I. c #996659",
"U. c #877659",
"Y. c #97745D",
"T. c #92624E",
"R. c #A1685C",
"E. c #A5735E",
"W. c #837B6B",
"Q. c #857967",
"!. c #9D7263",
"~. c #827D73",
"^. c #827E7A",
"/. c #9D6E62",
"(. c #A56C62",
"). c #A96F62",
"_. c #A37264",
"`. c #A97769",
"'. c #AC7D70",
"]. c #B37B6E",
"[. c #9A8769",
"{. c #858173",
"}. c #8B857A",
"|. c #8D8A7D",
" X c #888378",
".X c #938573",
"XX c #938B7B",
"oX c #988B76",
"OX c #8D8571",
"+X c #A28C6D",
"@X c #A88A72",
"#X c #B38274",
"$X c #BA887A",
"%X c #A69479",
"&X c #B2826D",
"*X c #C18A7F",
"=X c #8B8984",
"-X c #8A8985",
";X c #938D82",
":X c #918F8B",
">X c #94928C",
",X c #999386",
"<X c #9B9A95",
"1X c #9E9D99",
"2X c #989691",
"3X c #A99D88",
"4X c #BC9483",
"5X c #A19E98",
"6X c #B68C80",
"7X c #A4A29C",
"8X c #A9A599",
"9X c #B8AA94",
"0X c #B5A68B",
"qX c #A6A6A3",
"wX c #ABAAA4",
"eX c #AEADA9",
"rX c #A9A6A3",
"tX c #B1AEA9",
"yX c #B3B2AD",
"uX c #BAB6AC",
"iX c #B5B4B1",
"pX c #BBBAB5",
"aX c #BDBDB9",
"sX c #B8B6B1",
"dX c #C29485",
"fX c #C8978A",
"gX c #CC9489",
"hX c #C9A693",
"jX c #CCAF99",
"kX c #C8BBA7",
"lX c #C0BCB9",
"zX c #D2C3AC",
"xX c #C2C2BE",
"cX c #CDC6BC",
"vX c #D5CAB9",
"bX c #C5C5C1",
"nX c #CACAC5",
"mX c #CDCDCA",
"MX c #C8C7C3",
"NX c #D3CDC4",
"BX c #CFD0CB",
"VX c #D2D2CE",
"CX c #D7D1C2",
"ZX c #D5D5D3",
"AX c #D8D7D5",
"SX c #D7D8D3",
"DX c #D9D9D6",
"FX c #DDDDDB",
"GX c #DFE0DC",
"HX c #E2E2DE",
"JX c #E5E5E2",
"KX c #E7E8E3",
"LX c #E9E9E6",
"PX c #ECEBE9",
"IX c #E8E7E4",
"UX c #E0DFDD",
/* pixels */
"W R I I I I I I I I T R R wXJXKXLXJXLXLXLXLXJXJXFXGXSXAXDXNXpXyXyXiXpXpXeX1X;X~.0.' U j s r % % $ X X % = y h h P h j f k e ` N.",
" .R Y I I I I I I T E R R ;XJXJXLXLXJXJXJXJXJXGXFXGXBXFXGXMXaXlXaXxXxXxXpXqX<X>Xz.} i r < % X o o X X $ * r s h P d h k e w q N.",
" .R Y I I I I P I R R R R xXJXHXJXPXLXJXKXJXJXJXJXHXGXHXSXnXZXZXVXBXmXMXbXeXwX1X=Xa.< = & % $ o o X X $ - y d d h h s i w w q ` ",
" .W E I I I P F E { { R R AXJXIXLXJXJXLXLXJXJXJXHXGXHXFXSXVXMXxXaXiXpXiXpXpXiXqX2Xv.[ - & $ o o o X X % 3 u d h A d k i w w q q ",
" .W T I I I A I R &.&.{ R FXHXJXJXJXLXPXJXJXJXKXJXJXHXBXmXeXqXwXiXqXyXqXeXeXqXeX7X=Xg.- % $ o   o X $ % l s L A h L s i w 3 0 0 ",
" .W T I I I I A R X. .R  .FXJXHXJXLXLXJXJXJXJXLXKXHXBXpXeXyXyXiXiXpXsXwXqX7X5X1XqX2X^.S X X o o o $ $ - i f L L P L k w w 0 - - ",
" . .E I I I I I E } } R 1.FXJXJXJXJXKXJXJXKXJXLXGXMXyXyXpXnXDXSXAXZXmXmXMXpXwX1X<X2X:Xs.% X X o X $ $ - y L [ U d s r = $ - $ % ",
";. .R I I I I P I R W R j.FXJXHXJXHXJXHXJXLXLXUXxXeXMXMXJXHXHXSXbXMXpXsXbXbXaXsX1X:X:X=Xi $ X $ X $ $ - u U ' L y 3 0 $ + X X X ",
"O.O.T I I I T I I R R R ~.FXJXJXJXJXJXPXJXLXHXaXeXnXHXKXGXMXpXuX1X5X}.7X,X7X2XtXwXwX=X:Xq.$ $ X X X X - k U [ h r - + + o o o . ",
" .O.R T I I I I I R R { ,XHXUXJXJXJXJXLXPXJXnXtXMXPXKXmXxX>X| T ' p N S I  .f.>X2X1X2X:X^.= $ X $ + $ - y j U k - .             ",
";.O.W I T I I T R T T R 5XUXJXHXJXLXPXJXPXVXeXxXPXKXSX|.o.% . # , , , , , : # p q.x.<X<X=X..; $ $ + X - r f j y +               ",
";. .W T I I T R R E ' R 7XUXFXFXHXKXJXPXFXaXxXLXKXBX;X* + @ 4 9 2 2 2 2 , : > # & } ~.~.=Xa.- % % % % = r k s r + .             ",
"-.O.{ T I I T T R T R R 8XFXUXJXJXJXPXKXnXlXHXLXxXg.< & 9 A I V v n v x 2 , , : # O p j.:X=Xa - - = = l t u u t %               ",
";.-. .T I T T T T R R R wXFXUXJXJXPXPXZXaXSXLXVX~.. O a d T V / V.( ) H m x 2 : O . O 9 z.b.2.l r i u u d g h s = o             ",
";.;. .R I Y I R R R { { eXAXUXJXHXHXJXmXbXPXFXtX3 X * T a N m ) H.T.C.Z.) C z , :   O . Y ~.z.f h S [ [ ' } ..T y X             ",
"-. . .R Y I R T R R R R tXFXFXFXHXJXFXxXJXJXyXd X @ 5 I 4 z V Z.P.E.Y.T.C.( Q z : O O . . 1.~.X.o.1.8.9.w.w.t.4.h %             ",
"-.-.O.R I T T T %.T W W wXSXGXGXGXJXmXnXPXZXf.X @ # > d : z C Z.E.`.E.Y.P.C.*.B 1 O . o o t Q.f.z.W.W.W.{.{.{.k.%.=             ",
"-.-.=.R I Y R T T %.T W wXSXFXGXGXJXMXUXLX7X< X @ * 9 9 > z ) T.&X&X&X&X`.P.S.&.7 : O   o o f.f.XXXXXX,X,X|.XX{...3             ",
"-.-.=.{ Y Y T I I P P I 8XSXFXFXJXVXbXLXmXd X . @ : 4 4 > z >.Y.#X$X$X#X#X`.K.:.p , O . o   X.g.<X3X3X<X,X|. Xl.%.=             ",
"-.-.o.| T Y E T P d d d >XSXFXFXFXmXVXJXwXO X O @ * > : > m Z.&X*X*X4X$X$X!.~ B c 6 : .     d g.XX8X3X,X|.{.k.M.L %             ",
"-.4.=.| T T T I d 3 3 3 h.ZXDXFXUXbXGXVXb.. O O # # > # , G D.#X0XhXdX$X@X3.V V D c 7 O     . z.x.8X2X{.j.0.%.L 3 + o           ",
"-.-.-. .T T T P s * @ % U BXSXFXSXpXLXeXt O O @ # # : : 7 Q P.#XfXfX4X#XG.F B ~ D M V 1       e.j.8X;X0.%.f r - X o             ",
"4.1.4.O.T T T I y %   X - mXZXSXVXMXGX{.. + O # @ # : , z ) !.$XdX4X6X!.! p ~ G B F / p       ' j.3X{.L - + . o     o     .     ",
"4.4.4.=.T T T T s % X X X mXZXDXbXmXpX%.. + @ # # # : , m V.`.$X6X$X@X3.c V Z c x Q :.N       3 l.|. X[ k = X X X = 3 3 = = = = ",
"4.4.5.-.W T T T d * . . X bXVXSXxXZXiXf O @ @ # # # , 9 ~ K.`.$X].'.S.m c M Z 7 c :.Z.E O   o % j.c.|.0...j X X - s R { { } { %.",
"4.4.5.o.| R T T h < o . X <XVXSXpXFX7X$ + # @ @ # # 2 z C._.&X#X'.K.M 7 7 n N 5 C V.C.! O   . X g.j.n.h.a.] - X y W y.k.z.z.x.W.",
"4.9.9.-. .T T W L 3 X o o #.mXSXxXZX XX # @ @ # # : z Q H._.'.'.!.*.B 7 6 * > b ~ D.H.~ #   o X 1.x.z.j.z.+.= $ s -.Q.OX X.XXX|.",
"9.9.9.8. .%.T T P r + o o f mXVXeXVX}.X . @ @ # # , z >.H.!.`._.K.~ v 2 1 5 v C >.K.J.*.,   . X h z.0.0.q.} t 3 I t.OXOXXXXXXXXX",
"9.9.9.9.O.%.%.W P y + . . w MXVXeXmXl.O . @ @ # : 2 Q >.A.!._.L.B.H 7 1 x v C Q C.J.J.&.6   . $ * f.1.8.e.o.}  .y.OXXXoXXXXXXX;X",
"e.9.e.e.o.W W W T s + . . % bXmXeXbX1.O @ @ @ # > 8 V C ( C.L.K.,.V b c n D &.,.J.R.K.&.9   X X X x.q.9.t.t.Q.oX<X8X8X8X8X8X8X8X",
"w.e.w.e.4.| W | T d % . X + pXmXqXsXf.+ @ # @ # > 5 5 m Q ( C.P.L.~ n D &.*.A.K.J.J.A.&.p o . X X f.w.q.f.W.,X8XuXlXlXpXpXpXyXyX",
"w.t.t.e.4.| | | %.h * . o X yXnX7XsXw.X @ @ > > > 6 B Z C Z Q !.#XL.,.S.S.J.R.R.R.I.G.&.p O X X X b.f.w.t..X0XkXzXvXcXnXcXcXcXcX",
"w.t.t.w.4.O.| | | L = X . X 7XMXqXxX8.. O @ 8 E C Z 7 p , z c Y.4X#XP./.I.R.(.(.(./.A.! N + . X o 0.j.w.t.OX9XzXzXNXCXvXCXCXCXvX",
"u.w.u.t.e.O.O.| O.P 3 X X X n.bXqXpXj.o @ 2 C C v 7 1 , 2 m B G.fX4X`.(.I.P.(.`.(./.G./ V & o o X @.f.w.t.OX9XzXzXvXvXvXCXCXCXCX",
"t.t.j.w.0.O.O.O.O.I y X X o L yXyXeXz.. @ 5 z , 1 & : v Z D *.L.fXhX].R.K.R.(.(./.P.S._ F & o   X } g.t.t.x.3XjX9XkXkXzXzXzXzXzX",
"t.u.j.j.e.O.O.O.O.%.y + o X + -XyXeX{.  O > , : 1 7 Z H ~ >.C.P.$XhX$XJ.K.H.R.R.P.K.V.^ F % o o $ U g.8.e.u.oX%X0X0X0X0XjXjXkXkX",
"u.j.t.j.e.o.O.o.O.| s + . X X n.yXqX{.@ . # 2 7 v C Q ~ ,.F.D.(.#XgX$XK.I.( Z.J.T.T.V.^ E O   o % j g.X.@.@.w.k.OXoX%X%X%X3X3X3X",
"j.t.j.j.e.o.| o.o.| d - X X X $.7X<Xl.f o O 2 c B C ~ B.T.D.F.P.`.dXdXR.Y.( ) Z.V.V.<.&.E .   o % s z...$.o.@.@.@.M.M.8.t.Q.[.U.",
"u.j.u.j.w.4.W @.o.O.L * + o . 0 >X7X X|   . 8 D Q ) B.F.J.J.T.I.`.$XfX).'.K.Z.J.C.>.>./ V o     X u b...@.@.@.@.M.@.8.@.@.o.o.o.",
"u.j.k.u.w.o.| o.o.O.L 3 . . . + :XwX2Xq.  o 9 J B.F.D.J.R.R.J.K.#X*XgX$X$XK.T.(.G.^ ^ Q V .     . y x.} ..@.@.M.0.M.M.M.M.@.o.O.",
"k.j.k.j.w.o.%.O.@.o.T 3 . X . . 0.7X>Xj.X   # H V.J.R.(.).R.F.B.$XgXgXgXdXK.B.K.,.F n D M O     X y ~.| $.@.@.0.0.0.0.d.0.0.M.1.",
"k.j.k.k.j.4.%.O.o.o.%.k + + + . * qX5Xz.3   . M V.L.(.`.).R.C.B.$XjXhXgX6XA.G 3.! F m ! N X o o + u l.] ..@.#.8.i.0.0.a.d.0.w.M.",
"k.k.k.k.u.4.%.%.o.4.%.h 3 * * # + >X>Xx.Y     , :.G._.`.`.P.F.A.*XgXjXgX].,.c ! V Z B F 9 + O - $ i z.} ..o.0.0.d.d.d.a.a.i.d.M.",
"k.k.k.k.k.M.[ %...4.o.%.h d y y 3 @.1X|.l.    . V 3.!.!.).H.C.T.).*XgXgX_.n M &.v Q E m 4 @ @ = + h h.' ..+.M.d.i.d.d.d.a.a.d.0.",
"k.k.k.k.j.e.%.P ..1.1...R I I A A P 1X;XW.=     4 ! S.Y.L.V.L.L.Z.J.#X`.B.v J x :.>./ 8 > % @ k X L h.] ..+.M.0.0.d.a.a.h.h.s.i.",
"k.k.k.W.k.w.%.L { 8.4.o.O._  . .W { :X2Xz.'     . V :.V.C.Z.G.Y.C b &.*.b G n J <.>.D 8 # # # i $ @.w.] | $.@.0.0.a.d.h.a.h.h.a.",
"k.k.k.k.k.w.%.P %.o.4.1.;.=.=.-.4.-.f.1X~.j.      > ! >.V.^ ^ :.D 7 c x n G G *.>.>.V 9 # @ * i X f.8.' ....@.0.i.a.a.h.h.h.h.h.",
"k.k.k.k.k.w.W I | o.8.;.;. .;.6.5.e.5.<X:Xz.t       N ^ V.E m E &.~ J ~ n n K *.>.( M N @ * y y X v.X.] ] $.M.0.0.0.d.a.h.s.h.h.",
"k.k.k.j.u.w.o.W O.5.5.4.=.=.=.=.5.5.5.~.<X~.f.      O V :.^ m B C b b b b K *.~ :.,.D c # & a l = b.' ' ] $.#.0.i.0.d.s.g.h.h.g.",
"k.u.u.u.u.y.5.6.6.r.u.y.7.7.6.6.;.=.=.-.7X>X~.r       > F :.M C Q ~ H G K H G H <.:.D 9 & < S $ U c.Y [ ] $.#.2.0.i.d.h.h.h.g.g.",
"u.u.u.u.r.r.7.7.r.U.Q.W.W.U.U.y.5.=.| %.-X<Xb.a.        > F F B ! ( >.>.^ n v *.<.! B < & l g X #.f.S [ ] $.#.p.0.a.s.a.s.s.l.l.",
"y.e.y.y.r.r.G.U.{.OX|.XX;XXXOX{.k.4.O.] b.<X=Xk.f       o # 9 m V Q ^ ) H Z G *.&.V v , & < l $ a.o.j [ $.$.i.d.i.p.a.h.s.s.c.g.",
"y.y.r.u.U.U.U.U.OX|.>X2X<X2X2X;X-Xm.h.c.aXiX2Xm.z.= o       O 6 N F B M G H Q &.H c 4 < & a % i a.' j ' ..#.2.a.d.p.s.a.s.g.l.c.",
"y.r.k.x.W.{.W.W.OX|.>X2X<X7X7X<X:X2X:XaXmXbX2X-Xx.X.%   o     $ 4 B F m D D C D V p < > % S X ] w.S j ' $.#.2.p.p.a.a.h.s.s.c.c.",
"e.u.k.{.{. X.XXX.X|.;X,X<X1X1X1X1XqXaXBXBXmXqX2X}.c.} = o   o   O 4 V M M D D B 7 4 < > < t O p.o.A [ ..$.0.0.d.a.h.h.h.s.c.c.c.",
"4.4.j.~.|.|.|.XX.X.X.XoX,X2X2X<XqXaXZXZXVXmXaX2X:X~.a.2.i o   o o @ 4 c M M c 9 3 3 > * 4 $ f q.{ S [ ] #.0.2.a.a.s.h.h.c.h.h.c.",
"' } 1.z.OXXXXXXXXX[.[.[.oX%X;X>XiXZXZXZXZXmXbXeX:X^.~.c.g.[ X o o . O : 9 9 , > , = < 1 g X 1.1.S [ ] #.$.i.2.s.g.g.c.l.v.c.l.m.",
"j h [ q.Q..X[.[.[.[.[.+XoXoX;XtXVXFXZXVXVXmXmXxX1X=X^.~.c.c.2.u o o o O @ # # * & & % a = u q.[ S ] +.2.2.i.s.c.g.l.c.v.v.b.v.c.",
"g k s } r.[.[.[.[.+X+X+X+X%XtXVXAXAXZXZXZXZXmXbXtX:X^.v.~.z.c.l.] @ . X X O O @ @ # & S $ ..1.S S $.$.i.i.s.s.m.c.c.m.c.c.m.m.l.",
"f u t Y y.U.[.+X+X+X%X%X%XlXAXDXAXAXZXZXZXZXmXmXxX7X=X~.c.g.f.~.b.@.= + X + @ @ % @ l = l #.{ S ] $.#.p.p.s.g.c.m.c.c.b.m.b.b.l.",
"k y t g X.r.U.U.[.+X%X%XkXZXDXFXAXAXAXAXAXVXmXmXnXiX-X^.v.s.2.q.x.z.X.t < : @ @ O < = o [ 1.[ ] ..#.i.p.s.s.c.m.c.n.m.n.m.v.c.s.",
"k i r u T =.6.G.U.Y.+X0XZXDXDXFXAXAXAXAXZXmXVXmXMXxX1Xm.v.z.2.+.] o.q.{ h a y 4 = & o i X.] ] } $.2.p.s.s.g.c.m.m.m.v.n.n.v.g.g.",
"s y r y d I W _ 7.G.Q.NXDXFXDXDXAXAXAXZXZXVXmXmXbXaXiX-X2.v.i.2.] S f g { } X.Y S f w [ S } $.+.2.p.s.g.s.m.n.m.n.v.n.n.n.c.m.m.",
"u r r t d A P A I _ ,XAXDXFXAXDXAXZXAXAXVXmXmXmXMXxXiXiX=X..2.2.] [ j g f h ] h j g j S S S $.2.s.g.g.c.c.m.n.n.-Xn.n.^.n.n.n.v."
};
